SplineFontDB: 3.2
FontName: Monocraft
FullName: Monocraft
FamilyName: Monocraft
Weight: Medium
Copyright: Idrees Hassan\nhttps://github.com/IdreesInc/Monocraft
Version: 001.200
ItalicAngle: 0
UnderlinePosition: -120
UnderlineWidth: 0
Ascent: 960
Descent: 120
InvalidEm: 0
sfntRevision: 0x00010000
LayerCount: 2
Layer: 0 0 "Warstwa t+AUIA-a" 1
Layer: 1 0 "Plan pierwszy" 0
XUID: [1021 996 28533912 32259]
StyleMap: 0x0040
FSType: 8
OS2Version: 4
OS2_WeightWidthSlopeOnly: 0
OS2_UseTypoMetrics: 0
CreationTime: 1280473793
ModificationTime: 1663016476
PfmFamily: 17
TTFWeight: 500
TTFWidth: 5
LineGap: 120
VLineGap: 0
Panose: 2 0 6 9 0 0 0 0 0 0
OS2TypoAscent: 960
OS2TypoAOffset: 0
OS2TypoDescent: -120
OS2TypoDOffset: 0
OS2TypoLinegap: 120
OS2WinAscent: 960
OS2WinAOffset: 0
OS2WinDescent: 240
OS2WinDOffset: 0
HheadAscent: 960
HheadAOffset: 0
HheadDescent: -120
HheadDOffset: 0
OS2SubXSize: 600
OS2SubYSize: 720
OS2SubXOff: 0
OS2SubYOff: 120
OS2SupXSize: 600
OS2SupYSize: 720
OS2SupXOff: 0
OS2SupYOff: 480
OS2StrikeYSize: 0
OS2StrikeYPos: 240
OS2CapHeight: 840
OS2XHeight: 600
OS2Vendor: '2ttf'
OS2CodePages: 40000001.00000000
OS2UnicodeRanges: 80000003.00014002.00000000.00000000
Lookup: 4 0 1 "'liga' Ligatury zwyk+AUIA-e w +AUIA-aci+AUQA-skie w tablicy 0" { "Podtablica 'liga' Ligatury zwyk+AUIA-e w +AUIA-aci+AUQA-skie w tablicy 0"  } ['liga' ('DFLT' <'dflt' > 'latn' <'dflt' > ) ]
MarkAttachClasses: 1
DEI: 91125
LangName: 1033 "" "" "" "FontForge : Monocraft : 7-9-2022" "" "Version 001.200"
Encoding: UnicodeBmp
UnicodeInterp: none
NameList: AGL For New Fonts
DisplaySize: -48
AntiAlias: 1
FitToEm: 0
WinInfo: 168 28 13
BeginPrivate: 7
BlueValues 21 [0 0 600 600 840 840]
OtherBlues 11 [-120 -120]
BlueShift 1 0
StdHW 5 [120]
StdVW 5 [120]
StemSnapH 7 [1 120]
StemSnapV 13 [120 240 360]
EndPrivate
BeginChars: 65546 219

StartChar: .notdef
Encoding: 65536 -1 0
Width: 720
GlyphClass: 1
Flags: W
LayerCount: 2
Fore
SplineSet
66 0 m 1
 66 1278 l 1
 576 1278 l 1
 576 0 l 1
 66 0 l 1
126 66 m 1
 510 66 l 1
 510 1218 l 1
 126 1218 l 1
 126 66 l 1
EndSplineSet
EndChar

StartChar: exclam
Encoding: 33 33 2
Width: 720
GlyphClass: 2
Flags: W
LayerCount: 2
Fore
SplineSet
240 0 m 1
 240 120 l 1
 360 120 l 1
 360 0 l 1
 240 0 l 1
240 240 m 1
 240 360 l 1
 240 480 l 1
 240 600 l 1
 240 720 l 1
 240 840 l 1
 360 840 l 1
 360 720 l 1
 360 600 l 1
 360 480 l 1
 360 360 l 1
 360 240 l 1
 240 240 l 1
EndSplineSet
EndChar

StartChar: quotedbl
Encoding: 34 34 3
Width: 720
GlyphClass: 2
Flags: W
LayerCount: 2
Fore
SplineSet
360 600 m 1
 360 720 l 1
 360 840 l 1
 480 840 l 1
 480 720 l 1
 480 600 l 1
 360 600 l 1
120 600 m 1
 120 720 l 1
 120 840 l 1
 240 840 l 1
 240 720 l 1
 240 600 l 1
 120 600 l 1
EndSplineSet
EndChar

StartChar: numbersign
Encoding: 35 35 4
Width: 720
GlyphClass: 2
Flags: W
LayerCount: 2
Fore
SplineSet
360 0 m 1
 360 120 l 1
 360 240 l 1
 240 240 l 1
 240 120 l 1
 240 0 l 1
 120 0 l 1
 120 120 l 1
 120 240 l 1
 0 240 l 1
 0 360 l 1
 120 360 l 1
 120 480 l 1
 0 480 l 1
 0 600 l 1
 120 600 l 1
 120 720 l 1
 120 840 l 1
 240 840 l 1
 240 720 l 1
 240 600 l 1
 360 600 l 1
 360 720 l 1
 360 840 l 1
 480 840 l 1
 480 720 l 1
 480 600 l 1
 600 600 l 1
 600 480 l 1
 480 480 l 1
 480 360 l 1
 600 360 l 1
 600 240 l 1
 480 240 l 1
 480 120 l 1
 480 0 l 1
 360 0 l 1
360 360 m 1
 360 480 l 1
 240 480 l 1
 240 360 l 1
 360 360 l 1
EndSplineSet
EndChar

StartChar: dollar
Encoding: 36 36 5
Width: 720
GlyphClass: 2
Flags: W
LayerCount: 2
Fore
SplineSet
240 0 m 1
 240 120 l 1
 120 120 l 1
 0 120 l 1
 0 240 l 1
 120 240 l 1
 240 240 l 1
 360 240 l 1
 480 240 l 1
 480 120 l 1
 360 120 l 1
 360 0 l 1
 240 0 l 1
480 240 m 1
 480 360 l 1
 600 360 l 1
 600 240 l 1
 480 240 l 1
480 360 m 1
 360 360 l 1
 240 360 l 1
 120 360 l 1
 120 480 l 1
 240 480 l 1
 360 480 l 1
 480 480 l 1
 480 360 l 1
120 480 m 1
 0 480 l 1
 0 600 l 1
 120 600 l 1
 120 480 l 1
480 720 m 1
 600 720 l 1
 600 600 l 1
 480 600 l 1
 360 600 l 1
 240 600 l 1
 120 600 l 1
 120 720 l 1
 240 720 l 1
 240 840 l 1
 360 840 l 1
 360 720 l 1
 480 720 l 1
EndSplineSet
EndChar

StartChar: percent
Encoding: 37 37 6
Width: 720
GlyphClass: 2
Flags: W
LayerCount: 2
Fore
SplineSet
480 0 m 1
 480 120 l 1
 480 240 l 1
 600 240 l 1
 600 120 l 1
 600 0 l 1
 480 0 l 1
0 0 m 1
 0 120 l 1
 120 120 l 1
 120 0 l 1
 0 0 l 1
0 600 m 1
 0 720 l 1
 0 840 l 1
 120 840 l 1
 120 720 l 1
 120 600 l 1
 0 600 l 1
120 120 m 1
 120 240 l 1
 120 360 l 1
 240 360 l 1
 240 240 l 1
 240 120 l 1
 120 120 l 1
240 360 m 1
 240 480 l 1
 360 480 l 1
 360 360 l 1
 240 360 l 1
360 480 m 1
 360 600 l 1
 360 720 l 1
 480 720 l 1
 480 600 l 1
 480 480 l 1
 360 480 l 1
480 720 m 1
 480 840 l 1
 600 840 l 1
 600 720 l 1
 480 720 l 1
EndSplineSet
EndChar

StartChar: ampersand
Encoding: 38 38 7
Width: 720
GlyphClass: 2
Flags: W
LayerCount: 2
Fore
SplineSet
480 0 m 1
 480 120 l 1
 600 120 l 1
 600 0 l 1
 480 0 l 1
240 120 m 1
 360 120 l 1
 360 0 l 1
 240 0 l 1
 120 0 l 1
 120 120 l 1
 240 120 l 1
480 120 m 1
 360 120 l 1
 360 240 l 1
 240 240 l 1
 240 360 l 1
 120 360 l 1
 120 240 l 1
 120 120 l 1
 0 120 l 1
 0 240 l 1
 0 360 l 1
 120 360 l 1
 120 480 l 1
 240 480 l 1
 240 600 l 1
 360 600 l 1
 360 480 l 1
 360 360 l 1
 480 360 l 1
 480 240 l 1
 480 120 l 1
480 360 m 1
 480 480 l 1
 600 480 l 1
 600 360 l 1
 480 360 l 1
360 600 m 1
 360 720 l 1
 480 720 l 1
 480 600 l 1
 360 600 l 1
240 600 m 1
 120 600 l 1
 120 720 l 1
 240 720 l 1
 240 600 l 1
360 720 m 1
 240 720 l 1
 240 840 l 1
 360 840 l 1
 360 720 l 1
EndSplineSet
EndChar

StartChar: quotesingle
Encoding: 39 39 8
Width: 720
GlyphClass: 2
Flags: W
LayerCount: 2
Fore
SplineSet
120 600 m 1
 120 720 l 1
 120 840 l 1
 240 840 l 1
 240 720 l 1
 240 600 l 1
 120 600 l 1
EndSplineSet
EndChar

StartChar: parenleft
Encoding: 40 40 9
Width: 720
GlyphClass: 2
Flags: W
LayerCount: 2
Fore
SplineSet
360 0 m 1
 360 120 l 1
 480 120 l 1
 480 0 l 1
 360 0 l 1
360 120 m 1
 240 120 l 1
 240 240 l 1
 360 240 l 1
 360 120 l 1
240 240 m 1
 120 240 l 1
 120 360 l 1
 120 480 l 1
 120 600 l 1
 240 600 l 1
 240 480 l 1
 240 360 l 1
 240 240 l 1
240 600 m 1
 240 720 l 1
 360 720 l 1
 360 600 l 1
 240 600 l 1
360 720 m 1
 360 840 l 1
 480 840 l 1
 480 720 l 1
 360 720 l 1
EndSplineSet
EndChar

StartChar: parenright
Encoding: 41 41 10
Width: 720
GlyphClass: 2
Flags: W
LayerCount: 2
Fore
SplineSet
120 0 m 1
 120 120 l 1
 240 120 l 1
 240 0 l 1
 120 0 l 1
240 120 m 1
 240 240 l 1
 360 240 l 1
 360 120 l 1
 240 120 l 1
360 240 m 1
 360 360 l 1
 360 480 l 1
 360 600 l 1
 480 600 l 1
 480 480 l 1
 480 360 l 1
 480 240 l 1
 360 240 l 1
360 600 m 1
 240 600 l 1
 240 720 l 1
 360 720 l 1
 360 600 l 1
240 720 m 1
 120 720 l 1
 120 840 l 1
 240 840 l 1
 240 720 l 1
EndSplineSet
EndChar

StartChar: asterisk
Encoding: 42 42 11
Width: 720
GlyphClass: 2
Flags: W
LayerCount: 2
Fore
SplineSet
360 480 m 1
 360 600 l 1
 480 600 l 1
 480 480 l 1
 360 480 l 1
120 480 m 1
 120 600 l 1
 240 600 l 1
 240 480 l 1
 120 480 l 1
360 600 m 1
 240 600 l 1
 240 720 l 1
 360 720 l 1
 360 600 l 1
360 720 m 1
 360 840 l 1
 480 840 l 1
 480 720 l 1
 360 720 l 1
240 720 m 1
 120 720 l 1
 120 840 l 1
 240 840 l 1
 240 720 l 1
EndSplineSet
EndChar

StartChar: plus
Encoding: 43 43 12
Width: 720
GlyphClass: 2
Flags: W
LayerCount: 2
Fore
SplineSet
240 120 m 1
 240 240 l 1
 240 360 l 1
 120 360 l 1
 0 360 l 1
 0 480 l 1
 120 480 l 1
 240 480 l 1
 240 600 l 1
 240 720 l 1
 360 720 l 1
 360 600 l 1
 360 480 l 1
 480 480 l 1
 600 480 l 1
 600 360 l 1
 480 360 l 1
 360 360 l 1
 360 240 l 1
 360 120 l 1
 240 120 l 1
EndSplineSet
EndChar

StartChar: comma
Encoding: 44 44 13
Width: 720
GlyphClass: 2
Flags: W
LayerCount: 2
Fore
SplineSet
120 -120 m 1
 120 0 l 1
 240 0 l 1
 240 -120 l 1
 120 -120 l 1
240 0 m 1
 240 120 l 1
 360 120 l 1
 360 0 l 1
 240 0 l 1
EndSplineSet
EndChar

StartChar: hyphen
Encoding: 45 45 14
Width: 720
GlyphClass: 2
Flags: W
LayerCount: 2
Fore
SplineSet
480 480 m 1
 600 480 l 1
 600 360 l 1
 480 360 l 1
 360 360 l 1
 240 360 l 1
 120 360 l 1
 0 360 l 1
 0 480 l 1
 120 480 l 1
 240 480 l 1
 360 480 l 1
 480 480 l 1
EndSplineSet
EndChar

StartChar: period
Encoding: 46 46 15
Width: 720
GlyphClass: 2
Flags: W
LayerCount: 2
Fore
SplineSet
240 0 m 1
 240 120 l 1
 360 120 l 1
 360 0 l 1
 240 0 l 1
EndSplineSet
EndChar

StartChar: slash
Encoding: 47 47 16
Width: 720
GlyphClass: 2
Flags: W
LayerCount: 2
Fore
SplineSet
0 0 m 1
 0 120 l 1
 120 120 l 1
 120 0 l 1
 0 0 l 1
120 120 m 1
 120 240 l 1
 120 360 l 1
 240 360 l 1
 240 240 l 1
 240 120 l 1
 120 120 l 1
240 360 m 1
 240 480 l 1
 360 480 l 1
 360 360 l 1
 240 360 l 1
360 480 m 1
 360 600 l 1
 360 720 l 1
 480 720 l 1
 480 600 l 1
 480 480 l 1
 360 480 l 1
480 720 m 1
 480 840 l 1
 600 840 l 1
 600 720 l 1
 480 720 l 1
EndSplineSet
EndChar

StartChar: zero
Encoding: 48 48 17
Width: 720
GlyphClass: 2
Flags: W
LayerCount: 2
Fore
SplineSet
360 120 m 1
 480 120 l 1
 480 0 l 1
 360 0 l 1
 240 0 l 1
 120 0 l 1
 120 120 l 1
 240 120 l 1
 360 120 l 1
480 120 m 1
 480 240 l 1
 480 360 l 1
 480 480 l 1
 360 480 l 1
 360 360 l 1
 240 360 l 1
 240 240 l 1
 120 240 l 1
 120 120 l 1
 0 120 l 1
 0 240 l 1
 0 360 l 1
 0 480 l 1
 0 600 l 1
 0 720 l 1
 120 720 l 1
 120 600 l 1
 120 480 l 1
 120 360 l 1
 240 360 l 1
 240 480 l 1
 360 480 l 1
 360 600 l 1
 480 600 l 1
 480 720 l 1
 600 720 l 1
 600 600 l 1
 600 480 l 1
 600 360 l 1
 600 240 l 1
 600 120 l 1
 480 120 l 1
480 720 m 1
 360 720 l 1
 240 720 l 1
 120 720 l 1
 120 840 l 1
 240 840 l 1
 360 840 l 1
 480 840 l 1
 480 720 l 1
EndSplineSet
EndChar

StartChar: one
Encoding: 49 49 18
Width: 720
GlyphClass: 2
Flags: W
LayerCount: 2
Fore
SplineSet
480 120 m 1
 600 120 l 1
 600 0 l 1
 480 0 l 1
 360 0 l 1
 240 0 l 1
 120 0 l 1
 0 0 l 1
 0 120 l 1
 120 120 l 1
 240 120 l 1
 240 240 l 1
 240 360 l 1
 240 480 l 1
 240 600 l 1
 120 600 l 1
 120 720 l 1
 240 720 l 1
 240 840 l 1
 360 840 l 1
 360 720 l 1
 360 600 l 1
 360 480 l 1
 360 360 l 1
 360 240 l 1
 360 120 l 1
 480 120 l 1
EndSplineSet
EndChar

StartChar: two
Encoding: 50 50 19
Width: 720
GlyphClass: 2
Flags: W
LayerCount: 2
Fore
SplineSet
0 600 m 1
 0 720 l 1
 120 720 l 1
 120 600 l 1
 0 600 l 1
480 0 m 1
 360 0 l 1
 240 0 l 1
 120 0 l 1
 0 0 l 1
 0 120 l 1
 0 240 l 1
 120 240 l 1
 120 120 l 1
 240 120 l 1
 360 120 l 1
 480 120 l 1
 480 240 l 1
 600 240 l 1
 600 120 l 1
 600 0 l 1
 480 0 l 1
120 240 m 1
 120 360 l 1
 240 360 l 1
 240 240 l 1
 120 240 l 1
360 480 m 1
 480 480 l 1
 480 360 l 1
 360 360 l 1
 240 360 l 1
 240 480 l 1
 360 480 l 1
480 480 m 1
 480 600 l 1
 480 720 l 1
 600 720 l 1
 600 600 l 1
 600 480 l 1
 480 480 l 1
480 720 m 1
 360 720 l 1
 240 720 l 1
 120 720 l 1
 120 840 l 1
 240 840 l 1
 360 840 l 1
 480 840 l 1
 480 720 l 1
EndSplineSet
EndChar

StartChar: three
Encoding: 51 51 20
Width: 720
GlyphClass: 2
Flags: W
LayerCount: 2
Fore
SplineSet
0 600 m 1
 0 720 l 1
 120 720 l 1
 120 600 l 1
 0 600 l 1
360 120 m 1
 480 120 l 1
 480 0 l 1
 360 0 l 1
 240 0 l 1
 120 0 l 1
 120 120 l 1
 240 120 l 1
 360 120 l 1
480 120 m 1
 480 240 l 1
 480 360 l 1
 600 360 l 1
 600 240 l 1
 600 120 l 1
 480 120 l 1
120 120 m 1
 0 120 l 1
 0 240 l 1
 120 240 l 1
 120 120 l 1
480 360 m 1
 360 360 l 1
 240 360 l 1
 240 480 l 1
 360 480 l 1
 480 480 l 1
 480 360 l 1
480 480 m 1
 480 600 l 1
 480 720 l 1
 600 720 l 1
 600 600 l 1
 600 480 l 1
 480 480 l 1
480 720 m 1
 360 720 l 1
 240 720 l 1
 120 720 l 1
 120 840 l 1
 240 840 l 1
 360 840 l 1
 480 840 l 1
 480 720 l 1
EndSplineSet
EndChar

StartChar: four
Encoding: 52 52 21
Width: 720
GlyphClass: 2
Flags: W
LayerCount: 2
Fore
SplineSet
480 0 m 1
 480 120 l 1
 480 240 l 1
 360 240 l 1
 240 240 l 1
 120 240 l 1
 0 240 l 1
 0 360 l 1
 0 480 l 1
 120 480 l 1
 120 600 l 1
 240 600 l 1
 240 720 l 1
 360 720 l 1
 360 840 l 1
 480 840 l 1
 600 840 l 1
 600 720 l 1
 600 600 l 1
 600 480 l 1
 600 360 l 1
 600 240 l 1
 600 120 l 1
 600 0 l 1
 480 0 l 1
360 360 m 1
 480 360 l 1
 480 480 l 1
 480 600 l 1
 480 720 l 1
 360 720 l 1
 360 600 l 1
 240 600 l 1
 240 480 l 1
 120 480 l 1
 120 360 l 1
 240 360 l 1
 360 360 l 1
EndSplineSet
EndChar

StartChar: five
Encoding: 53 53 22
Width: 720
GlyphClass: 2
Flags: W
LayerCount: 2
Fore
SplineSet
360 120 m 1
 480 120 l 1
 480 0 l 1
 360 0 l 1
 240 0 l 1
 120 0 l 1
 120 120 l 1
 240 120 l 1
 360 120 l 1
480 120 m 1
 480 240 l 1
 480 360 l 1
 480 480 l 1
 600 480 l 1
 600 360 l 1
 600 240 l 1
 600 120 l 1
 480 120 l 1
120 120 m 1
 0 120 l 1
 0 240 l 1
 120 240 l 1
 120 120 l 1
480 480 m 1
 360 480 l 1
 240 480 l 1
 120 480 l 1
 0 480 l 1
 0 600 l 1
 0 720 l 1
 0 840 l 1
 120 840 l 1
 240 840 l 1
 360 840 l 1
 480 840 l 1
 600 840 l 1
 600 720 l 1
 480 720 l 1
 360 720 l 1
 240 720 l 1
 120 720 l 1
 120 600 l 1
 240 600 l 1
 360 600 l 1
 480 600 l 1
 480 480 l 1
EndSplineSet
EndChar

StartChar: six
Encoding: 54 54 23
Width: 720
GlyphClass: 2
Flags: W
LayerCount: 2
Fore
SplineSet
360 120 m 1
 480 120 l 1
 480 0 l 1
 360 0 l 1
 240 0 l 1
 120 0 l 1
 120 120 l 1
 240 120 l 1
 360 120 l 1
480 120 m 1
 480 240 l 1
 480 360 l 1
 600 360 l 1
 600 240 l 1
 600 120 l 1
 480 120 l 1
120 120 m 1
 0 120 l 1
 0 240 l 1
 0 360 l 1
 0 480 l 1
 0 600 l 1
 120 600 l 1
 120 480 l 1
 240 480 l 1
 360 480 l 1
 480 480 l 1
 480 360 l 1
 360 360 l 1
 240 360 l 1
 120 360 l 1
 120 240 l 1
 120 120 l 1
120 600 m 1
 120 720 l 1
 240 720 l 1
 240 600 l 1
 120 600 l 1
360 840 m 1
 480 840 l 1
 480 720 l 1
 360 720 l 1
 240 720 l 1
 240 840 l 1
 360 840 l 1
EndSplineSet
EndChar

StartChar: seven
Encoding: 55 55 24
Width: 720
GlyphClass: 2
Flags: W
LayerCount: 2
Fore
SplineSet
240 0 m 1
 240 120 l 1
 240 240 l 1
 240 360 l 1
 360 360 l 1
 360 240 l 1
 360 120 l 1
 360 0 l 1
 240 0 l 1
0 600 m 1
 0 720 l 1
 0 840 l 1
 120 840 l 1
 240 840 l 1
 360 840 l 1
 480 840 l 1
 600 840 l 1
 600 720 l 1
 600 600 l 1
 600 480 l 1
 480 480 l 1
 480 360 l 1
 360 360 l 1
 360 480 l 1
 480 480 l 1
 480 600 l 1
 480 720 l 1
 360 720 l 1
 240 720 l 1
 120 720 l 1
 120 600 l 1
 0 600 l 1
EndSplineSet
EndChar

StartChar: eight
Encoding: 56 56 25
Width: 720
GlyphClass: 2
Flags: W
LayerCount: 2
Fore
SplineSet
360 120 m 1
 480 120 l 1
 480 0 l 1
 360 0 l 1
 240 0 l 1
 120 0 l 1
 120 120 l 1
 240 120 l 1
 360 120 l 1
480 120 m 1
 480 240 l 1
 480 360 l 1
 600 360 l 1
 600 240 l 1
 600 120 l 1
 480 120 l 1
120 120 m 1
 0 120 l 1
 0 240 l 1
 0 360 l 1
 120 360 l 1
 120 240 l 1
 120 120 l 1
480 360 m 1
 360 360 l 1
 240 360 l 1
 120 360 l 1
 120 480 l 1
 240 480 l 1
 360 480 l 1
 480 480 l 1
 480 360 l 1
480 480 m 1
 480 600 l 1
 480 720 l 1
 600 720 l 1
 600 600 l 1
 600 480 l 1
 480 480 l 1
120 480 m 1
 0 480 l 1
 0 600 l 1
 0 720 l 1
 120 720 l 1
 120 600 l 1
 120 480 l 1
480 720 m 1
 360 720 l 1
 240 720 l 1
 120 720 l 1
 120 840 l 1
 240 840 l 1
 360 840 l 1
 480 840 l 1
 480 720 l 1
EndSplineSet
EndChar

StartChar: nine
Encoding: 57 57 26
Width: 720
GlyphClass: 2
Flags: W
LayerCount: 2
Fore
SplineSet
240 120 m 1
 360 120 l 1
 360 0 l 1
 240 0 l 1
 120 0 l 1
 120 120 l 1
 240 120 l 1
360 120 m 1
 360 240 l 1
 480 240 l 1
 480 120 l 1
 360 120 l 1
480 240 m 1
 480 360 l 1
 360 360 l 1
 240 360 l 1
 120 360 l 1
 120 480 l 1
 240 480 l 1
 360 480 l 1
 480 480 l 1
 480 600 l 1
 480 720 l 1
 600 720 l 1
 600 600 l 1
 600 480 l 1
 600 360 l 1
 600 240 l 1
 480 240 l 1
120 480 m 1
 0 480 l 1
 0 600 l 1
 0 720 l 1
 120 720 l 1
 120 600 l 1
 120 480 l 1
480 720 m 1
 360 720 l 1
 240 720 l 1
 120 720 l 1
 120 840 l 1
 240 840 l 1
 360 840 l 1
 480 840 l 1
 480 720 l 1
EndSplineSet
EndChar

StartChar: colon
Encoding: 58 58 27
Width: 720
GlyphClass: 2
Flags: W
LayerCount: 2
Fore
SplineSet
240 0 m 1
 240 120 l 1
 360 120 l 1
 360 0 l 1
 240 0 l 1
240 480 m 1
 240 600 l 1
 360 600 l 1
 360 480 l 1
 240 480 l 1
EndSplineSet
EndChar

StartChar: semicolon
Encoding: 59 59 28
Width: 720
GlyphClass: 2
Flags: W
LayerCount: 2
Fore
SplineSet
0 -120 m 1
 0 0 l 1
 120 0 l 1
 120 -120 l 1
 0 -120 l 1
120 480 m 1
 120 600 l 1
 240 600 l 1
 240 480 l 1
 120 480 l 1
120 0 m 1
 120 120 l 1
 240 120 l 1
 240 0 l 1
 120 0 l 1
EndSplineSet
EndChar

StartChar: less
Encoding: 60 60 29
Width: 720
GlyphClass: 2
Flags: W
LayerCount: 2
Fore
SplineSet
360 0 m 1
 360 120 l 1
 480 120 l 1
 480 0 l 1
 360 0 l 1
360 120 m 1
 240 120 l 1
 240 240 l 1
 360 240 l 1
 360 120 l 1
240 240 m 1
 120 240 l 1
 120 360 l 1
 240 360 l 1
 240 240 l 1
120 360 m 1
 0 360 l 1
 0 480 l 1
 120 480 l 1
 120 360 l 1
120 480 m 1
 120 600 l 1
 240 600 l 1
 240 480 l 1
 120 480 l 1
240 600 m 1
 240 720 l 1
 360 720 l 1
 360 600 l 1
 240 600 l 1
360 720 m 1
 360 840 l 1
 480 840 l 1
 480 720 l 1
 360 720 l 1
EndSplineSet
EndChar

StartChar: equal
Encoding: 61 61 30
Width: 720
GlyphClass: 2
Flags: W
LayerCount: 2
Fore
SplineSet
480 240 m 1
 600 240 l 1
 600 120 l 1
 480 120 l 1
 360 120 l 1
 240 120 l 1
 120 120 l 1
 0 120 l 1
 0 240 l 1
 120 240 l 1
 240 240 l 1
 360 240 l 1
 480 240 l 1
480 600 m 1
 600 600 l 1
 600 480 l 1
 480 480 l 1
 360 480 l 1
 240 480 l 1
 120 480 l 1
 0 480 l 1
 0 600 l 1
 120 600 l 1
 240 600 l 1
 360 600 l 1
 480 600 l 1
EndSplineSet
EndChar

StartChar: greater
Encoding: 62 62 31
Width: 720
GlyphClass: 2
Flags: W
LayerCount: 2
Fore
SplineSet
120 0 m 1
 120 120 l 1
 240 120 l 1
 240 0 l 1
 120 0 l 1
240 120 m 1
 240 240 l 1
 360 240 l 1
 360 120 l 1
 240 120 l 1
360 240 m 1
 360 360 l 1
 480 360 l 1
 480 240 l 1
 360 240 l 1
480 360 m 1
 480 480 l 1
 600 480 l 1
 600 360 l 1
 480 360 l 1
480 480 m 1
 360 480 l 1
 360 600 l 1
 480 600 l 1
 480 480 l 1
360 600 m 1
 240 600 l 1
 240 720 l 1
 360 720 l 1
 360 600 l 1
240 720 m 1
 120 720 l 1
 120 840 l 1
 240 840 l 1
 240 720 l 1
EndSplineSet
EndChar

StartChar: question
Encoding: 63 63 32
Width: 720
GlyphClass: 2
Flags: W
LayerCount: 2
Fore
SplineSet
240 0 m 1
 240 120 l 1
 360 120 l 1
 360 0 l 1
 240 0 l 1
240 240 m 1
 240 360 l 1
 360 360 l 1
 360 240 l 1
 240 240 l 1
0 600 m 1
 0 720 l 1
 120 720 l 1
 120 600 l 1
 0 600 l 1
360 360 m 1
 360 480 l 1
 480 480 l 1
 480 360 l 1
 360 360 l 1
480 480 m 1
 480 600 l 1
 480 720 l 1
 600 720 l 1
 600 600 l 1
 600 480 l 1
 480 480 l 1
480 720 m 1
 360 720 l 1
 240 720 l 1
 120 720 l 1
 120 840 l 1
 240 840 l 1
 360 840 l 1
 480 840 l 1
 480 720 l 1
EndSplineSet
EndChar

StartChar: at
Encoding: 64 64 33
Width: 720
GlyphClass: 2
Flags: W
LayerCount: 2
Fore
SplineSet
480 0 m 1
 600 0 l 1
 600 -120 l 1
 480 -120 l 1
 360 -120 l 1
 240 -120 l 1
 120 -120 l 1
 120 0 l 1
 240 0 l 1
 360 0 l 1
 480 0 l 1
120 0 m 1
 0 0 l 1
 0 120 l 1
 0 240 l 1
 0 360 l 1
 0 480 l 1
 0 600 l 1
 120 600 l 1
 120 480 l 1
 120 360 l 1
 120 240 l 1
 120 120 l 1
 120 0 l 1
480 120 m 1
 360 120 l 1
 240 120 l 1
 240 240 l 1
 240 360 l 1
 240 480 l 1
 360 480 l 1
 360 360 l 1
 360 240 l 1
 480 240 l 1
 480 360 l 1
 480 480 l 1
 480 600 l 1
 600 600 l 1
 600 480 l 1
 600 360 l 1
 600 240 l 1
 600 120 l 1
 480 120 l 1
480 600 m 1
 360 600 l 1
 240 600 l 1
 120 600 l 1
 120 720 l 1
 240 720 l 1
 360 720 l 1
 480 720 l 1
 480 600 l 1
EndSplineSet
EndChar

StartChar: A
Encoding: 65 65 34
Width: 720
GlyphClass: 2
Flags: W
LayerCount: 2
Fore
SplineSet
480 0 m 1
 480 120 l 1
 480 240 l 1
 480 360 l 1
 480 480 l 1
 360 480 l 1
 240 480 l 1
 120 480 l 1
 120 360 l 1
 120 240 l 1
 120 120 l 1
 120 0 l 1
 0 0 l 1
 0 120 l 1
 0 240 l 1
 0 360 l 1
 0 480 l 1
 0 600 l 1
 0 720 l 1
 120 720 l 1
 120 600 l 1
 240 600 l 1
 360 600 l 1
 480 600 l 1
 480 720 l 1
 600 720 l 1
 600 600 l 1
 600 480 l 1
 600 360 l 1
 600 240 l 1
 600 120 l 1
 600 0 l 1
 480 0 l 1
480 720 m 1
 360 720 l 1
 240 720 l 1
 120 720 l 1
 120 840 l 1
 240 840 l 1
 360 840 l 1
 480 840 l 1
 480 720 l 1
EndSplineSet
EndChar

StartChar: B
Encoding: 66 66 35
Width: 720
GlyphClass: 2
Flags: W
LayerCount: 2
Fore
SplineSet
360 120 m 1
 480 120 l 1
 480 240 l 1
 480 360 l 1
 480 480 l 1
 360 480 l 1
 240 480 l 1
 120 480 l 1
 120 360 l 1
 120 240 l 1
 120 120 l 1
 240 120 l 1
 360 120 l 1
360 0 m 1
 240 0 l 1
 120 0 l 1
 0 0 l 1
 0 120 l 1
 0 240 l 1
 0 360 l 1
 0 480 l 1
 0 600 l 1
 0 720 l 1
 0 840 l 1
 120 840 l 1
 240 840 l 1
 360 840 l 1
 480 840 l 1
 480 720 l 1
 600 720 l 1
 600 600 l 1
 480 600 l 1
 480 720 l 1
 360 720 l 1
 240 720 l 1
 120 720 l 1
 120 600 l 1
 240 600 l 1
 360 600 l 1
 480 600 l 1
 480 480 l 1
 600 480 l 1
 600 360 l 1
 600 240 l 1
 600 120 l 1
 480 120 l 1
 480 0 l 1
 360 0 l 1
EndSplineSet
EndChar

StartChar: C
Encoding: 67 67 36
Width: 720
GlyphClass: 2
Flags: W
LayerCount: 2
Fore
SplineSet
480 600 m 1
 480 720 l 1
 600 720 l 1
 600 600 l 1
 480 600 l 1
360 120 m 1
 480 120 l 1
 480 0 l 1
 360 0 l 1
 240 0 l 1
 120 0 l 1
 120 120 l 1
 240 120 l 1
 360 120 l 1
480 120 m 1
 480 240 l 1
 600 240 l 1
 600 120 l 1
 480 120 l 1
120 120 m 1
 0 120 l 1
 0 240 l 1
 0 360 l 1
 0 480 l 1
 0 600 l 1
 0 720 l 1
 120 720 l 1
 120 600 l 1
 120 480 l 1
 120 360 l 1
 120 240 l 1
 120 120 l 1
480 720 m 1
 360 720 l 1
 240 720 l 1
 120 720 l 1
 120 840 l 1
 240 840 l 1
 360 840 l 1
 480 840 l 1
 480 720 l 1
EndSplineSet
EndChar

StartChar: D
Encoding: 68 68 37
Width: 720
GlyphClass: 2
Flags: W
LayerCount: 2
Fore
SplineSet
360 120 m 1
 480 120 l 1
 480 240 l 1
 480 360 l 1
 480 480 l 1
 480 600 l 1
 480 720 l 1
 360 720 l 1
 240 720 l 1
 120 720 l 1
 120 600 l 1
 120 480 l 1
 120 360 l 1
 120 240 l 1
 120 120 l 1
 240 120 l 1
 360 120 l 1
360 0 m 1
 240 0 l 1
 120 0 l 1
 0 0 l 1
 0 120 l 1
 0 240 l 1
 0 360 l 1
 0 480 l 1
 0 600 l 1
 0 720 l 1
 0 840 l 1
 120 840 l 1
 240 840 l 1
 360 840 l 1
 480 840 l 1
 480 720 l 1
 600 720 l 1
 600 600 l 1
 600 480 l 1
 600 360 l 1
 600 240 l 1
 600 120 l 1
 480 120 l 1
 480 0 l 1
 360 0 l 1
EndSplineSet
EndChar

StartChar: E
Encoding: 69 69 38
Width: 720
GlyphClass: 2
Flags: W
LayerCount: 2
Fore
SplineSet
480 120 m 1
 600 120 l 1
 600 0 l 1
 480 0 l 1
 360 0 l 1
 240 0 l 1
 120 0 l 1
 0 0 l 1
 0 120 l 1
 0 240 l 1
 0 360 l 1
 0 480 l 1
 0 600 l 1
 0 720 l 1
 0 840 l 1
 120 840 l 1
 240 840 l 1
 360 840 l 1
 480 840 l 1
 600 840 l 1
 600 720 l 1
 480 720 l 1
 360 720 l 1
 240 720 l 1
 120 720 l 1
 120 600 l 1
 240 600 l 1
 360 600 l 1
 360 480 l 1
 240 480 l 1
 120 480 l 1
 120 360 l 1
 120 240 l 1
 120 120 l 1
 240 120 l 1
 360 120 l 1
 480 120 l 1
EndSplineSet
EndChar

StartChar: F
Encoding: 70 70 39
Width: 720
GlyphClass: 2
Flags: W
LayerCount: 2
Fore
SplineSet
0 0 m 1
 0 120 l 1
 0 240 l 1
 0 360 l 1
 0 480 l 1
 0 600 l 1
 0 720 l 1
 0 840 l 1
 120 840 l 1
 240 840 l 1
 360 840 l 1
 480 840 l 1
 600 840 l 1
 600 720 l 1
 480 720 l 1
 360 720 l 1
 240 720 l 1
 120 720 l 1
 120 600 l 1
 240 600 l 1
 360 600 l 1
 360 480 l 1
 240 480 l 1
 120 480 l 1
 120 360 l 1
 120 240 l 1
 120 120 l 1
 120 0 l 1
 0 0 l 1
EndSplineSet
EndChar

StartChar: G
Encoding: 71 71 40
Width: 720
GlyphClass: 2
Flags: W
LayerCount: 2
Fore
SplineSet
360 120 m 1
 480 120 l 1
 480 0 l 1
 360 0 l 1
 240 0 l 1
 120 0 l 1
 120 120 l 1
 240 120 l 1
 360 120 l 1
480 120 m 1
 480 240 l 1
 480 360 l 1
 480 480 l 1
 360 480 l 1
 360 600 l 1
 480 600 l 1
 600 600 l 1
 600 480 l 1
 600 360 l 1
 600 240 l 1
 600 120 l 1
 480 120 l 1
120 120 m 1
 0 120 l 1
 0 240 l 1
 0 360 l 1
 0 480 l 1
 0 600 l 1
 0 720 l 1
 120 720 l 1
 120 600 l 1
 120 480 l 1
 120 360 l 1
 120 240 l 1
 120 120 l 1
480 840 m 1
 600 840 l 1
 600 720 l 1
 480 720 l 1
 360 720 l 1
 240 720 l 1
 120 720 l 1
 120 840 l 1
 240 840 l 1
 360 840 l 1
 480 840 l 1
EndSplineSet
EndChar

StartChar: H
Encoding: 72 72 41
Width: 720
GlyphClass: 2
Flags: W
LayerCount: 2
Fore
SplineSet
480 0 m 1
 480 120 l 1
 480 240 l 1
 480 360 l 1
 480 480 l 1
 360 480 l 1
 240 480 l 1
 120 480 l 1
 120 360 l 1
 120 240 l 1
 120 120 l 1
 120 0 l 1
 0 0 l 1
 0 120 l 1
 0 240 l 1
 0 360 l 1
 0 480 l 1
 0 600 l 1
 0 720 l 1
 0 840 l 1
 120 840 l 1
 120 720 l 1
 120 600 l 1
 240 600 l 1
 360 600 l 1
 480 600 l 1
 480 720 l 1
 480 840 l 1
 600 840 l 1
 600 720 l 1
 600 600 l 1
 600 480 l 1
 600 360 l 1
 600 240 l 1
 600 120 l 1
 600 0 l 1
 480 0 l 1
EndSplineSet
EndChar

StartChar: I
Encoding: 73 73 42
Width: 720
GlyphClass: 2
Flags: W
LayerCount: 2
Fore
SplineSet
360 0 m 1
 240 0 l 1
 120 0 l 1
 120 120 l 1
 240 120 l 1
 240 240 l 1
 240 360 l 1
 240 480 l 1
 240 600 l 1
 240 720 l 1
 120 720 l 1
 120 840 l 1
 240 840 l 1
 360 840 l 1
 480 840 l 1
 480 720 l 1
 360 720 l 1
 360 600 l 1
 360 480 l 1
 360 360 l 1
 360 240 l 1
 360 120 l 1
 480 120 l 1
 480 0 l 1
 360 0 l 1
EndSplineSet
EndChar

StartChar: J
Encoding: 74 74 43
Width: 720
GlyphClass: 2
Flags: W
LayerCount: 2
Fore
SplineSet
360 120 m 1
 480 120 l 1
 480 0 l 1
 360 0 l 1
 240 0 l 1
 120 0 l 1
 120 120 l 1
 240 120 l 1
 360 120 l 1
480 120 m 1
 480 240 l 1
 480 360 l 1
 480 480 l 1
 480 600 l 1
 480 720 l 1
 480 840 l 1
 600 840 l 1
 600 720 l 1
 600 600 l 1
 600 480 l 1
 600 360 l 1
 600 240 l 1
 600 120 l 1
 480 120 l 1
120 120 m 1
 0 120 l 1
 0 240 l 1
 120 240 l 1
 120 120 l 1
EndSplineSet
EndChar

StartChar: K
Encoding: 75 75 44
Width: 720
GlyphClass: 2
Flags: W
LayerCount: 2
Fore
SplineSet
480 0 m 1
 480 120 l 1
 480 240 l 1
 480 360 l 1
 600 360 l 1
 600 240 l 1
 600 120 l 1
 600 0 l 1
 480 0 l 1
0 0 m 1
 0 120 l 1
 0 240 l 1
 0 360 l 1
 0 480 l 1
 0 600 l 1
 0 720 l 1
 0 840 l 1
 120 840 l 1
 120 720 l 1
 120 600 l 1
 240 600 l 1
 360 600 l 1
 360 480 l 1
 480 480 l 1
 480 360 l 1
 360 360 l 1
 360 480 l 1
 240 480 l 1
 120 480 l 1
 120 360 l 1
 120 240 l 1
 120 120 l 1
 120 0 l 1
 0 0 l 1
360 600 m 1
 360 720 l 1
 480 720 l 1
 480 600 l 1
 360 600 l 1
480 720 m 1
 480 840 l 1
 600 840 l 1
 600 720 l 1
 480 720 l 1
EndSplineSet
EndChar

StartChar: L
Encoding: 76 76 45
Width: 720
GlyphClass: 2
Flags: W
LayerCount: 2
Fore
SplineSet
480 120 m 1
 600 120 l 1
 600 0 l 1
 480 0 l 1
 360 0 l 1
 240 0 l 1
 120 0 l 1
 0 0 l 1
 0 120 l 1
 0 240 l 1
 0 360 l 1
 0 480 l 1
 0 600 l 1
 0 720 l 1
 0 840 l 1
 120 840 l 1
 120 720 l 1
 120 600 l 1
 120 480 l 1
 120 360 l 1
 120 240 l 1
 120 120 l 1
 240 120 l 1
 360 120 l 1
 480 120 l 1
EndSplineSet
EndChar

StartChar: M
Encoding: 77 77 46
Width: 720
GlyphClass: 2
Flags: W
LayerCount: 2
Fore
SplineSet
480 0 m 1
 480 120 l 1
 480 240 l 1
 480 360 l 1
 480 480 l 1
 480 600 l 1
 360 600 l 1
 360 480 l 1
 240 480 l 1
 240 600 l 1
 360 600 l 1
 360 720 l 1
 480 720 l 1
 480 840 l 1
 600 840 l 1
 600 720 l 1
 600 600 l 1
 600 480 l 1
 600 360 l 1
 600 240 l 1
 600 120 l 1
 600 0 l 1
 480 0 l 1
0 0 m 1
 0 120 l 1
 0 240 l 1
 0 360 l 1
 0 480 l 1
 0 600 l 1
 0 720 l 1
 0 840 l 1
 120 840 l 1
 120 720 l 1
 240 720 l 1
 240 600 l 1
 120 600 l 1
 120 480 l 1
 120 360 l 1
 120 240 l 1
 120 120 l 1
 120 0 l 1
 0 0 l 1
EndSplineSet
EndChar

StartChar: N
Encoding: 78 78 47
Width: 720
GlyphClass: 2
Flags: W
LayerCount: 2
Fore
SplineSet
480 0 m 1
 480 120 l 1
 480 240 l 1
 480 360 l 1
 360 360 l 1
 360 480 l 1
 480 480 l 1
 480 600 l 1
 480 720 l 1
 480 840 l 1
 600 840 l 1
 600 720 l 1
 600 600 l 1
 600 480 l 1
 600 360 l 1
 600 240 l 1
 600 120 l 1
 600 0 l 1
 480 0 l 1
0 0 m 1
 0 120 l 1
 0 240 l 1
 0 360 l 1
 0 480 l 1
 0 600 l 1
 0 720 l 1
 0 840 l 1
 120 840 l 1
 120 720 l 1
 240 720 l 1
 240 600 l 1
 360 600 l 1
 360 480 l 1
 240 480 l 1
 240 600 l 1
 120 600 l 1
 120 480 l 1
 120 360 l 1
 120 240 l 1
 120 120 l 1
 120 0 l 1
 0 0 l 1
EndSplineSet
EndChar

StartChar: O
Encoding: 79 79 48
Width: 720
GlyphClass: 2
Flags: W
LayerCount: 2
Fore
SplineSet
360 120 m 1
 480 120 l 1
 480 0 l 1
 360 0 l 1
 240 0 l 1
 120 0 l 1
 120 120 l 1
 240 120 l 1
 360 120 l 1
480 120 m 1
 480 240 l 1
 480 360 l 1
 480 480 l 1
 480 600 l 1
 480 720 l 1
 600 720 l 1
 600 600 l 1
 600 480 l 1
 600 360 l 1
 600 240 l 1
 600 120 l 1
 480 120 l 1
120 120 m 1
 0 120 l 1
 0 240 l 1
 0 360 l 1
 0 480 l 1
 0 600 l 1
 0 720 l 1
 120 720 l 1
 120 600 l 1
 120 480 l 1
 120 360 l 1
 120 240 l 1
 120 120 l 1
480 720 m 1
 360 720 l 1
 240 720 l 1
 120 720 l 1
 120 840 l 1
 240 840 l 1
 360 840 l 1
 480 840 l 1
 480 720 l 1
EndSplineSet
EndChar

StartChar: P
Encoding: 80 80 49
Width: 720
GlyphClass: 2
Flags: W
LayerCount: 2
Fore
SplineSet
0 0 m 1
 0 120 l 1
 0 240 l 1
 0 360 l 1
 0 480 l 1
 0 600 l 1
 0 720 l 1
 0 840 l 1
 120 840 l 1
 240 840 l 1
 360 840 l 1
 480 840 l 1
 480 720 l 1
 600 720 l 1
 600 600 l 1
 480 600 l 1
 480 720 l 1
 360 720 l 1
 240 720 l 1
 120 720 l 1
 120 600 l 1
 240 600 l 1
 360 600 l 1
 480 600 l 1
 480 480 l 1
 360 480 l 1
 240 480 l 1
 120 480 l 1
 120 360 l 1
 120 240 l 1
 120 120 l 1
 120 0 l 1
 0 0 l 1
EndSplineSet
EndChar

StartChar: Q
Encoding: 81 81 50
Width: 720
GlyphClass: 2
Flags: W
LayerCount: 2
Fore
SplineSet
480 0 m 1
 480 120 l 1
 600 120 l 1
 600 0 l 1
 480 0 l 1
240 120 m 1
 360 120 l 1
 360 0 l 1
 240 0 l 1
 120 0 l 1
 120 120 l 1
 240 120 l 1
480 120 m 1
 360 120 l 1
 360 240 l 1
 480 240 l 1
 480 120 l 1
120 120 m 1
 0 120 l 1
 0 240 l 1
 0 360 l 1
 0 480 l 1
 0 600 l 1
 0 720 l 1
 120 720 l 1
 120 600 l 1
 120 480 l 1
 120 360 l 1
 120 240 l 1
 120 120 l 1
480 240 m 1
 480 360 l 1
 480 480 l 1
 480 600 l 1
 480 720 l 1
 600 720 l 1
 600 600 l 1
 600 480 l 1
 600 360 l 1
 600 240 l 1
 480 240 l 1
480 720 m 1
 360 720 l 1
 240 720 l 1
 120 720 l 1
 120 840 l 1
 240 840 l 1
 360 840 l 1
 480 840 l 1
 480 720 l 1
EndSplineSet
EndChar

StartChar: R
Encoding: 82 82 51
Width: 720
GlyphClass: 2
Flags: W
LayerCount: 2
Fore
SplineSet
480 0 m 1
 480 120 l 1
 480 240 l 1
 480 360 l 1
 480 480 l 1
 600 480 l 1
 600 360 l 1
 600 240 l 1
 600 120 l 1
 600 0 l 1
 480 0 l 1
0 0 m 1
 0 120 l 1
 0 240 l 1
 0 360 l 1
 0 480 l 1
 0 600 l 1
 0 720 l 1
 0 840 l 1
 120 840 l 1
 240 840 l 1
 360 840 l 1
 480 840 l 1
 480 720 l 1
 600 720 l 1
 600 600 l 1
 480 600 l 1
 480 720 l 1
 360 720 l 1
 240 720 l 1
 120 720 l 1
 120 600 l 1
 240 600 l 1
 360 600 l 1
 480 600 l 1
 480 480 l 1
 360 480 l 1
 240 480 l 1
 120 480 l 1
 120 360 l 1
 120 240 l 1
 120 120 l 1
 120 0 l 1
 0 0 l 1
EndSplineSet
EndChar

StartChar: S
Encoding: 83 83 52
Width: 720
GlyphClass: 2
Flags: W
LayerCount: 2
Fore
SplineSet
360 120 m 1
 480 120 l 1
 480 0 l 1
 360 0 l 1
 240 0 l 1
 120 0 l 1
 120 120 l 1
 240 120 l 1
 360 120 l 1
480 120 m 1
 480 240 l 1
 480 360 l 1
 480 480 l 1
 600 480 l 1
 600 360 l 1
 600 240 l 1
 600 120 l 1
 480 120 l 1
120 120 m 1
 0 120 l 1
 0 240 l 1
 120 240 l 1
 120 120 l 1
480 480 m 1
 360 480 l 1
 240 480 l 1
 120 480 l 1
 120 600 l 1
 240 600 l 1
 360 600 l 1
 480 600 l 1
 480 480 l 1
120 600 m 1
 0 600 l 1
 0 720 l 1
 120 720 l 1
 120 600 l 1
480 840 m 1
 600 840 l 1
 600 720 l 1
 480 720 l 1
 360 720 l 1
 240 720 l 1
 120 720 l 1
 120 840 l 1
 240 840 l 1
 360 840 l 1
 480 840 l 1
EndSplineSet
EndChar

StartChar: T
Encoding: 84 84 53
Width: 720
GlyphClass: 2
Flags: W
LayerCount: 2
Fore
SplineSet
240 0 m 1
 240 120 l 1
 240 240 l 1
 240 360 l 1
 240 480 l 1
 240 600 l 1
 240 720 l 1
 120 720 l 1
 0 720 l 1
 0 840 l 1
 120 840 l 1
 240 840 l 1
 360 840 l 1
 480 840 l 1
 600 840 l 1
 600 720 l 1
 480 720 l 1
 360 720 l 1
 360 600 l 1
 360 480 l 1
 360 360 l 1
 360 240 l 1
 360 120 l 1
 360 0 l 1
 240 0 l 1
EndSplineSet
EndChar

StartChar: U
Encoding: 85 85 54
Width: 720
GlyphClass: 2
Flags: W
LayerCount: 2
Fore
SplineSet
360 120 m 1
 480 120 l 1
 480 0 l 1
 360 0 l 1
 240 0 l 1
 120 0 l 1
 120 120 l 1
 240 120 l 1
 360 120 l 1
480 120 m 1
 480 240 l 1
 480 360 l 1
 480 480 l 1
 480 600 l 1
 480 720 l 1
 480 840 l 1
 600 840 l 1
 600 720 l 1
 600 600 l 1
 600 480 l 1
 600 360 l 1
 600 240 l 1
 600 120 l 1
 480 120 l 1
120 120 m 1
 0 120 l 1
 0 240 l 1
 0 360 l 1
 0 480 l 1
 0 600 l 1
 0 720 l 1
 0 840 l 1
 120 840 l 1
 120 720 l 1
 120 600 l 1
 120 480 l 1
 120 360 l 1
 120 240 l 1
 120 120 l 1
EndSplineSet
EndChar

StartChar: V
Encoding: 86 86 55
Width: 720
GlyphClass: 2
Flags: W
LayerCount: 2
Fore
SplineSet
240 0 m 1
 240 120 l 1
 360 120 l 1
 360 0 l 1
 240 0 l 1
360 120 m 1
 360 240 l 1
 360 360 l 1
 480 360 l 1
 480 240 l 1
 480 120 l 1
 360 120 l 1
240 120 m 1
 120 120 l 1
 120 240 l 1
 120 360 l 1
 240 360 l 1
 240 240 l 1
 240 120 l 1
480 360 m 1
 480 480 l 1
 480 600 l 1
 480 720 l 1
 480 840 l 1
 600 840 l 1
 600 720 l 1
 600 600 l 1
 600 480 l 1
 600 360 l 1
 480 360 l 1
120 360 m 1
 0 360 l 1
 0 480 l 1
 0 600 l 1
 0 720 l 1
 0 840 l 1
 120 840 l 1
 120 720 l 1
 120 600 l 1
 120 480 l 1
 120 360 l 1
EndSplineSet
EndChar

StartChar: W
Encoding: 87 87 56
Width: 720
GlyphClass: 2
Flags: W
LayerCount: 2
Fore
SplineSet
480 0 m 1
 480 120 l 1
 360 120 l 1
 360 240 l 1
 480 240 l 1
 480 360 l 1
 480 480 l 1
 480 600 l 1
 480 720 l 1
 480 840 l 1
 600 840 l 1
 600 720 l 1
 600 600 l 1
 600 480 l 1
 600 360 l 1
 600 240 l 1
 600 120 l 1
 600 0 l 1
 480 0 l 1
0 0 m 1
 0 120 l 1
 0 240 l 1
 0 360 l 1
 0 480 l 1
 0 600 l 1
 0 720 l 1
 0 840 l 1
 120 840 l 1
 120 720 l 1
 120 600 l 1
 120 480 l 1
 120 360 l 1
 120 240 l 1
 240 240 l 1
 240 120 l 1
 120 120 l 1
 120 0 l 1
 0 0 l 1
360 240 m 1
 240 240 l 1
 240 360 l 1
 360 360 l 1
 360 240 l 1
EndSplineSet
EndChar

StartChar: X
Encoding: 88 88 57
Width: 720
GlyphClass: 2
Flags: W
LayerCount: 2
Fore
SplineSet
480 0 m 1
 480 120 l 1
 480 240 l 1
 480 360 l 1
 600 360 l 1
 600 240 l 1
 600 120 l 1
 600 0 l 1
 480 0 l 1
0 0 m 1
 0 120 l 1
 0 240 l 1
 0 360 l 1
 120 360 l 1
 120 240 l 1
 120 120 l 1
 120 0 l 1
 0 0 l 1
480 360 m 1
 360 360 l 1
 360 480 l 1
 480 480 l 1
 480 360 l 1
120 360 m 1
 120 480 l 1
 240 480 l 1
 240 360 l 1
 120 360 l 1
360 480 m 1
 240 480 l 1
 240 600 l 1
 360 600 l 1
 360 480 l 1
360 600 m 1
 360 720 l 1
 480 720 l 1
 480 600 l 1
 360 600 l 1
240 600 m 1
 120 600 l 1
 120 720 l 1
 240 720 l 1
 240 600 l 1
480 720 m 1
 480 840 l 1
 600 840 l 1
 600 720 l 1
 480 720 l 1
120 720 m 1
 0 720 l 1
 0 840 l 1
 120 840 l 1
 120 720 l 1
EndSplineSet
EndChar

StartChar: Y
Encoding: 89 89 58
Width: 720
GlyphClass: 2
Flags: W
LayerCount: 2
Fore
SplineSet
240 0 m 1
 240 120 l 1
 240 240 l 1
 240 360 l 1
 240 480 l 1
 240 600 l 1
 360 600 l 1
 360 480 l 1
 360 360 l 1
 360 240 l 1
 360 120 l 1
 360 0 l 1
 240 0 l 1
360 600 m 1
 360 720 l 1
 480 720 l 1
 480 600 l 1
 360 600 l 1
240 600 m 1
 120 600 l 1
 120 720 l 1
 240 720 l 1
 240 600 l 1
480 720 m 1
 480 840 l 1
 600 840 l 1
 600 720 l 1
 480 720 l 1
120 720 m 1
 0 720 l 1
 0 840 l 1
 120 840 l 1
 120 720 l 1
EndSplineSet
EndChar

StartChar: Z
Encoding: 90 90 59
Width: 720
GlyphClass: 2
Flags: W
LayerCount: 2
Fore
SplineSet
480 120 m 1
 600 120 l 1
 600 0 l 1
 480 0 l 1
 360 0 l 1
 240 0 l 1
 120 0 l 1
 0 0 l 1
 0 120 l 1
 0 240 l 1
 120 240 l 1
 120 120 l 1
 240 120 l 1
 360 120 l 1
 480 120 l 1
120 240 m 1
 120 360 l 1
 240 360 l 1
 240 240 l 1
 120 240 l 1
240 360 m 1
 240 480 l 1
 360 480 l 1
 360 360 l 1
 240 360 l 1
360 480 m 1
 360 600 l 1
 480 600 l 1
 480 480 l 1
 360 480 l 1
480 600 m 1
 480 720 l 1
 360 720 l 1
 240 720 l 1
 120 720 l 1
 0 720 l 1
 0 840 l 1
 120 840 l 1
 240 840 l 1
 360 840 l 1
 480 840 l 1
 600 840 l 1
 600 720 l 1
 600 600 l 1
 480 600 l 1
EndSplineSet
EndChar

StartChar: bracketleft
Encoding: 91 91 60
Width: 720
GlyphClass: 2
Flags: W
LayerCount: 2
Fore
SplineSet
360 120 m 1
 480 120 l 1
 480 0 l 1
 360 0 l 1
 240 0 l 1
 120 0 l 1
 120 120 l 1
 120 240 l 1
 120 360 l 1
 120 480 l 1
 120 600 l 1
 120 720 l 1
 120 840 l 1
 240 840 l 1
 360 840 l 1
 480 840 l 1
 480 720 l 1
 360 720 l 1
 240 720 l 1
 240 600 l 1
 240 480 l 1
 240 360 l 1
 240 240 l 1
 240 120 l 1
 360 120 l 1
EndSplineSet
EndChar

StartChar: backslash
Encoding: 92 92 61
Width: 720
GlyphClass: 2
Flags: W
LayerCount: 2
Fore
SplineSet
480 0 m 1
 480 120 l 1
 600 120 l 1
 600 0 l 1
 480 0 l 1
480 120 m 1
 360 120 l 1
 360 240 l 1
 360 360 l 1
 480 360 l 1
 480 240 l 1
 480 120 l 1
360 360 m 1
 240 360 l 1
 240 480 l 1
 360 480 l 1
 360 360 l 1
240 480 m 1
 120 480 l 1
 120 600 l 1
 120 720 l 1
 240 720 l 1
 240 600 l 1
 240 480 l 1
120 720 m 1
 0 720 l 1
 0 840 l 1
 120 840 l 1
 120 720 l 1
EndSplineSet
EndChar

StartChar: bracketright
Encoding: 93 93 62
Width: 720
GlyphClass: 2
Flags: W
LayerCount: 2
Fore
SplineSet
360 0 m 1
 240 0 l 1
 120 0 l 1
 120 120 l 1
 240 120 l 1
 360 120 l 1
 360 240 l 1
 360 360 l 1
 360 480 l 1
 360 600 l 1
 360 720 l 1
 240 720 l 1
 120 720 l 1
 120 840 l 1
 240 840 l 1
 360 840 l 1
 480 840 l 1
 480 720 l 1
 480 600 l 1
 480 480 l 1
 480 360 l 1
 480 240 l 1
 480 120 l 1
 480 0 l 1
 360 0 l 1
EndSplineSet
EndChar

StartChar: asciicircum
Encoding: 94 94 63
Width: 720
GlyphClass: 2
Flags: W
LayerCount: 2
Fore
SplineSet
480 480 m 1
 480 600 l 1
 600 600 l 1
 600 480 l 1
 480 480 l 1
0 480 m 1
 0 600 l 1
 120 600 l 1
 120 480 l 1
 0 480 l 1
480 600 m 1
 360 600 l 1
 360 720 l 1
 480 720 l 1
 480 600 l 1
120 600 m 1
 120 720 l 1
 240 720 l 1
 240 600 l 1
 120 600 l 1
360 720 m 1
 240 720 l 1
 240 840 l 1
 360 840 l 1
 360 720 l 1
EndSplineSet
EndChar

StartChar: underscore
Encoding: 95 95 64
Width: 720
GlyphClass: 2
Flags: W
LayerCount: 2
Fore
SplineSet
480 0 m 1
 600 0 l 1
 600 -120 l 1
 480 -120 l 1
 360 -120 l 1
 240 -120 l 1
 120 -120 l 1
 0 -120 l 1
 0 0 l 1
 120 0 l 1
 240 0 l 1
 360 0 l 1
 480 0 l 1
EndSplineSet
EndChar

StartChar: grave
Encoding: 96 96 65
Width: 720
GlyphClass: 2
Flags: W
LayerCount: 2
Fore
SplineSet
240 600 m 1
 240 720 l 1
 360 720 l 1
 360 600 l 1
 240 600 l 1
240 720 m 1
 120 720 l 1
 120 840 l 1
 240 840 l 1
 240 720 l 1
EndSplineSet
EndChar

StartChar: a
Encoding: 97 97 66
Width: 720
GlyphClass: 2
Flags: MW
HStem: 0 120<120 240 0 120 240 360 360 480> 240 120<0 240 120 240 120 240 120 240 240 360 360 480> 480 120<120 240 120 240 240 360 360 480>
VStem: 0 120<120 240> 480 120<0 120 120 240 360 480>
CounterMasks: 1 e0
LayerCount: 2
Fore
SplineSet
480 0 m 1
 360 0 l 1
 240 0 l 1
 120 0 l 1
 120 120 l 1
 0 120 l 1
 0 240 l 1
 120 240 l 1
 120 360 l 1
 240 360 l 1
 360 360 l 1
 480 360 l 1
 480 480 l 1
 600 480 l 1
 600 360 l 1
 600 240 l 1
 600 120 l 1
 600 0 l 1
 480 0 l 1
360 120 m 1
 480 120 l 1
 480 240 l 1
 360 240 l 1
 240 240 l 1
 120 240 l 1
 120 120 l 1
 240 120 l 1
 360 120 l 1
480 480 m 1
 360 480 l 1
 240 480 l 1
 120 480 l 1
 120 600 l 1
 240 600 l 1
 360 600 l 1
 480 600 l 1
 480 480 l 1
EndSplineSet
EndChar

StartChar: b
Encoding: 98 98 67
Width: 720
GlyphClass: 2
Flags: W
LayerCount: 2
Fore
SplineSet
360 120 m 1
 480 120 l 1
 480 0 l 1
 360 0 l 1
 240 0 l 1
 120 0 l 1
 0 0 l 1
 0 120 l 1
 0 240 l 1
 0 360 l 1
 0 480 l 1
 0 600 l 1
 0 720 l 1
 0 840 l 1
 120 840 l 1
 120 720 l 1
 120 600 l 1
 120 480 l 1
 240 480 l 1
 240 360 l 1
 120 360 l 1
 120 240 l 1
 120 120 l 1
 240 120 l 1
 360 120 l 1
480 120 m 1
 480 240 l 1
 480 360 l 1
 480 480 l 1
 600 480 l 1
 600 360 l 1
 600 240 l 1
 600 120 l 1
 480 120 l 1
480 480 m 1
 360 480 l 1
 240 480 l 1
 240 600 l 1
 360 600 l 1
 480 600 l 1
 480 480 l 1
EndSplineSet
EndChar

StartChar: c
Encoding: 99 99 68
Width: 720
GlyphClass: 2
Flags: W
LayerCount: 2
Fore
SplineSet
480 360 m 1
 480 480 l 1
 600 480 l 1
 600 360 l 1
 480 360 l 1
360 120 m 1
 480 120 l 1
 480 0 l 1
 360 0 l 1
 240 0 l 1
 120 0 l 1
 120 120 l 1
 240 120 l 1
 360 120 l 1
480 120 m 1
 480 240 l 1
 600 240 l 1
 600 120 l 1
 480 120 l 1
120 120 m 1
 0 120 l 1
 0 240 l 1
 0 360 l 1
 0 480 l 1
 120 480 l 1
 120 360 l 1
 120 240 l 1
 120 120 l 1
480 480 m 1
 360 480 l 1
 240 480 l 1
 120 480 l 1
 120 600 l 1
 240 600 l 1
 360 600 l 1
 480 600 l 1
 480 480 l 1
EndSplineSet
EndChar

StartChar: d
Encoding: 100 100 69
Width: 720
GlyphClass: 2
Flags: W
LayerCount: 2
Fore
SplineSet
480 0 m 1
 360 0 l 1
 240 0 l 1
 120 0 l 1
 120 120 l 1
 240 120 l 1
 360 120 l 1
 480 120 l 1
 480 240 l 1
 480 360 l 1
 360 360 l 1
 360 480 l 1
 480 480 l 1
 480 600 l 1
 480 720 l 1
 480 840 l 1
 600 840 l 1
 600 720 l 1
 600 600 l 1
 600 480 l 1
 600 360 l 1
 600 240 l 1
 600 120 l 1
 600 0 l 1
 480 0 l 1
120 120 m 1
 0 120 l 1
 0 240 l 1
 0 360 l 1
 0 480 l 1
 120 480 l 1
 120 360 l 1
 120 240 l 1
 120 120 l 1
360 480 m 1
 240 480 l 1
 120 480 l 1
 120 600 l 1
 240 600 l 1
 360 600 l 1
 360 480 l 1
EndSplineSet
EndChar

StartChar: e
Encoding: 101 101 70
Width: 720
GlyphClass: 2
Flags: W
LayerCount: 2
Fore
SplineSet
480 120 m 1
 600 120 l 1
 600 0 l 1
 480 0 l 1
 360 0 l 1
 240 0 l 1
 120 0 l 1
 120 120 l 1
 240 120 l 1
 360 120 l 1
 480 120 l 1
120 120 m 1
 0 120 l 1
 0 240 l 1
 0 360 l 1
 0 480 l 1
 120 480 l 1
 120 360 l 1
 240 360 l 1
 360 360 l 1
 480 360 l 1
 480 480 l 1
 600 480 l 1
 600 360 l 1
 600 240 l 1
 480 240 l 1
 360 240 l 1
 240 240 l 1
 120 240 l 1
 120 120 l 1
480 480 m 1
 360 480 l 1
 240 480 l 1
 120 480 l 1
 120 600 l 1
 240 600 l 1
 360 600 l 1
 480 600 l 1
 480 480 l 1
EndSplineSet
EndChar

StartChar: f
Encoding: 102 102 71
Width: 720
GlyphClass: 2
Flags: W
LayerCount: 2
Fore
SplineSet
240 0 m 1
 240 120 l 1
 240 240 l 1
 240 360 l 1
 240 480 l 1
 120 480 l 1
 120 600 l 1
 240 600 l 1
 240 720 l 1
 360 720 l 1
 360 600 l 1
 480 600 l 1
 600 600 l 1
 600 480 l 1
 480 480 l 1
 360 480 l 1
 360 360 l 1
 360 240 l 1
 360 120 l 1
 360 0 l 1
 240 0 l 1
480 840 m 1
 600 840 l 1
 600 720 l 1
 480 720 l 1
 360 720 l 1
 360 840 l 1
 480 840 l 1
EndSplineSet
EndChar

StartChar: g
Encoding: 103 103 72
Width: 720
GlyphClass: 2
Flags: W
LayerCount: 2
Fore
SplineSet
360 0 m 1
 480 0 l 1
 480 -120 l 1
 360 -120 l 1
 240 -120 l 1
 120 -120 l 1
 0 -120 l 1
 0 0 l 1
 120 0 l 1
 240 0 l 1
 360 0 l 1
480 0 m 1
 480 120 l 1
 360 120 l 1
 240 120 l 1
 120 120 l 1
 120 240 l 1
 0 240 l 1
 0 360 l 1
 0 480 l 1
 120 480 l 1
 120 600 l 1
 240 600 l 1
 360 600 l 1
 480 600 l 1
 600 600 l 1
 600 480 l 1
 600 360 l 1
 600 240 l 1
 600 120 l 1
 600 0 l 1
 480 0 l 1
360 240 m 1
 480 240 l 1
 480 360 l 1
 480 480 l 1
 360 480 l 1
 240 480 l 1
 120 480 l 1
 120 360 l 1
 120 240 l 1
 240 240 l 1
 360 240 l 1
EndSplineSet
EndChar

StartChar: h
Encoding: 104 104 73
Width: 720
GlyphClass: 2
Flags: W
LayerCount: 2
Fore
SplineSet
480 0 m 1
 480 120 l 1
 480 240 l 1
 480 360 l 1
 480 480 l 1
 600 480 l 1
 600 360 l 1
 600 240 l 1
 600 120 l 1
 600 0 l 1
 480 0 l 1
0 0 m 1
 0 120 l 1
 0 240 l 1
 0 360 l 1
 0 480 l 1
 0 600 l 1
 0 720 l 1
 0 840 l 1
 120 840 l 1
 120 720 l 1
 120 600 l 1
 120 480 l 1
 240 480 l 1
 240 360 l 1
 120 360 l 1
 120 240 l 1
 120 120 l 1
 120 0 l 1
 0 0 l 1
480 480 m 1
 360 480 l 1
 240 480 l 1
 240 600 l 1
 360 600 l 1
 480 600 l 1
 480 480 l 1
EndSplineSet
EndChar

StartChar: i
Encoding: 105 105 74
Width: 720
GlyphClass: 2
Flags: W
LayerCount: 2
Fore
SplineSet
240 720 m 1
 240 840 l 1
 360 840 l 1
 360 720 l 1
 240 720 l 1
480 120 m 1
 600 120 l 1
 600 0 l 1
 480 0 l 1
 360 0 l 1
 360 120 l 1
 480 120 l 1
360 120 m 1
 240 120 l 1
 240 240 l 1
 240 360 l 1
 240 480 l 1
 120 480 l 1
 120 600 l 1
 240 600 l 1
 360 600 l 1
 360 480 l 1
 360 360 l 1
 360 240 l 1
 360 120 l 1
EndSplineSet
EndChar

StartChar: j
Encoding: 106 106 75
Width: 720
GlyphClass: 2
Flags: W
LayerCount: 2
Fore
SplineSet
480 720 m 1
 480 840 l 1
 600 840 l 1
 600 720 l 1
 480 720 l 1
360 0 m 1
 480 0 l 1
 480 -120 l 1
 360 -120 l 1
 240 -120 l 1
 120 -120 l 1
 120 0 l 1
 240 0 l 1
 360 0 l 1
480 0 m 1
 480 120 l 1
 480 240 l 1
 480 360 l 1
 480 480 l 1
 480 600 l 1
 600 600 l 1
 600 480 l 1
 600 360 l 1
 600 240 l 1
 600 120 l 1
 600 0 l 1
 480 0 l 1
120 0 m 1
 0 0 l 1
 0 120 l 1
 0 240 l 1
 120 240 l 1
 120 120 l 1
 120 0 l 1
EndSplineSet
EndChar

StartChar: k
Encoding: 107 107 76
Width: 720
GlyphClass: 2
Flags: W
LayerCount: 2
Fore
SplineSet
480 0 m 1
 480 120 l 1
 600 120 l 1
 600 0 l 1
 480 0 l 1
120 0 m 1
 120 120 l 1
 120 240 l 1
 120 360 l 1
 120 480 l 1
 120 600 l 1
 120 720 l 1
 120 840 l 1
 240 840 l 1
 240 720 l 1
 240 600 l 1
 240 480 l 1
 240 360 l 1
 360 360 l 1
 360 240 l 1
 480 240 l 1
 480 120 l 1
 360 120 l 1
 360 240 l 1
 240 240 l 1
 240 120 l 1
 240 0 l 1
 120 0 l 1
360 360 m 1
 360 480 l 1
 480 480 l 1
 480 360 l 1
 360 360 l 1
480 480 m 1
 480 600 l 1
 600 600 l 1
 600 480 l 1
 480 480 l 1
EndSplineSet
EndChar

StartChar: l
Encoding: 108 108 77
Width: 720
GlyphClass: 2
Flags: W
LayerCount: 2
Fore
SplineSet
480 120 m 1
 600 120 l 1
 600 0 l 1
 480 0 l 1
 360 0 l 1
 360 120 l 1
 480 120 l 1
360 120 m 1
 240 120 l 1
 240 240 l 1
 240 360 l 1
 240 480 l 1
 240 600 l 1
 240 720 l 1
 120 720 l 1
 120 840 l 1
 240 840 l 1
 360 840 l 1
 360 720 l 1
 360 600 l 1
 360 480 l 1
 360 360 l 1
 360 240 l 1
 360 120 l 1
EndSplineSet
EndChar

StartChar: m
Encoding: 109 109 78
Width: 720
GlyphClass: 2
Flags: W
LayerCount: 2
Fore
SplineSet
480 0 m 1
 480 120 l 1
 480 240 l 1
 480 360 l 1
 480 480 l 1
 600 480 l 1
 600 360 l 1
 600 240 l 1
 600 120 l 1
 600 0 l 1
 480 0 l 1
0 0 m 1
 0 120 l 1
 0 240 l 1
 0 360 l 1
 0 480 l 1
 0 600 l 1
 120 600 l 1
 240 600 l 1
 240 480 l 1
 360 480 l 1
 360 360 l 1
 360 240 l 1
 240 240 l 1
 240 360 l 1
 240 480 l 1
 120 480 l 1
 120 360 l 1
 120 240 l 1
 120 120 l 1
 120 0 l 1
 0 0 l 1
480 480 m 1
 360 480 l 1
 360 600 l 1
 480 600 l 1
 480 480 l 1
EndSplineSet
EndChar

StartChar: n
Encoding: 110 110 79
Width: 720
GlyphClass: 2
Flags: W
LayerCount: 2
Fore
SplineSet
480 0 m 1
 480 120 l 1
 480 240 l 1
 480 360 l 1
 480 480 l 1
 600 480 l 1
 600 360 l 1
 600 240 l 1
 600 120 l 1
 600 0 l 1
 480 0 l 1
0 0 m 1
 0 120 l 1
 0 240 l 1
 0 360 l 1
 0 480 l 1
 0 600 l 1
 120 600 l 1
 240 600 l 1
 360 600 l 1
 480 600 l 1
 480 480 l 1
 360 480 l 1
 240 480 l 1
 120 480 l 1
 120 360 l 1
 120 240 l 1
 120 120 l 1
 120 0 l 1
 0 0 l 1
EndSplineSet
EndChar

StartChar: o
Encoding: 111 111 80
Width: 720
GlyphClass: 2
Flags: W
LayerCount: 2
Fore
SplineSet
360 120 m 1
 480 120 l 1
 480 0 l 1
 360 0 l 1
 240 0 l 1
 120 0 l 1
 120 120 l 1
 240 120 l 1
 360 120 l 1
480 120 m 1
 480 240 l 1
 480 360 l 1
 480 480 l 1
 600 480 l 1
 600 360 l 1
 600 240 l 1
 600 120 l 1
 480 120 l 1
120 120 m 1
 0 120 l 1
 0 240 l 1
 0 360 l 1
 0 480 l 1
 120 480 l 1
 120 360 l 1
 120 240 l 1
 120 120 l 1
480 480 m 1
 360 480 l 1
 240 480 l 1
 120 480 l 1
 120 600 l 1
 240 600 l 1
 360 600 l 1
 480 600 l 1
 480 480 l 1
EndSplineSet
EndChar

StartChar: p
Encoding: 112 112 81
Width: 720
GlyphClass: 2
Flags: W
LayerCount: 2
Fore
SplineSet
0 -120 m 1
 0 0 l 1
 0 120 l 1
 0 240 l 1
 0 360 l 1
 0 480 l 1
 0 600 l 1
 120 600 l 1
 120 480 l 1
 240 480 l 1
 240 360 l 1
 120 360 l 1
 120 240 l 1
 240 240 l 1
 360 240 l 1
 480 240 l 1
 480 120 l 1
 360 120 l 1
 240 120 l 1
 120 120 l 1
 120 0 l 1
 120 -120 l 1
 0 -120 l 1
480 240 m 1
 480 360 l 1
 480 480 l 1
 600 480 l 1
 600 360 l 1
 600 240 l 1
 480 240 l 1
480 480 m 1
 360 480 l 1
 240 480 l 1
 240 600 l 1
 360 600 l 1
 480 600 l 1
 480 480 l 1
EndSplineSet
EndChar

StartChar: q
Encoding: 113 113 82
Width: 720
GlyphClass: 2
Flags: W
LayerCount: 2
Fore
SplineSet
480 -120 m 1
 480 0 l 1
 480 120 l 1
 360 120 l 1
 240 120 l 1
 120 120 l 1
 120 240 l 1
 240 240 l 1
 360 240 l 1
 480 240 l 1
 480 360 l 1
 360 360 l 1
 360 480 l 1
 480 480 l 1
 480 600 l 1
 600 600 l 1
 600 480 l 1
 600 360 l 1
 600 240 l 1
 600 120 l 1
 600 0 l 1
 600 -120 l 1
 480 -120 l 1
120 240 m 1
 0 240 l 1
 0 360 l 1
 0 480 l 1
 120 480 l 1
 120 360 l 1
 120 240 l 1
360 480 m 1
 240 480 l 1
 120 480 l 1
 120 600 l 1
 240 600 l 1
 360 600 l 1
 360 480 l 1
EndSplineSet
EndChar

StartChar: r
Encoding: 114 114 83
Width: 720
GlyphClass: 2
Flags: W
LayerCount: 2
Fore
SplineSet
0 0 m 1
 0 120 l 1
 0 240 l 1
 0 360 l 1
 0 480 l 1
 0 600 l 1
 120 600 l 1
 120 480 l 1
 240 480 l 1
 240 360 l 1
 120 360 l 1
 120 240 l 1
 120 120 l 1
 120 0 l 1
 0 0 l 1
480 360 m 1
 480 480 l 1
 600 480 l 1
 600 360 l 1
 480 360 l 1
480 480 m 1
 360 480 l 1
 240 480 l 1
 240 600 l 1
 360 600 l 1
 480 600 l 1
 480 480 l 1
EndSplineSet
EndChar

StartChar: s
Encoding: 115 115 84
Width: 720
GlyphClass: 2
Flags: W
LayerCount: 2
Fore
SplineSet
360 120 m 1
 480 120 l 1
 480 0 l 1
 360 0 l 1
 240 0 l 1
 120 0 l 1
 0 0 l 1
 0 120 l 1
 120 120 l 1
 240 120 l 1
 360 120 l 1
480 120 m 1
 480 240 l 1
 600 240 l 1
 600 120 l 1
 480 120 l 1
480 240 m 1
 360 240 l 1
 240 240 l 1
 120 240 l 1
 120 360 l 1
 240 360 l 1
 360 360 l 1
 480 360 l 1
 480 240 l 1
120 360 m 1
 0 360 l 1
 0 480 l 1
 120 480 l 1
 120 360 l 1
480 600 m 1
 600 600 l 1
 600 480 l 1
 480 480 l 1
 360 480 l 1
 240 480 l 1
 120 480 l 1
 120 600 l 1
 240 600 l 1
 360 600 l 1
 480 600 l 1
EndSplineSet
EndChar

StartChar: t
Encoding: 116 116 85
Width: 720
GlyphClass: 2
Flags: W
LayerCount: 2
Fore
SplineSet
480 120 m 1
 600 120 l 1
 600 0 l 1
 480 0 l 1
 360 0 l 1
 360 120 l 1
 480 120 l 1
360 120 m 1
 240 120 l 1
 240 240 l 1
 240 360 l 1
 240 480 l 1
 120 480 l 1
 120 600 l 1
 240 600 l 1
 240 720 l 1
 240 840 l 1
 360 840 l 1
 360 720 l 1
 360 600 l 1
 480 600 l 1
 480 480 l 1
 360 480 l 1
 360 360 l 1
 360 240 l 1
 360 120 l 1
EndSplineSet
EndChar

StartChar: u
Encoding: 117 117 86
Width: 720
GlyphClass: 2
Flags: W
LayerCount: 2
Fore
SplineSet
480 0 m 1
 360 0 l 1
 240 0 l 1
 120 0 l 1
 120 120 l 1
 240 120 l 1
 360 120 l 1
 480 120 l 1
 480 240 l 1
 480 360 l 1
 480 480 l 1
 480 600 l 1
 600 600 l 1
 600 480 l 1
 600 360 l 1
 600 240 l 1
 600 120 l 1
 600 0 l 1
 480 0 l 1
120 120 m 1
 0 120 l 1
 0 240 l 1
 0 360 l 1
 0 480 l 1
 0 600 l 1
 120 600 l 1
 120 480 l 1
 120 360 l 1
 120 240 l 1
 120 120 l 1
EndSplineSet
EndChar

StartChar: v
Encoding: 118 118 87
Width: 720
GlyphClass: 2
Flags: W
LayerCount: 2
Fore
SplineSet
240 0 m 1
 240 120 l 1
 360 120 l 1
 360 0 l 1
 240 0 l 1
360 120 m 1
 360 240 l 1
 480 240 l 1
 480 120 l 1
 360 120 l 1
240 120 m 1
 120 120 l 1
 120 240 l 1
 240 240 l 1
 240 120 l 1
480 240 m 1
 480 360 l 1
 480 480 l 1
 480 600 l 1
 600 600 l 1
 600 480 l 1
 600 360 l 1
 600 240 l 1
 480 240 l 1
120 240 m 1
 0 240 l 1
 0 360 l 1
 0 480 l 1
 0 600 l 1
 120 600 l 1
 120 480 l 1
 120 360 l 1
 120 240 l 1
EndSplineSet
EndChar

StartChar: w
Encoding: 119 119 88
Width: 720
GlyphClass: 2
Flags: W
LayerCount: 2
Fore
SplineSet
480 0 m 1
 360 0 l 1
 240 0 l 1
 120 0 l 1
 120 120 l 1
 240 120 l 1
 240 240 l 1
 240 360 l 1
 360 360 l 1
 360 240 l 1
 360 120 l 1
 480 120 l 1
 480 240 l 1
 480 360 l 1
 480 480 l 1
 480 600 l 1
 600 600 l 1
 600 480 l 1
 600 360 l 1
 600 240 l 1
 600 120 l 1
 600 0 l 1
 480 0 l 1
120 120 m 1
 0 120 l 1
 0 240 l 1
 0 360 l 1
 0 480 l 1
 0 600 l 1
 120 600 l 1
 120 480 l 1
 120 360 l 1
 120 240 l 1
 120 120 l 1
EndSplineSet
EndChar

StartChar: x
Encoding: 120 120 89
Width: 720
GlyphClass: 2
Flags: W
LayerCount: 2
Fore
SplineSet
480 0 m 1
 480 120 l 1
 600 120 l 1
 600 0 l 1
 480 0 l 1
0 0 m 1
 0 120 l 1
 120 120 l 1
 120 0 l 1
 0 0 l 1
480 120 m 1
 360 120 l 1
 360 240 l 1
 480 240 l 1
 480 120 l 1
120 120 m 1
 120 240 l 1
 240 240 l 1
 240 120 l 1
 120 120 l 1
360 240 m 1
 240 240 l 1
 240 360 l 1
 360 360 l 1
 360 240 l 1
360 360 m 1
 360 480 l 1
 480 480 l 1
 480 360 l 1
 360 360 l 1
240 360 m 1
 120 360 l 1
 120 480 l 1
 240 480 l 1
 240 360 l 1
480 480 m 1
 480 600 l 1
 600 600 l 1
 600 480 l 1
 480 480 l 1
120 480 m 1
 0 480 l 1
 0 600 l 1
 120 600 l 1
 120 480 l 1
EndSplineSet
EndChar

StartChar: y
Encoding: 121 121 90
Width: 720
GlyphClass: 2
Flags: W
LayerCount: 2
Fore
SplineSet
360 0 m 1
 480 0 l 1
 480 -120 l 1
 360 -120 l 1
 240 -120 l 1
 120 -120 l 1
 0 -120 l 1
 0 0 l 1
 120 0 l 1
 240 0 l 1
 360 0 l 1
480 0 m 1
 480 120 l 1
 360 120 l 1
 240 120 l 1
 120 120 l 1
 120 240 l 1
 240 240 l 1
 360 240 l 1
 480 240 l 1
 480 360 l 1
 480 480 l 1
 480 600 l 1
 600 600 l 1
 600 480 l 1
 600 360 l 1
 600 240 l 1
 600 120 l 1
 600 0 l 1
 480 0 l 1
120 240 m 1
 0 240 l 1
 0 360 l 1
 0 480 l 1
 0 600 l 1
 120 600 l 1
 120 480 l 1
 120 360 l 1
 120 240 l 1
EndSplineSet
EndChar

StartChar: z
Encoding: 122 122 91
Width: 720
GlyphClass: 2
Flags: W
LayerCount: 2
Fore
SplineSet
480 120 m 1
 600 120 l 1
 600 0 l 1
 480 0 l 1
 360 0 l 1
 240 0 l 1
 120 0 l 1
 0 0 l 1
 0 120 l 1
 120 120 l 1
 120 240 l 1
 240 240 l 1
 240 120 l 1
 360 120 l 1
 480 120 l 1
240 240 m 1
 240 360 l 1
 360 360 l 1
 360 240 l 1
 240 240 l 1
360 360 m 1
 360 480 l 1
 240 480 l 1
 120 480 l 1
 0 480 l 1
 0 600 l 1
 120 600 l 1
 240 600 l 1
 360 600 l 1
 480 600 l 1
 600 600 l 1
 600 480 l 1
 480 480 l 1
 480 360 l 1
 360 360 l 1
EndSplineSet
EndChar

StartChar: braceleft
Encoding: 123 123 92
Width: 720
GlyphClass: 2
Flags: W
LayerCount: 2
Fore
SplineSet
360 0 m 1
 360 120 l 1
 480 120 l 1
 480 0 l 1
 360 0 l 1
360 120 m 1
 240 120 l 1
 240 240 l 1
 240 360 l 1
 360 360 l 1
 360 240 l 1
 360 120 l 1
240 360 m 1
 0 360 l 1
 0 480 l 1
 240 480 l 1
 240 360 l 1
240 480 m 1
 240 600 l 1
 240 720 l 1
 360 720 l 1
 360 600 l 1
 360 480 l 1
 240 480 l 1
360 720 m 1
 360 840 l 1
 480 840 l 1
 480 720 l 1
 360 720 l 1
EndSplineSet
EndChar

StartChar: bar
Encoding: 124 124 93
Width: 720
GlyphClass: 2
Flags: W
LayerCount: 2
Fore
SplineSet
240 0 m 1
 240 120 l 1
 240 240 l 1
 240 360 l 1
 240 480 l 1
 240 600 l 1
 240 720 l 1
 240 840 l 1
 360 840 l 1
 360 720 l 1
 360 600 l 1
 360 480 l 1
 360 360 l 1
 360 240 l 1
 360 120 l 1
 360 0 l 1
 240 0 l 1
EndSplineSet
EndChar

StartChar: braceright
Encoding: 125 125 94
Width: 720
GlyphClass: 2
Flags: W
LayerCount: 2
Fore
SplineSet
120 0 m 1
 120 120 l 1
 240 120 l 1
 240 0 l 1
 120 0 l 1
240 120 m 1
 240 240 l 1
 240 360 l 1
 360 360 l 1
 360 240 l 1
 360 120 l 1
 240 120 l 1
360 360 m 1
 360 480 l 1
 600 480 l 1
 600 360 l 1
 360 360 l 1
360 480 m 1
 240 480 l 1
 240 600 l 1
 240 720 l 1
 360 720 l 1
 360 600 l 1
 360 480 l 1
240 720 m 1
 120 720 l 1
 120 840 l 1
 240 840 l 1
 240 720 l 1
EndSplineSet
EndChar

StartChar: asciitilde
Encoding: 126 126 95
Width: 720
GlyphClass: 2
Flags: W
LayerCount: 2
Fore
SplineSet
360 240 m 1
 360 360 l 1
 480 360 l 1
 480 240 l 1
 360 240 l 1
0 240 m 1
 0 360 l 1
 0 480 l 1
 120 480 l 1
 120 360 l 1
 120 240 l 1
 0 240 l 1
480 360 m 1
 480 480 l 1
 480 600 l 1
 600 600 l 1
 600 480 l 1
 600 360 l 1
 480 360 l 1
360 360 m 1
 240 360 l 1
 240 480 l 1
 360 480 l 1
 360 360 l 1
240 480 m 1
 120 480 l 1
 120 600 l 1
 240 600 l 1
 240 480 l 1
EndSplineSet
EndChar

StartChar: exclamdown
Encoding: 161 161 97
Width: 720
GlyphClass: 2
Flags: W
LayerCount: 2
Fore
SplineSet
240 -120 m 1
 240 0 l 1
 240 120 l 1
 240 240 l 1
 240 360 l 1
 240 480 l 1
 360 480 l 1
 360 360 l 1
 360 240 l 1
 360 120 l 1
 360 0 l 1
 360 -120 l 1
 240 -120 l 1
240 600 m 1
 240 720 l 1
 360 720 l 1
 360 600 l 1
 240 600 l 1
EndSplineSet
EndChar

StartChar: cent
Encoding: 162 162 98
Width: 720
GlyphClass: 2
Flags: W
LayerCount: 2
Fore
SplineSet
240 -120 m 1
 240 0 l 1
 120 0 l 1
 120 120 l 1
 240 120 l 1
 360 120 l 1
 480 120 l 1
 480 0 l 1
 360 0 l 1
 360 -120 l 1
 240 -120 l 1
480 360 m 1
 480 480 l 1
 600 480 l 1
 600 360 l 1
 480 360 l 1
480 120 m 1
 480 240 l 1
 600 240 l 1
 600 120 l 1
 480 120 l 1
120 120 m 1
 0 120 l 1
 0 240 l 1
 0 360 l 1
 0 480 l 1
 120 480 l 1
 120 360 l 1
 120 240 l 1
 120 120 l 1
480 480 m 1
 360 480 l 1
 240 480 l 1
 120 480 l 1
 120 600 l 1
 240 600 l 1
 240 720 l 1
 360 720 l 1
 360 600 l 1
 480 600 l 1
 480 480 l 1
EndSplineSet
EndChar

StartChar: sterling
Encoding: 163 163 99
Width: 720
GlyphClass: 2
Flags: W
LayerCount: 2
Fore
SplineSet
480 600 m 1
 480 720 l 1
 600 720 l 1
 600 600 l 1
 480 600 l 1
480 120 m 1
 600 120 l 1
 600 0 l 1
 480 0 l 1
 360 0 l 1
 240 0 l 1
 120 0 l 1
 0 0 l 1
 0 120 l 1
 120 120 l 1
 120 240 l 1
 120 360 l 1
 0 360 l 1
 0 480 l 1
 120 480 l 1
 120 600 l 1
 120 720 l 1
 240 720 l 1
 240 600 l 1
 240 480 l 1
 360 480 l 1
 480 480 l 1
 480 360 l 1
 360 360 l 1
 240 360 l 1
 240 240 l 1
 240 120 l 1
 360 120 l 1
 480 120 l 1
480 720 m 1
 360 720 l 1
 240 720 l 1
 240 840 l 1
 360 840 l 1
 480 840 l 1
 480 720 l 1
EndSplineSet
EndChar

StartChar: currency
Encoding: 164 164 100
Width: 720
GlyphClass: 2
Flags: W
LayerCount: 2
Fore
SplineSet
600 0 m 1
 600 120 l 1
 720 120 l 1
 720 0 l 1
 600 0 l 1
0 0 m 1
 0 120 l 1
 120 120 l 1
 120 0 l 1
 0 0 l 1
360 120 m 1
 480 120 l 1
 480 0 l 1
 360 0 l 1
 240 0 l 1
 240 120 l 1
 360 120 l 1
600 120 m 1
 480 120 l 1
 480 240 l 1
 480 360 l 1
 480 480 l 1
 600 480 l 1
 600 360 l 1
 600 240 l 1
 600 120 l 1
240 120 m 1
 120 120 l 1
 120 240 l 1
 120 360 l 1
 120 480 l 1
 240 480 l 1
 240 360 l 1
 240 240 l 1
 240 120 l 1
600 480 m 1
 600 600 l 1
 720 600 l 1
 720 480 l 1
 600 480 l 1
480 480 m 1
 360 480 l 1
 240 480 l 1
 240 600 l 1
 360 600 l 1
 480 600 l 1
 480 480 l 1
120 480 m 1
 0 480 l 1
 0 600 l 1
 120 600 l 1
 120 480 l 1
EndSplineSet
EndChar

StartChar: yen
Encoding: 165 165 101
Width: 720
GlyphClass: 2
Flags: W
LayerCount: 2
Fore
SplineSet
240 0 m 1
 240 120 l 1
 120 120 l 1
 0 120 l 1
 0 240 l 1
 120 240 l 1
 240 240 l 1
 240 360 l 1
 120 360 l 1
 0 360 l 1
 0 480 l 1
 120 480 l 1
 240 480 l 1
 240 600 l 1
 360 600 l 1
 360 480 l 1
 480 480 l 1
 600 480 l 1
 600 360 l 1
 480 360 l 1
 360 360 l 1
 360 240 l 1
 480 240 l 1
 600 240 l 1
 600 120 l 1
 480 120 l 1
 360 120 l 1
 360 0 l 1
 240 0 l 1
360 600 m 1
 360 720 l 1
 480 720 l 1
 480 600 l 1
 360 600 l 1
240 600 m 1
 120 600 l 1
 120 720 l 1
 240 720 l 1
 240 600 l 1
480 720 m 1
 480 840 l 1
 600 840 l 1
 600 720 l 1
 480 720 l 1
120 720 m 1
 0 720 l 1
 0 840 l 1
 120 840 l 1
 120 720 l 1
EndSplineSet
EndChar

StartChar: brokenbar
Encoding: 166 166 102
Width: 720
GlyphClass: 2
Flags: W
LayerCount: 2
Fore
SplineSet
120 0 m 1
 120 120 l 1
 120 240 l 1
 120 360 l 1
 240 360 l 1
 240 240 l 1
 240 120 l 1
 240 0 l 1
 120 0 l 1
120 480 m 1
 120 600 l 1
 120 720 l 1
 120 840 l 1
 240 840 l 1
 240 720 l 1
 240 600 l 1
 240 480 l 1
 120 480 l 1
EndSplineSet
EndChar

StartChar: section
Encoding: 167 167 103
Width: 720
GlyphClass: 2
Flags: W
LayerCount: 2
Fore
SplineSet
360 120 m 1
 480 120 l 1
 480 0 l 1
 360 0 l 1
 240 0 l 1
 120 0 l 1
 0 0 l 1
 0 120 l 1
 120 120 l 1
 240 120 l 1
 360 120 l 1
480 120 m 1
 480 240 l 1
 600 240 l 1
 600 120 l 1
 480 120 l 1
480 240 m 1
 360 240 l 1
 240 240 l 1
 120 240 l 1
 120 360 l 1
 240 360 l 1
 360 360 l 1
 480 360 l 1
 480 240 l 1
480 360 m 1
 480 480 l 1
 600 480 l 1
 600 360 l 1
 480 360 l 1
120 360 m 1
 0 360 l 1
 0 480 l 1
 120 480 l 1
 120 360 l 1
480 480 m 1
 360 480 l 1
 240 480 l 1
 120 480 l 1
 120 600 l 1
 240 600 l 1
 360 600 l 1
 480 600 l 1
 480 480 l 1
120 600 m 1
 0 600 l 1
 0 720 l 1
 120 720 l 1
 120 600 l 1
480 840 m 1
 600 840 l 1
 600 720 l 1
 480 720 l 1
 360 720 l 1
 240 720 l 1
 120 720 l 1
 120 840 l 1
 240 840 l 1
 360 840 l 1
 480 840 l 1
EndSplineSet
EndChar

StartChar: dieresis
Encoding: 168 168 104
Width: 720
GlyphClass: 2
Flags: W
LayerCount: 2
Fore
SplineSet
240 720 m 1
 240 840 l 1
 360 840 l 1
 360 720 l 1
 240 720 l 1
0 720 m 1
 0 840 l 1
 120 840 l 1
 120 720 l 1
 0 720 l 1
EndSplineSet
EndChar

StartChar: copyright
Encoding: 169 169 105
Width: 720
GlyphClass: 2
Flags: W
LayerCount: 2
Fore
SplineSet
480 120 m 1
 600 120 l 1
 600 0 l 1
 480 0 l 1
 360 0 l 1
 240 0 l 1
 120 0 l 1
 120 120 l 1
 240 120 l 1
 360 120 l 1
 480 120 l 1
600 120 m 1
 600 240 l 1
 600 360 l 1
 600 480 l 1
 600 600 l 1
 600 720 l 1
 720 720 l 1
 720 600 l 1
 720 480 l 1
 720 360 l 1
 720 240 l 1
 720 120 l 1
 600 120 l 1
120 120 m 1
 0 120 l 1
 0 240 l 1
 0 360 l 1
 0 480 l 1
 0 600 l 1
 0 720 l 1
 120 720 l 1
 120 600 l 1
 120 480 l 1
 120 360 l 1
 120 240 l 1
 120 120 l 1
360 240 m 1
 240 240 l 1
 240 360 l 1
 240 480 l 1
 240 600 l 1
 360 600 l 1
 480 600 l 1
 480 480 l 1
 360 480 l 1
 360 360 l 1
 480 360 l 1
 480 240 l 1
 360 240 l 1
600 720 m 1
 480 720 l 1
 360 720 l 1
 240 720 l 1
 120 720 l 1
 120 840 l 1
 240 840 l 1
 360 840 l 1
 480 840 l 1
 600 840 l 1
 600 720 l 1
EndSplineSet
EndChar

StartChar: ordfeminine
Encoding: 170 170 106
Width: 720
GlyphClass: 2
Flags: W
LayerCount: 2
Fore
SplineSet
360 240 m 1
 480 240 l 1
 480 120 l 1
 360 120 l 1
 240 120 l 1
 120 120 l 1
 0 120 l 1
 0 240 l 1
 120 240 l 1
 240 240 l 1
 360 240 l 1
360 360 m 1
 240 360 l 1
 120 360 l 1
 120 480 l 1
 0 480 l 1
 0 600 l 1
 120 600 l 1
 240 600 l 1
 360 600 l 1
 360 720 l 1
 480 720 l 1
 480 600 l 1
 480 480 l 1
 480 360 l 1
 360 360 l 1
360 720 m 1
 240 720 l 1
 120 720 l 1
 120 840 l 1
 240 840 l 1
 360 840 l 1
 360 720 l 1
EndSplineSet
EndChar

StartChar: guillemotleft
Encoding: 171 171 107
Width: 720
GlyphClass: 2
Flags: W
LayerCount: 2
Fore
SplineSet
600 120 m 1
 600 240 l 1
 720 240 l 1
 720 120 l 1
 600 120 l 1
240 120 m 1
 240 240 l 1
 360 240 l 1
 360 120 l 1
 240 120 l 1
600 240 m 1
 480 240 l 1
 480 360 l 1
 600 360 l 1
 600 240 l 1
240 240 m 1
 120 240 l 1
 120 360 l 1
 240 360 l 1
 240 240 l 1
480 360 m 1
 360 360 l 1
 360 480 l 1
 480 480 l 1
 480 360 l 1
120 360 m 1
 0 360 l 1
 0 480 l 1
 120 480 l 1
 120 360 l 1
480 480 m 1
 480 600 l 1
 600 600 l 1
 600 480 l 1
 480 480 l 1
120 480 m 1
 120 600 l 1
 240 600 l 1
 240 480 l 1
 120 480 l 1
600 600 m 1
 600 720 l 1
 720 720 l 1
 720 600 l 1
 600 600 l 1
240 600 m 1
 240 720 l 1
 360 720 l 1
 360 600 l 1
 240 600 l 1
EndSplineSet
EndChar

StartChar: logicalnot
Encoding: 172 172 108
Width: 720
GlyphClass: 2
Flags: W
LayerCount: 2
Fore
SplineSet
480 120 m 1
 480 240 l 1
 480 360 l 1
 360 360 l 1
 240 360 l 1
 120 360 l 1
 0 360 l 1
 0 480 l 1
 120 480 l 1
 240 480 l 1
 360 480 l 1
 480 480 l 1
 600 480 l 1
 600 360 l 1
 600 240 l 1
 600 120 l 1
 480 120 l 1
EndSplineSet
EndChar

StartChar: registered
Encoding: 174 174 109
Width: 720
GlyphClass: 2
Flags: W
LayerCount: 2
Fore
SplineSet
240 240 m 1
 240 360 l 1
 240 480 l 1
 240 600 l 1
 360 600 l 1
 480 600 l 1
 480 480 l 1
 480 360 l 1
 600 360 l 1
 600 480 l 1
 600 600 l 1
 600 720 l 1
 720 720 l 1
 720 600 l 1
 720 480 l 1
 720 360 l 1
 720 240 l 1
 720 120 l 1
 600 120 l 1
 600 0 l 1
 480 0 l 1
 360 0 l 1
 240 0 l 1
 120 0 l 1
 120 120 l 1
 240 120 l 1
 360 120 l 1
 480 120 l 1
 600 120 l 1
 600 240 l 1
 480 240 l 1
 480 360 l 1
 360 360 l 1
 360 240 l 1
 240 240 l 1
120 120 m 1
 0 120 l 1
 0 240 l 1
 0 360 l 1
 0 480 l 1
 0 600 l 1
 0 720 l 1
 120 720 l 1
 120 600 l 1
 120 480 l 1
 120 360 l 1
 120 240 l 1
 120 120 l 1
600 720 m 1
 480 720 l 1
 360 720 l 1
 240 720 l 1
 120 720 l 1
 120 840 l 1
 240 840 l 1
 360 840 l 1
 480 840 l 1
 600 840 l 1
 600 720 l 1
EndSplineSet
EndChar

StartChar: macron
Encoding: 175 175 110
Width: 720
GlyphClass: 2
Flags: W
LayerCount: 2
Fore
SplineSet
480 840 m 1
 600 840 l 1
 600 720 l 1
 480 720 l 1
 360 720 l 1
 240 720 l 1
 120 720 l 1
 0 720 l 1
 0 840 l 1
 120 840 l 1
 240 840 l 1
 360 840 l 1
 480 840 l 1
EndSplineSet
EndChar

StartChar: degree
Encoding: 176 176 111
Width: 720
GlyphClass: 2
Flags: W
LayerCount: 2
Fore
SplineSet
240 480 m 1
 360 480 l 1
 360 360 l 1
 240 360 l 1
 120 360 l 1
 120 480 l 1
 240 480 l 1
360 480 m 1
 360 600 l 1
 360 720 l 1
 480 720 l 1
 480 600 l 1
 480 480 l 1
 360 480 l 1
120 480 m 1
 0 480 l 1
 0 600 l 1
 0 720 l 1
 120 720 l 1
 120 600 l 1
 120 480 l 1
360 720 m 1
 240 720 l 1
 120 720 l 1
 120 840 l 1
 240 840 l 1
 360 840 l 1
 360 720 l 1
EndSplineSet
EndChar

StartChar: plusminus
Encoding: 177 177 112
Width: 720
GlyphClass: 2
Flags: W
LayerCount: 2
Fore
SplineSet
240 240 m 1
 240 360 l 1
 240 480 l 1
 120 480 l 1
 0 480 l 1
 0 600 l 1
 120 600 l 1
 240 600 l 1
 240 720 l 1
 240 840 l 1
 360 840 l 1
 360 720 l 1
 360 600 l 1
 480 600 l 1
 600 600 l 1
 600 480 l 1
 480 480 l 1
 360 480 l 1
 360 360 l 1
 360 240 l 1
 240 240 l 1
480 120 m 1
 600 120 l 1
 600 0 l 1
 480 0 l 1
 360 0 l 1
 240 0 l 1
 120 0 l 1
 0 0 l 1
 0 120 l 1
 120 120 l 1
 240 120 l 1
 360 120 l 1
 480 120 l 1
EndSplineSet
EndChar

StartChar: uni00B2
Encoding: 178 178 113
Width: 720
GlyphClass: 2
Flags: W
LayerCount: 2
Fore
SplineSet
0 600 m 1
 0 720 l 1
 120 720 l 1
 120 600 l 1
 0 600 l 1
360 360 m 1
 480 360 l 1
 480 240 l 1
 360 240 l 1
 240 240 l 1
 120 240 l 1
 0 240 l 1
 0 360 l 1
 120 360 l 1
 120 480 l 1
 240 480 l 1
 240 360 l 1
 360 360 l 1
240 480 m 1
 240 600 l 1
 360 600 l 1
 360 480 l 1
 240 480 l 1
360 600 m 1
 360 720 l 1
 480 720 l 1
 480 600 l 1
 360 600 l 1
360 720 m 1
 240 720 l 1
 120 720 l 1
 120 840 l 1
 240 840 l 1
 360 840 l 1
 360 720 l 1
EndSplineSet
EndChar

StartChar: uni00B3
Encoding: 179 179 114
Width: 720
GlyphClass: 2
Flags: W
LayerCount: 2
Fore
SplineSet
0 600 m 1
 0 720 l 1
 120 720 l 1
 120 600 l 1
 0 600 l 1
240 360 m 1
 360 360 l 1
 360 240 l 1
 240 240 l 1
 120 240 l 1
 120 360 l 1
 240 360 l 1
360 360 m 1
 360 480 l 1
 480 480 l 1
 480 360 l 1
 360 360 l 1
120 360 m 1
 0 360 l 1
 0 480 l 1
 120 480 l 1
 120 360 l 1
360 480 m 1
 240 480 l 1
 240 600 l 1
 360 600 l 1
 360 480 l 1
360 600 m 1
 360 720 l 1
 480 720 l 1
 480 600 l 1
 360 600 l 1
360 720 m 1
 240 720 l 1
 120 720 l 1
 120 840 l 1
 240 840 l 1
 360 840 l 1
 360 720 l 1
EndSplineSet
EndChar

StartChar: acute
Encoding: 180 180 115
Width: 720
GlyphClass: 2
Flags: W
LayerCount: 2
Fore
SplineSet
120 600 m 1
 120 720 l 1
 240 720 l 1
 240 600 l 1
 120 600 l 1
240 720 m 1
 240 840 l 1
 360 840 l 1
 360 720 l 1
 240 720 l 1
EndSplineSet
EndChar

StartChar: uni00B5
Encoding: 181 181 116
Width: 720
GlyphClass: 2
Flags: W
LayerCount: 2
Fore
SplineSet
0 -120 m 1
 0 0 l 1
 0 120 l 1
 0 240 l 1
 0 360 l 1
 0 480 l 1
 0 600 l 1
 120 600 l 1
 120 480 l 1
 120 360 l 1
 120 240 l 1
 120 120 l 1
 240 120 l 1
 360 120 l 1
 480 120 l 1
 480 0 l 1
 360 0 l 1
 240 0 l 1
 120 0 l 1
 120 -120 l 1
 0 -120 l 1
480 120 m 1
 480 240 l 1
 480 360 l 1
 480 480 l 1
 480 600 l 1
 600 600 l 1
 600 480 l 1
 600 360 l 1
 600 240 l 1
 600 120 l 1
 480 120 l 1
EndSplineSet
EndChar

StartChar: paragraph
Encoding: 182 182 117
Width: 720
GlyphClass: 2
Flags: W
LayerCount: 2
Fore
SplineSet
480 0 m 1
 480 120 l 1
 480 240 l 1
 480 360 l 1
 480 480 l 1
 480 600 l 1
 480 720 l 1
 360 720 l 1
 360 600 l 1
 360 480 l 1
 360 360 l 1
 360 240 l 1
 360 120 l 1
 360 0 l 1
 240 0 l 1
 240 120 l 1
 240 240 l 1
 240 360 l 1
 120 360 l 1
 120 480 l 1
 0 480 l 1
 0 600 l 1
 120 600 l 1
 120 720 l 1
 240 720 l 1
 240 840 l 1
 360 840 l 1
 480 840 l 1
 600 840 l 1
 720 840 l 1
 720 720 l 1
 600 720 l 1
 600 600 l 1
 600 480 l 1
 600 360 l 1
 600 240 l 1
 600 120 l 1
 600 0 l 1
 480 0 l 1
EndSplineSet
EndChar

StartChar: periodcentered
Encoding: 183 183 118
Width: 720
GlyphClass: 2
Flags: W
LayerCount: 2
Fore
SplineSet
240 360 m 1
 240 480 l 1
 360 480 l 1
 360 360 l 1
 240 360 l 1
EndSplineSet
EndChar

StartChar: cedilla
Encoding: 184 184 119
Width: 720
GlyphClass: 2
Flags: W
LayerCount: 2
Fore
SplineSet
120 0 m 1
 240 0 l 1
 240 -120 l 1
 120 -120 l 1
 0 -120 l 1
 0 0 l 1
 120 0 l 1
240 0 m 1
 240 120 l 1
 360 120 l 1
 360 0 l 1
 240 0 l 1
240 120 m 1
 120 120 l 1
 120 240 l 1
 240 240 l 1
 240 120 l 1
EndSplineSet
EndChar

StartChar: uni00B9
Encoding: 185 185 120
Width: 720
GlyphClass: 2
Flags: W
LayerCount: 2
Fore
SplineSet
240 240 m 1
 120 240 l 1
 0 240 l 1
 0 360 l 1
 120 360 l 1
 120 480 l 1
 120 600 l 1
 0 600 l 1
 0 720 l 1
 120 720 l 1
 120 840 l 1
 240 840 l 1
 240 720 l 1
 240 600 l 1
 240 480 l 1
 240 360 l 1
 360 360 l 1
 360 240 l 1
 240 240 l 1
EndSplineSet
EndChar

StartChar: ordmasculine
Encoding: 186 186 121
Width: 720
GlyphClass: 2
Flags: W
LayerCount: 2
Fore
SplineSet
360 240 m 1
 480 240 l 1
 480 120 l 1
 360 120 l 1
 240 120 l 1
 120 120 l 1
 0 120 l 1
 0 240 l 1
 120 240 l 1
 240 240 l 1
 360 240 l 1
240 480 m 1
 360 480 l 1
 360 360 l 1
 240 360 l 1
 120 360 l 1
 120 480 l 1
 240 480 l 1
360 480 m 1
 360 600 l 1
 360 720 l 1
 480 720 l 1
 480 600 l 1
 480 480 l 1
 360 480 l 1
120 480 m 1
 0 480 l 1
 0 600 l 1
 0 720 l 1
 120 720 l 1
 120 600 l 1
 120 480 l 1
360 720 m 1
 240 720 l 1
 120 720 l 1
 120 840 l 1
 240 840 l 1
 360 840 l 1
 360 720 l 1
EndSplineSet
EndChar

StartChar: guillemotright
Encoding: 187 187 122
Width: 720
GlyphClass: 2
Flags: W
LayerCount: 2
Fore
SplineSet
360 120 m 1
 360 240 l 1
 480 240 l 1
 480 120 l 1
 360 120 l 1
0 120 m 1
 0 240 l 1
 120 240 l 1
 120 120 l 1
 0 120 l 1
480 240 m 1
 480 360 l 1
 600 360 l 1
 600 240 l 1
 480 240 l 1
120 240 m 1
 120 360 l 1
 240 360 l 1
 240 240 l 1
 120 240 l 1
600 360 m 1
 600 480 l 1
 720 480 l 1
 720 360 l 1
 600 360 l 1
240 360 m 1
 240 480 l 1
 360 480 l 1
 360 360 l 1
 240 360 l 1
600 480 m 1
 480 480 l 1
 480 600 l 1
 600 600 l 1
 600 480 l 1
240 480 m 1
 120 480 l 1
 120 600 l 1
 240 600 l 1
 240 480 l 1
480 600 m 1
 360 600 l 1
 360 720 l 1
 480 720 l 1
 480 600 l 1
120 600 m 1
 0 600 l 1
 0 720 l 1
 120 720 l 1
 120 600 l 1
EndSplineSet
EndChar

StartChar: onequarter
Encoding: 188 188 123
Width: 720
GlyphClass: 2
Flags: W
LayerCount: 2
Fore
SplineSet
600 0 m 1
 600 120 l 1
 480 120 l 1
 360 120 l 1
 360 240 l 1
 360 360 l 1
 480 360 l 1
 480 480 l 1
 600 480 l 1
 720 480 l 1
 720 360 l 1
 720 240 l 1
 720 120 l 1
 720 0 l 1
 600 0 l 1
0 0 m 1
 0 120 l 1
 120 120 l 1
 120 0 l 1
 0 0 l 1
120 120 m 1
 120 240 l 1
 120 360 l 1
 240 360 l 1
 240 240 l 1
 240 120 l 1
 120 120 l 1
600 240 m 1
 600 360 l 1
 480 360 l 1
 480 240 l 1
 600 240 l 1
360 360 m 1
 240 360 l 1
 240 480 l 1
 360 480 l 1
 360 360 l 1
480 480 m 1
 360 480 l 1
 360 600 l 1
 360 720 l 1
 480 720 l 1
 480 600 l 1
 480 480 l 1
240 480 m 1
 120 480 l 1
 120 600 l 1
 120 720 l 1
 0 720 l 1
 0 840 l 1
 120 840 l 1
 120 960 l 1
 240 960 l 1
 240 840 l 1
 240 720 l 1
 240 600 l 1
 240 480 l 1
480 720 m 1
 480 840 l 1
 600 840 l 1
 600 720 l 1
 480 720 l 1
EndSplineSet
EndChar

StartChar: onehalf
Encoding: 189 189 124
Width: 720
GlyphClass: 2
Flags: W
LayerCount: 2
Fore
SplineSet
0 0 m 1
 0 120 l 1
 120 120 l 1
 120 0 l 1
 0 0 l 1
600 0 m 1
 480 0 l 1
 480 120 l 1
 480 240 l 1
 600 240 l 1
 600 120 l 1
 720 120 l 1
 720 0 l 1
 600 0 l 1
120 120 m 1
 120 240 l 1
 120 360 l 1
 240 360 l 1
 240 240 l 1
 240 120 l 1
 120 120 l 1
600 240 m 1
 600 360 l 1
 480 360 l 1
 480 480 l 1
 600 480 l 1
 720 480 l 1
 720 360 l 1
 720 240 l 1
 600 240 l 1
240 360 m 1
 240 480 l 1
 360 480 l 1
 360 360 l 1
 240 360 l 1
480 480 m 1
 360 480 l 1
 360 600 l 1
 360 720 l 1
 480 720 l 1
 480 600 l 1
 480 480 l 1
240 480 m 1
 120 480 l 1
 120 600 l 1
 120 720 l 1
 0 720 l 1
 0 840 l 1
 120 840 l 1
 120 960 l 1
 240 960 l 1
 240 840 l 1
 240 720 l 1
 240 600 l 1
 240 480 l 1
480 720 m 1
 480 840 l 1
 600 840 l 1
 600 720 l 1
 480 720 l 1
EndSplineSet
EndChar

StartChar: threequarters
Encoding: 190 190 125
Width: 720
GlyphClass: 2
Flags: W
LayerCount: 2
Fore
SplineSet
600 0 m 1
 600 120 l 1
 480 120 l 1
 360 120 l 1
 360 240 l 1
 360 360 l 1
 480 360 l 1
 480 480 l 1
 600 480 l 1
 720 480 l 1
 720 360 l 1
 720 240 l 1
 720 120 l 1
 720 0 l 1
 600 0 l 1
0 0 m 1
 0 120 l 1
 120 120 l 1
 120 0 l 1
 0 0 l 1
120 120 m 1
 120 240 l 1
 120 360 l 1
 240 360 l 1
 240 240 l 1
 240 120 l 1
 120 120 l 1
600 240 m 1
 600 360 l 1
 480 360 l 1
 480 240 l 1
 600 240 l 1
360 360 m 1
 240 360 l 1
 240 480 l 1
 360 480 l 1
 360 360 l 1
480 480 m 1
 360 480 l 1
 360 600 l 1
 240 600 l 1
 240 480 l 1
 120 480 l 1
 0 480 l 1
 0 600 l 1
 120 600 l 1
 240 600 l 1
 240 720 l 1
 360 720 l 1
 480 720 l 1
 480 600 l 1
 480 480 l 1
480 720 m 1
 480 840 l 1
 600 840 l 1
 600 720 l 1
 480 720 l 1
240 720 m 1
 120 720 l 1
 120 840 l 1
 0 840 l 1
 0 960 l 1
 120 960 l 1
 240 960 l 1
 360 960 l 1
 360 840 l 1
 240 840 l 1
 240 720 l 1
EndSplineSet
EndChar

StartChar: questiondown
Encoding: 191 191 126
Width: 720
GlyphClass: 2
Flags: W
LayerCount: 2
Fore
SplineSet
240 600 m 1
 240 720 l 1
 360 720 l 1
 360 600 l 1
 240 600 l 1
360 0 m 1
 480 0 l 1
 480 -120 l 1
 360 -120 l 1
 240 -120 l 1
 120 -120 l 1
 120 0 l 1
 240 0 l 1
 360 0 l 1
480 0 m 1
 480 120 l 1
 600 120 l 1
 600 0 l 1
 480 0 l 1
120 0 m 1
 0 0 l 1
 0 120 l 1
 0 240 l 1
 120 240 l 1
 120 120 l 1
 120 0 l 1
120 240 m 1
 120 360 l 1
 240 360 l 1
 240 240 l 1
 120 240 l 1
240 360 m 1
 240 480 l 1
 360 480 l 1
 360 360 l 1
 240 360 l 1
EndSplineSet
EndChar

StartChar: Agrave
Encoding: 192 192 127
Width: 720
GlyphClass: 2
Flags: W
LayerCount: 2
Fore
SplineSet
480 0 m 1
 480 120 l 1
 480 240 l 1
 480 360 l 1
 480 480 l 1
 360 480 l 1
 240 480 l 1
 120 480 l 1
 120 360 l 1
 120 240 l 1
 120 120 l 1
 120 0 l 1
 0 0 l 1
 0 120 l 1
 0 240 l 1
 0 360 l 1
 0 480 l 1
 0 600 l 1
 0 720 l 1
 120 720 l 1
 120 600 l 1
 240 600 l 1
 360 600 l 1
 480 600 l 1
 480 720 l 1
 600 720 l 1
 600 600 l 1
 600 480 l 1
 600 360 l 1
 600 240 l 1
 600 120 l 1
 600 0 l 1
 480 0 l 1
240 960 m 1
 240 1080 l 1
 360 1080 l 1
 360 960 l 1
 240 960 l 1
480 720 m 1
 360 720 l 1
 240 720 l 1
 120 720 l 1
 120 840 l 1
 240 840 l 1
 360 840 l 1
 480 840 l 1
 480 720 l 1
240 1080 m 1
 120 1080 l 1
 120 1200 l 1
 240 1200 l 1
 240 1080 l 1
EndSplineSet
EndChar

StartChar: Aacute
Encoding: 193 193 128
Width: 720
GlyphClass: 2
Flags: W
LayerCount: 2
Fore
SplineSet
480 0 m 1
 480 120 l 1
 480 240 l 1
 480 360 l 1
 480 480 l 1
 360 480 l 1
 240 480 l 1
 120 480 l 1
 120 360 l 1
 120 240 l 1
 120 120 l 1
 120 0 l 1
 0 0 l 1
 0 120 l 1
 0 240 l 1
 0 360 l 1
 0 480 l 1
 0 600 l 1
 0 720 l 1
 120 720 l 1
 120 600 l 1
 240 600 l 1
 360 600 l 1
 480 600 l 1
 480 720 l 1
 600 720 l 1
 600 600 l 1
 600 480 l 1
 600 360 l 1
 600 240 l 1
 600 120 l 1
 600 0 l 1
 480 0 l 1
240 960 m 1
 240 1080 l 1
 360 1080 l 1
 360 960 l 1
 240 960 l 1
480 720 m 1
 360 720 l 1
 240 720 l 1
 120 720 l 1
 120 840 l 1
 240 840 l 1
 360 840 l 1
 480 840 l 1
 480 720 l 1
360 1080 m 1
 360 1200 l 1
 480 1200 l 1
 480 1080 l 1
 360 1080 l 1
EndSplineSet
EndChar

StartChar: Acircumflex
Encoding: 194 194 129
Width: 720
GlyphClass: 2
Flags: W
LayerCount: 2
Fore
SplineSet
480 0 m 1
 480 120 l 1
 480 240 l 1
 480 360 l 1
 480 480 l 1
 360 480 l 1
 240 480 l 1
 120 480 l 1
 120 360 l 1
 120 240 l 1
 120 120 l 1
 120 0 l 1
 0 0 l 1
 0 120 l 1
 0 240 l 1
 0 360 l 1
 0 480 l 1
 0 600 l 1
 0 720 l 1
 120 720 l 1
 120 600 l 1
 240 600 l 1
 360 600 l 1
 480 600 l 1
 480 720 l 1
 600 720 l 1
 600 600 l 1
 600 480 l 1
 600 360 l 1
 600 240 l 1
 600 120 l 1
 600 0 l 1
 480 0 l 1
360 960 m 1
 360 1080 l 1
 480 1080 l 1
 480 960 l 1
 360 960 l 1
120 960 m 1
 120 1080 l 1
 240 1080 l 1
 240 960 l 1
 120 960 l 1
480 720 m 1
 360 720 l 1
 240 720 l 1
 120 720 l 1
 120 840 l 1
 240 840 l 1
 360 840 l 1
 480 840 l 1
 480 720 l 1
360 1080 m 1
 240 1080 l 1
 240 1200 l 1
 360 1200 l 1
 360 1080 l 1
EndSplineSet
EndChar

StartChar: Atilde
Encoding: 195 195 130
Width: 720
GlyphClass: 2
Flags: W
LayerCount: 2
Fore
SplineSet
480 0 m 1
 480 120 l 1
 480 240 l 1
 480 360 l 1
 480 480 l 1
 360 480 l 1
 240 480 l 1
 120 480 l 1
 120 360 l 1
 120 240 l 1
 120 120 l 1
 120 0 l 1
 0 0 l 1
 0 120 l 1
 0 240 l 1
 0 360 l 1
 0 480 l 1
 0 600 l 1
 0 720 l 1
 120 720 l 1
 120 600 l 1
 240 600 l 1
 360 600 l 1
 480 600 l 1
 480 720 l 1
 600 720 l 1
 600 600 l 1
 600 480 l 1
 600 360 l 1
 600 240 l 1
 600 120 l 1
 600 0 l 1
 480 0 l 1
360 960 m 1
 360 1080 l 1
 480 1080 l 1
 480 960 l 1
 360 960 l 1
120 960 m 1
 120 1080 l 1
 240 1080 l 1
 240 960 l 1
 120 960 l 1
480 720 m 1
 360 720 l 1
 240 720 l 1
 120 720 l 1
 120 840 l 1
 240 840 l 1
 360 840 l 1
 480 840 l 1
 480 720 l 1
480 1080 m 1
 480 1200 l 1
 600 1200 l 1
 600 1080 l 1
 480 1080 l 1
360 1080 m 1
 240 1080 l 1
 240 1200 l 1
 360 1200 l 1
 360 1080 l 1
EndSplineSet
EndChar

StartChar: Adieresis
Encoding: 196 196 131
Width: 720
GlyphClass: 2
Flags: W
LayerCount: 2
Fore
SplineSet
480 0 m 1
 480 120 l 1
 480 240 l 1
 480 360 l 1
 480 480 l 1
 360 480 l 1
 240 480 l 1
 120 480 l 1
 120 360 l 1
 120 240 l 1
 120 120 l 1
 120 0 l 1
 0 0 l 1
 0 120 l 1
 0 240 l 1
 0 360 l 1
 0 480 l 1
 0 600 l 1
 0 720 l 1
 120 720 l 1
 120 600 l 1
 240 600 l 1
 360 600 l 1
 480 600 l 1
 480 720 l 1
 600 720 l 1
 600 600 l 1
 600 480 l 1
 600 360 l 1
 600 240 l 1
 600 120 l 1
 600 0 l 1
 480 0 l 1
360 960 m 1
 360 1080 l 1
 480 1080 l 1
 480 960 l 1
 360 960 l 1
120 960 m 1
 120 1080 l 1
 240 1080 l 1
 240 960 l 1
 120 960 l 1
480 720 m 1
 360 720 l 1
 240 720 l 1
 120 720 l 1
 120 840 l 1
 240 840 l 1
 360 840 l 1
 480 840 l 1
 480 720 l 1
EndSplineSet
EndChar

StartChar: Aring
Encoding: 197 197 132
Width: 720
GlyphClass: 2
Flags: W
LayerCount: 2
Fore
SplineSet
480 0 m 1
 480 120 l 1
 480 240 l 1
 480 360 l 1
 480 480 l 1
 360 480 l 1
 240 480 l 1
 120 480 l 1
 120 360 l 1
 120 240 l 1
 120 120 l 1
 120 0 l 1
 0 0 l 1
 0 120 l 1
 0 240 l 1
 0 360 l 1
 0 480 l 1
 0 600 l 1
 0 720 l 1
 120 720 l 1
 120 600 l 1
 240 600 l 1
 360 600 l 1
 480 600 l 1
 480 720 l 1
 600 720 l 1
 600 600 l 1
 600 480 l 1
 600 360 l 1
 600 240 l 1
 600 120 l 1
 600 0 l 1
 480 0 l 1
480 720 m 1
 360 720 l 1
 240 720 l 1
 120 720 l 1
 120 840 l 1
 240 840 l 1
 240 960 l 1
 360 960 l 1
 360 840 l 1
 480 840 l 1
 480 720 l 1
360 960 m 1
 360 1080 l 1
 480 1080 l 1
 480 960 l 1
 360 960 l 1
240 960 m 1
 120 960 l 1
 120 1080 l 1
 240 1080 l 1
 240 960 l 1
360 1080 m 1
 240 1080 l 1
 240 1200 l 1
 360 1200 l 1
 360 1080 l 1
EndSplineSet
EndChar

StartChar: AE
Encoding: 198 198 133
Width: 720
GlyphClass: 2
Flags: W
LayerCount: 2
Fore
SplineSet
0 0 m 1
 0 120 l 1
 0 240 l 1
 0 360 l 1
 0 480 l 1
 0 600 l 1
 0 720 l 1
 120 720 l 1
 120 840 l 1
 240 840 l 1
 360 840 l 1
 480 840 l 1
 600 840 l 1
 600 720 l 1
 480 720 l 1
 360 720 l 1
 360 600 l 1
 480 600 l 1
 480 480 l 1
 360 480 l 1
 360 360 l 1
 360 240 l 1
 360 120 l 1
 480 120 l 1
 600 120 l 1
 600 0 l 1
 480 0 l 1
 360 0 l 1
 240 0 l 1
 240 120 l 1
 240 240 l 1
 240 360 l 1
 240 480 l 1
 120 480 l 1
 120 360 l 1
 120 240 l 1
 120 120 l 1
 120 0 l 1
 0 0 l 1
240 600 m 1
 240 720 l 1
 120 720 l 1
 120 600 l 1
 240 600 l 1
EndSplineSet
EndChar

StartChar: Ccedilla
Encoding: 199 199 134
Width: 720
GlyphClass: 2
Flags: W
LayerCount: 2
Fore
SplineSet
240 -240 m 1
 240 -120 l 1
 360 -120 l 1
 360 -240 l 1
 240 -240 l 1
480 600 m 1
 480 720 l 1
 600 720 l 1
 600 600 l 1
 480 600 l 1
360 -120 m 1
 360 0 l 1
 240 0 l 1
 120 0 l 1
 120 120 l 1
 240 120 l 1
 360 120 l 1
 480 120 l 1
 480 0 l 1
 480 -120 l 1
 360 -120 l 1
480 120 m 1
 480 240 l 1
 600 240 l 1
 600 120 l 1
 480 120 l 1
120 120 m 1
 0 120 l 1
 0 240 l 1
 0 360 l 1
 0 480 l 1
 0 600 l 1
 0 720 l 1
 120 720 l 1
 120 600 l 1
 120 480 l 1
 120 360 l 1
 120 240 l 1
 120 120 l 1
480 720 m 1
 360 720 l 1
 240 720 l 1
 120 720 l 1
 120 840 l 1
 240 840 l 1
 360 840 l 1
 480 840 l 1
 480 720 l 1
EndSplineSet
EndChar

StartChar: Egrave
Encoding: 200 200 135
Width: 720
GlyphClass: 2
Flags: W
LayerCount: 2
Fore
SplineSet
240 960 m 1
 240 1080 l 1
 360 1080 l 1
 360 960 l 1
 240 960 l 1
480 120 m 1
 600 120 l 1
 600 0 l 1
 480 0 l 1
 360 0 l 1
 240 0 l 1
 120 0 l 1
 0 0 l 1
 0 120 l 1
 0 240 l 1
 0 360 l 1
 0 480 l 1
 0 600 l 1
 0 720 l 1
 0 840 l 1
 120 840 l 1
 240 840 l 1
 360 840 l 1
 480 840 l 1
 600 840 l 1
 600 720 l 1
 480 720 l 1
 360 720 l 1
 240 720 l 1
 120 720 l 1
 120 600 l 1
 240 600 l 1
 360 600 l 1
 360 480 l 1
 240 480 l 1
 120 480 l 1
 120 360 l 1
 120 240 l 1
 120 120 l 1
 240 120 l 1
 360 120 l 1
 480 120 l 1
240 1080 m 1
 120 1080 l 1
 120 1200 l 1
 240 1200 l 1
 240 1080 l 1
EndSplineSet
EndChar

StartChar: Eacute
Encoding: 201 201 136
Width: 720
GlyphClass: 2
Flags: W
LayerCount: 2
Fore
SplineSet
240 960 m 1
 240 1080 l 1
 360 1080 l 1
 360 960 l 1
 240 960 l 1
480 120 m 1
 600 120 l 1
 600 0 l 1
 480 0 l 1
 360 0 l 1
 240 0 l 1
 120 0 l 1
 0 0 l 1
 0 120 l 1
 0 240 l 1
 0 360 l 1
 0 480 l 1
 0 600 l 1
 0 720 l 1
 0 840 l 1
 120 840 l 1
 240 840 l 1
 360 840 l 1
 480 840 l 1
 600 840 l 1
 600 720 l 1
 480 720 l 1
 360 720 l 1
 240 720 l 1
 120 720 l 1
 120 600 l 1
 240 600 l 1
 360 600 l 1
 360 480 l 1
 240 480 l 1
 120 480 l 1
 120 360 l 1
 120 240 l 1
 120 120 l 1
 240 120 l 1
 360 120 l 1
 480 120 l 1
360 1080 m 1
 360 1200 l 1
 480 1200 l 1
 480 1080 l 1
 360 1080 l 1
EndSplineSet
EndChar

StartChar: Ecircumflex
Encoding: 202 202 137
Width: 720
GlyphClass: 2
Flags: W
LayerCount: 2
Fore
SplineSet
360 960 m 1
 360 1080 l 1
 480 1080 l 1
 480 960 l 1
 360 960 l 1
120 960 m 1
 120 1080 l 1
 240 1080 l 1
 240 960 l 1
 120 960 l 1
480 120 m 1
 600 120 l 1
 600 0 l 1
 480 0 l 1
 360 0 l 1
 240 0 l 1
 120 0 l 1
 0 0 l 1
 0 120 l 1
 0 240 l 1
 0 360 l 1
 0 480 l 1
 0 600 l 1
 0 720 l 1
 0 840 l 1
 120 840 l 1
 240 840 l 1
 360 840 l 1
 480 840 l 1
 600 840 l 1
 600 720 l 1
 480 720 l 1
 360 720 l 1
 240 720 l 1
 120 720 l 1
 120 600 l 1
 240 600 l 1
 360 600 l 1
 360 480 l 1
 240 480 l 1
 120 480 l 1
 120 360 l 1
 120 240 l 1
 120 120 l 1
 240 120 l 1
 360 120 l 1
 480 120 l 1
360 1080 m 1
 240 1080 l 1
 240 1200 l 1
 360 1200 l 1
 360 1080 l 1
EndSplineSet
EndChar

StartChar: Edieresis
Encoding: 203 203 138
Width: 720
GlyphClass: 2
Flags: W
LayerCount: 2
Fore
SplineSet
360 960 m 1
 360 1080 l 1
 480 1080 l 1
 480 960 l 1
 360 960 l 1
120 960 m 1
 120 1080 l 1
 240 1080 l 1
 240 960 l 1
 120 960 l 1
480 120 m 1
 600 120 l 1
 600 0 l 1
 480 0 l 1
 360 0 l 1
 240 0 l 1
 120 0 l 1
 0 0 l 1
 0 120 l 1
 0 240 l 1
 0 360 l 1
 0 480 l 1
 0 600 l 1
 0 720 l 1
 0 840 l 1
 120 840 l 1
 240 840 l 1
 360 840 l 1
 480 840 l 1
 600 840 l 1
 600 720 l 1
 480 720 l 1
 360 720 l 1
 240 720 l 1
 120 720 l 1
 120 600 l 1
 240 600 l 1
 360 600 l 1
 360 480 l 1
 240 480 l 1
 120 480 l 1
 120 360 l 1
 120 240 l 1
 120 120 l 1
 240 120 l 1
 360 120 l 1
 480 120 l 1
EndSplineSet
EndChar

StartChar: Igrave
Encoding: 204 204 139
Width: 720
GlyphClass: 2
Flags: W
LayerCount: 2
Fore
SplineSet
240 960 m 1
 240 1080 l 1
 360 1080 l 1
 360 960 l 1
 240 960 l 1
360 0 m 1
 240 0 l 1
 120 0 l 1
 120 120 l 1
 240 120 l 1
 240 240 l 1
 240 360 l 1
 240 480 l 1
 240 600 l 1
 240 720 l 1
 120 720 l 1
 120 840 l 1
 240 840 l 1
 360 840 l 1
 480 840 l 1
 480 720 l 1
 360 720 l 1
 360 600 l 1
 360 480 l 1
 360 360 l 1
 360 240 l 1
 360 120 l 1
 480 120 l 1
 480 0 l 1
 360 0 l 1
240 1080 m 1
 120 1080 l 1
 120 1200 l 1
 240 1200 l 1
 240 1080 l 1
EndSplineSet
EndChar

StartChar: Iacute
Encoding: 205 205 140
Width: 720
GlyphClass: 2
Flags: W
LayerCount: 2
Fore
SplineSet
240 960 m 1
 240 1080 l 1
 360 1080 l 1
 360 960 l 1
 240 960 l 1
360 0 m 1
 240 0 l 1
 120 0 l 1
 120 120 l 1
 240 120 l 1
 240 240 l 1
 240 360 l 1
 240 480 l 1
 240 600 l 1
 240 720 l 1
 120 720 l 1
 120 840 l 1
 240 840 l 1
 360 840 l 1
 480 840 l 1
 480 720 l 1
 360 720 l 1
 360 600 l 1
 360 480 l 1
 360 360 l 1
 360 240 l 1
 360 120 l 1
 480 120 l 1
 480 0 l 1
 360 0 l 1
360 1080 m 1
 360 1200 l 1
 480 1200 l 1
 480 1080 l 1
 360 1080 l 1
EndSplineSet
EndChar

StartChar: Icircumflex
Encoding: 206 206 141
Width: 720
GlyphClass: 2
Flags: W
LayerCount: 2
Fore
SplineSet
360 960 m 1
 360 1080 l 1
 480 1080 l 1
 480 960 l 1
 360 960 l 1
120 960 m 1
 120 1080 l 1
 240 1080 l 1
 240 960 l 1
 120 960 l 1
360 0 m 1
 240 0 l 1
 120 0 l 1
 120 120 l 1
 240 120 l 1
 240 240 l 1
 240 360 l 1
 240 480 l 1
 240 600 l 1
 240 720 l 1
 120 720 l 1
 120 840 l 1
 240 840 l 1
 360 840 l 1
 480 840 l 1
 480 720 l 1
 360 720 l 1
 360 600 l 1
 360 480 l 1
 360 360 l 1
 360 240 l 1
 360 120 l 1
 480 120 l 1
 480 0 l 1
 360 0 l 1
360 1080 m 1
 240 1080 l 1
 240 1200 l 1
 360 1200 l 1
 360 1080 l 1
EndSplineSet
EndChar

StartChar: Idieresis
Encoding: 207 207 142
Width: 720
GlyphClass: 2
Flags: W
LayerCount: 2
Fore
SplineSet
360 960 m 1
 360 1080 l 1
 480 1080 l 1
 480 960 l 1
 360 960 l 1
120 960 m 1
 120 1080 l 1
 240 1080 l 1
 240 960 l 1
 120 960 l 1
360 0 m 1
 240 0 l 1
 120 0 l 1
 120 120 l 1
 240 120 l 1
 240 240 l 1
 240 360 l 1
 240 480 l 1
 240 600 l 1
 240 720 l 1
 120 720 l 1
 120 840 l 1
 240 840 l 1
 360 840 l 1
 480 840 l 1
 480 720 l 1
 360 720 l 1
 360 600 l 1
 360 480 l 1
 360 360 l 1
 360 240 l 1
 360 120 l 1
 480 120 l 1
 480 0 l 1
 360 0 l 1
EndSplineSet
EndChar

StartChar: Eth
Encoding: 208 208 143
Width: 720
GlyphClass: 2
Flags: W
LayerCount: 2
Fore
SplineSet
480 120 m 1
 600 120 l 1
 600 240 l 1
 600 360 l 1
 600 480 l 1
 600 600 l 1
 600 720 l 1
 480 720 l 1
 360 720 l 1
 240 720 l 1
 240 600 l 1
 360 600 l 1
 360 480 l 1
 240 480 l 1
 240 360 l 1
 240 240 l 1
 240 120 l 1
 360 120 l 1
 480 120 l 1
480 0 m 1
 360 0 l 1
 240 0 l 1
 120 0 l 1
 120 120 l 1
 120 240 l 1
 120 360 l 1
 120 480 l 1
 0 480 l 1
 0 600 l 1
 120 600 l 1
 120 720 l 1
 120 840 l 1
 240 840 l 1
 360 840 l 1
 480 840 l 1
 600 840 l 1
 600 720 l 1
 720 720 l 1
 720 600 l 1
 720 480 l 1
 720 360 l 1
 720 240 l 1
 720 120 l 1
 600 120 l 1
 600 0 l 1
 480 0 l 1
EndSplineSet
EndChar

StartChar: Ntilde
Encoding: 209 209 144
Width: 720
GlyphClass: 2
Flags: W
LayerCount: 2
Fore
SplineSet
480 0 m 1
 480 120 l 1
 480 240 l 1
 480 360 l 1
 360 360 l 1
 360 480 l 1
 480 480 l 1
 480 600 l 1
 480 720 l 1
 480 840 l 1
 600 840 l 1
 600 720 l 1
 600 600 l 1
 600 480 l 1
 600 360 l 1
 600 240 l 1
 600 120 l 1
 600 0 l 1
 480 0 l 1
0 0 m 1
 0 120 l 1
 0 240 l 1
 0 360 l 1
 0 480 l 1
 0 600 l 1
 0 720 l 1
 0 840 l 1
 120 840 l 1
 120 720 l 1
 240 720 l 1
 240 600 l 1
 360 600 l 1
 360 480 l 1
 240 480 l 1
 240 600 l 1
 120 600 l 1
 120 480 l 1
 120 360 l 1
 120 240 l 1
 120 120 l 1
 120 0 l 1
 0 0 l 1
360 960 m 1
 360 1080 l 1
 480 1080 l 1
 480 960 l 1
 360 960 l 1
120 960 m 1
 120 1080 l 1
 240 1080 l 1
 240 960 l 1
 120 960 l 1
480 1080 m 1
 480 1200 l 1
 600 1200 l 1
 600 1080 l 1
 480 1080 l 1
360 1080 m 1
 240 1080 l 1
 240 1200 l 1
 360 1200 l 1
 360 1080 l 1
EndSplineSet
EndChar

StartChar: Ograve
Encoding: 210 210 145
Width: 720
GlyphClass: 2
Flags: W
LayerCount: 2
Fore
SplineSet
240 960 m 1
 240 1080 l 1
 360 1080 l 1
 360 960 l 1
 240 960 l 1
360 120 m 1
 480 120 l 1
 480 0 l 1
 360 0 l 1
 240 0 l 1
 120 0 l 1
 120 120 l 1
 240 120 l 1
 360 120 l 1
480 120 m 1
 480 240 l 1
 480 360 l 1
 480 480 l 1
 480 600 l 1
 480 720 l 1
 600 720 l 1
 600 600 l 1
 600 480 l 1
 600 360 l 1
 600 240 l 1
 600 120 l 1
 480 120 l 1
120 120 m 1
 0 120 l 1
 0 240 l 1
 0 360 l 1
 0 480 l 1
 0 600 l 1
 0 720 l 1
 120 720 l 1
 120 600 l 1
 120 480 l 1
 120 360 l 1
 120 240 l 1
 120 120 l 1
480 720 m 1
 360 720 l 1
 240 720 l 1
 120 720 l 1
 120 840 l 1
 240 840 l 1
 360 840 l 1
 480 840 l 1
 480 720 l 1
240 1080 m 1
 120 1080 l 1
 120 1200 l 1
 240 1200 l 1
 240 1080 l 1
EndSplineSet
EndChar

StartChar: Oacute
Encoding: 211 211 146
Width: 720
GlyphClass: 2
Flags: W
LayerCount: 2
Fore
SplineSet
240 960 m 1
 240 1080 l 1
 360 1080 l 1
 360 960 l 1
 240 960 l 1
360 120 m 1
 480 120 l 1
 480 0 l 1
 360 0 l 1
 240 0 l 1
 120 0 l 1
 120 120 l 1
 240 120 l 1
 360 120 l 1
480 120 m 1
 480 240 l 1
 480 360 l 1
 480 480 l 1
 480 600 l 1
 480 720 l 1
 600 720 l 1
 600 600 l 1
 600 480 l 1
 600 360 l 1
 600 240 l 1
 600 120 l 1
 480 120 l 1
120 120 m 1
 0 120 l 1
 0 240 l 1
 0 360 l 1
 0 480 l 1
 0 600 l 1
 0 720 l 1
 120 720 l 1
 120 600 l 1
 120 480 l 1
 120 360 l 1
 120 240 l 1
 120 120 l 1
480 720 m 1
 360 720 l 1
 240 720 l 1
 120 720 l 1
 120 840 l 1
 240 840 l 1
 360 840 l 1
 480 840 l 1
 480 720 l 1
360 1080 m 1
 360 1200 l 1
 480 1200 l 1
 480 1080 l 1
 360 1080 l 1
EndSplineSet
EndChar

StartChar: Ocircumflex
Encoding: 212 212 147
Width: 720
GlyphClass: 2
Flags: W
LayerCount: 2
Fore
SplineSet
360 960 m 1
 360 1080 l 1
 480 1080 l 1
 480 960 l 1
 360 960 l 1
120 960 m 1
 120 1080 l 1
 240 1080 l 1
 240 960 l 1
 120 960 l 1
360 120 m 1
 480 120 l 1
 480 0 l 1
 360 0 l 1
 240 0 l 1
 120 0 l 1
 120 120 l 1
 240 120 l 1
 360 120 l 1
480 120 m 1
 480 240 l 1
 480 360 l 1
 480 480 l 1
 480 600 l 1
 480 720 l 1
 600 720 l 1
 600 600 l 1
 600 480 l 1
 600 360 l 1
 600 240 l 1
 600 120 l 1
 480 120 l 1
120 120 m 1
 0 120 l 1
 0 240 l 1
 0 360 l 1
 0 480 l 1
 0 600 l 1
 0 720 l 1
 120 720 l 1
 120 600 l 1
 120 480 l 1
 120 360 l 1
 120 240 l 1
 120 120 l 1
480 720 m 1
 360 720 l 1
 240 720 l 1
 120 720 l 1
 120 840 l 1
 240 840 l 1
 360 840 l 1
 480 840 l 1
 480 720 l 1
360 1080 m 1
 240 1080 l 1
 240 1200 l 1
 360 1200 l 1
 360 1080 l 1
EndSplineSet
EndChar

StartChar: Otilde
Encoding: 213 213 148
Width: 720
GlyphClass: 2
Flags: W
LayerCount: 2
Fore
SplineSet
360 960 m 1
 360 1080 l 1
 480 1080 l 1
 480 960 l 1
 360 960 l 1
120 960 m 1
 120 1080 l 1
 240 1080 l 1
 240 960 l 1
 120 960 l 1
360 120 m 1
 480 120 l 1
 480 0 l 1
 360 0 l 1
 240 0 l 1
 120 0 l 1
 120 120 l 1
 240 120 l 1
 360 120 l 1
480 120 m 1
 480 240 l 1
 480 360 l 1
 480 480 l 1
 480 600 l 1
 480 720 l 1
 600 720 l 1
 600 600 l 1
 600 480 l 1
 600 360 l 1
 600 240 l 1
 600 120 l 1
 480 120 l 1
120 120 m 1
 0 120 l 1
 0 240 l 1
 0 360 l 1
 0 480 l 1
 0 600 l 1
 0 720 l 1
 120 720 l 1
 120 600 l 1
 120 480 l 1
 120 360 l 1
 120 240 l 1
 120 120 l 1
480 720 m 1
 360 720 l 1
 240 720 l 1
 120 720 l 1
 120 840 l 1
 240 840 l 1
 360 840 l 1
 480 840 l 1
 480 720 l 1
480 1080 m 1
 480 1200 l 1
 600 1200 l 1
 600 1080 l 1
 480 1080 l 1
360 1080 m 1
 240 1080 l 1
 240 1200 l 1
 360 1200 l 1
 360 1080 l 1
EndSplineSet
EndChar

StartChar: Odieresis
Encoding: 214 214 149
Width: 720
GlyphClass: 2
Flags: W
LayerCount: 2
Fore
SplineSet
360 960 m 1
 360 1080 l 1
 480 1080 l 1
 480 960 l 1
 360 960 l 1
120 960 m 1
 120 1080 l 1
 240 1080 l 1
 240 960 l 1
 120 960 l 1
360 120 m 1
 480 120 l 1
 480 0 l 1
 360 0 l 1
 240 0 l 1
 120 0 l 1
 120 120 l 1
 240 120 l 1
 360 120 l 1
480 120 m 1
 480 240 l 1
 480 360 l 1
 480 480 l 1
 480 600 l 1
 480 720 l 1
 600 720 l 1
 600 600 l 1
 600 480 l 1
 600 360 l 1
 600 240 l 1
 600 120 l 1
 480 120 l 1
120 120 m 1
 0 120 l 1
 0 240 l 1
 0 360 l 1
 0 480 l 1
 0 600 l 1
 0 720 l 1
 120 720 l 1
 120 600 l 1
 120 480 l 1
 120 360 l 1
 120 240 l 1
 120 120 l 1
480 720 m 1
 360 720 l 1
 240 720 l 1
 120 720 l 1
 120 840 l 1
 240 840 l 1
 360 840 l 1
 480 840 l 1
 480 720 l 1
EndSplineSet
EndChar

StartChar: multiply
Encoding: 215 215 150
Width: 720
GlyphClass: 2
Flags: W
LayerCount: 2
Fore
SplineSet
480 120 m 1
 480 240 l 1
 600 240 l 1
 600 120 l 1
 480 120 l 1
0 120 m 1
 0 240 l 1
 120 240 l 1
 120 120 l 1
 0 120 l 1
480 240 m 1
 360 240 l 1
 360 360 l 1
 480 360 l 1
 480 240 l 1
120 240 m 1
 120 360 l 1
 240 360 l 1
 240 240 l 1
 120 240 l 1
360 360 m 1
 240 360 l 1
 240 480 l 1
 360 480 l 1
 360 360 l 1
360 480 m 1
 360 600 l 1
 480 600 l 1
 480 480 l 1
 360 480 l 1
240 480 m 1
 120 480 l 1
 120 600 l 1
 240 600 l 1
 240 480 l 1
480 600 m 1
 480 720 l 1
 600 720 l 1
 600 600 l 1
 480 600 l 1
120 600 m 1
 0 600 l 1
 0 720 l 1
 120 720 l 1
 120 600 l 1
EndSplineSet
EndChar

StartChar: Oslash
Encoding: 216 216 151
Width: 720
GlyphClass: 2
Flags: W
LayerCount: 2
Fore
SplineSet
360 120 m 1
 480 120 l 1
 480 0 l 1
 360 0 l 1
 240 0 l 1
 120 0 l 1
 120 120 l 1
 0 120 l 1
 0 240 l 1
 0 360 l 1
 0 480 l 1
 0 600 l 1
 0 720 l 1
 120 720 l 1
 120 600 l 1
 120 480 l 1
 120 360 l 1
 240 360 l 1
 240 240 l 1
 240 120 l 1
 360 120 l 1
480 120 m 1
 480 240 l 1
 480 360 l 1
 480 480 l 1
 360 480 l 1
 360 360 l 1
 240 360 l 1
 240 480 l 1
 360 480 l 1
 360 600 l 1
 360 720 l 1
 240 720 l 1
 120 720 l 1
 120 840 l 1
 240 840 l 1
 360 840 l 1
 480 840 l 1
 480 720 l 1
 600 720 l 1
 600 600 l 1
 600 480 l 1
 600 360 l 1
 600 240 l 1
 600 120 l 1
 480 120 l 1
EndSplineSet
EndChar

StartChar: Ugrave
Encoding: 217 217 152
Width: 720
GlyphClass: 2
Flags: W
LayerCount: 2
Fore
SplineSet
240 960 m 1
 240 1080 l 1
 360 1080 l 1
 360 960 l 1
 240 960 l 1
360 120 m 1
 480 120 l 1
 480 0 l 1
 360 0 l 1
 240 0 l 1
 120 0 l 1
 120 120 l 1
 240 120 l 1
 360 120 l 1
480 120 m 1
 480 240 l 1
 480 360 l 1
 480 480 l 1
 480 600 l 1
 480 720 l 1
 480 840 l 1
 600 840 l 1
 600 720 l 1
 600 600 l 1
 600 480 l 1
 600 360 l 1
 600 240 l 1
 600 120 l 1
 480 120 l 1
120 120 m 1
 0 120 l 1
 0 240 l 1
 0 360 l 1
 0 480 l 1
 0 600 l 1
 0 720 l 1
 0 840 l 1
 120 840 l 1
 120 720 l 1
 120 600 l 1
 120 480 l 1
 120 360 l 1
 120 240 l 1
 120 120 l 1
240 1080 m 1
 120 1080 l 1
 120 1200 l 1
 240 1200 l 1
 240 1080 l 1
EndSplineSet
EndChar

StartChar: Uacute
Encoding: 218 218 153
Width: 720
GlyphClass: 2
Flags: W
LayerCount: 2
Fore
SplineSet
240 960 m 1
 240 1080 l 1
 360 1080 l 1
 360 960 l 1
 240 960 l 1
360 120 m 1
 480 120 l 1
 480 0 l 1
 360 0 l 1
 240 0 l 1
 120 0 l 1
 120 120 l 1
 240 120 l 1
 360 120 l 1
480 120 m 1
 480 240 l 1
 480 360 l 1
 480 480 l 1
 480 600 l 1
 480 720 l 1
 480 840 l 1
 600 840 l 1
 600 720 l 1
 600 600 l 1
 600 480 l 1
 600 360 l 1
 600 240 l 1
 600 120 l 1
 480 120 l 1
120 120 m 1
 0 120 l 1
 0 240 l 1
 0 360 l 1
 0 480 l 1
 0 600 l 1
 0 720 l 1
 0 840 l 1
 120 840 l 1
 120 720 l 1
 120 600 l 1
 120 480 l 1
 120 360 l 1
 120 240 l 1
 120 120 l 1
360 1080 m 1
 360 1200 l 1
 480 1200 l 1
 480 1080 l 1
 360 1080 l 1
EndSplineSet
EndChar

StartChar: Ucircumflex
Encoding: 219 219 154
Width: 720
GlyphClass: 2
Flags: W
LayerCount: 2
Fore
SplineSet
360 960 m 1
 360 1080 l 1
 480 1080 l 1
 480 960 l 1
 360 960 l 1
120 960 m 1
 120 1080 l 1
 240 1080 l 1
 240 960 l 1
 120 960 l 1
360 120 m 1
 480 120 l 1
 480 0 l 1
 360 0 l 1
 240 0 l 1
 120 0 l 1
 120 120 l 1
 240 120 l 1
 360 120 l 1
480 120 m 1
 480 240 l 1
 480 360 l 1
 480 480 l 1
 480 600 l 1
 480 720 l 1
 480 840 l 1
 600 840 l 1
 600 720 l 1
 600 600 l 1
 600 480 l 1
 600 360 l 1
 600 240 l 1
 600 120 l 1
 480 120 l 1
120 120 m 1
 0 120 l 1
 0 240 l 1
 0 360 l 1
 0 480 l 1
 0 600 l 1
 0 720 l 1
 0 840 l 1
 120 840 l 1
 120 720 l 1
 120 600 l 1
 120 480 l 1
 120 360 l 1
 120 240 l 1
 120 120 l 1
360 1080 m 1
 240 1080 l 1
 240 1200 l 1
 360 1200 l 1
 360 1080 l 1
EndSplineSet
EndChar

StartChar: Udieresis
Encoding: 220 220 155
Width: 720
GlyphClass: 2
Flags: W
LayerCount: 2
Fore
SplineSet
360 960 m 1
 360 1080 l 1
 480 1080 l 1
 480 960 l 1
 360 960 l 1
120 960 m 1
 120 1080 l 1
 240 1080 l 1
 240 960 l 1
 120 960 l 1
360 120 m 1
 480 120 l 1
 480 0 l 1
 360 0 l 1
 240 0 l 1
 120 0 l 1
 120 120 l 1
 240 120 l 1
 360 120 l 1
480 120 m 1
 480 240 l 1
 480 360 l 1
 480 480 l 1
 480 600 l 1
 480 720 l 1
 480 840 l 1
 600 840 l 1
 600 720 l 1
 600 600 l 1
 600 480 l 1
 600 360 l 1
 600 240 l 1
 600 120 l 1
 480 120 l 1
120 120 m 1
 0 120 l 1
 0 240 l 1
 0 360 l 1
 0 480 l 1
 0 600 l 1
 0 720 l 1
 0 840 l 1
 120 840 l 1
 120 720 l 1
 120 600 l 1
 120 480 l 1
 120 360 l 1
 120 240 l 1
 120 120 l 1
EndSplineSet
EndChar

StartChar: Yacute
Encoding: 221 221 156
Width: 720
GlyphClass: 2
Flags: W
LayerCount: 2
Fore
SplineSet
240 0 m 1
 240 120 l 1
 240 240 l 1
 240 360 l 1
 240 480 l 1
 240 600 l 1
 360 600 l 1
 360 480 l 1
 360 360 l 1
 360 240 l 1
 360 120 l 1
 360 0 l 1
 240 0 l 1
240 960 m 1
 240 1080 l 1
 360 1080 l 1
 360 960 l 1
 240 960 l 1
360 600 m 1
 360 720 l 1
 480 720 l 1
 480 600 l 1
 360 600 l 1
240 600 m 1
 120 600 l 1
 120 720 l 1
 240 720 l 1
 240 600 l 1
480 720 m 1
 480 840 l 1
 600 840 l 1
 600 720 l 1
 480 720 l 1
120 720 m 1
 0 720 l 1
 0 840 l 1
 120 840 l 1
 120 720 l 1
360 1080 m 1
 360 1200 l 1
 480 1200 l 1
 480 1080 l 1
 360 1080 l 1
EndSplineSet
EndChar

StartChar: Thorn
Encoding: 222 222 157
Width: 720
GlyphClass: 2
Flags: W
LayerCount: 2
Fore
SplineSet
0 0 m 1
 0 120 l 1
 0 240 l 1
 0 360 l 1
 0 480 l 1
 0 600 l 1
 0 720 l 1
 0 840 l 1
 120 840 l 1
 120 720 l 1
 120 600 l 1
 240 600 l 1
 360 600 l 1
 480 600 l 1
 480 480 l 1
 600 480 l 1
 600 360 l 1
 480 360 l 1
 480 480 l 1
 360 480 l 1
 240 480 l 1
 120 480 l 1
 120 360 l 1
 240 360 l 1
 360 360 l 1
 480 360 l 1
 480 240 l 1
 360 240 l 1
 240 240 l 1
 120 240 l 1
 120 120 l 1
 120 0 l 1
 0 0 l 1
EndSplineSet
EndChar

StartChar: germandbls
Encoding: 223 223 158
Width: 720
GlyphClass: 2
Flags: W
LayerCount: 2
Fore
SplineSet
0 -120 m 1
 0 0 l 1
 0 120 l 1
 0 240 l 1
 0 360 l 1
 0 480 l 1
 0 600 l 1
 0 720 l 1
 120 720 l 1
 120 600 l 1
 120 480 l 1
 120 360 l 1
 120 240 l 1
 120 120 l 1
 120 0 l 1
 120 -120 l 1
 0 -120 l 1
360 120 m 1
 480 120 l 1
 480 0 l 1
 360 0 l 1
 240 0 l 1
 240 120 l 1
 360 120 l 1
480 120 m 1
 480 240 l 1
 480 360 l 1
 480 480 l 1
 600 480 l 1
 600 360 l 1
 600 240 l 1
 600 120 l 1
 480 120 l 1
480 480 m 1
 360 480 l 1
 240 480 l 1
 240 600 l 1
 360 600 l 1
 480 600 l 1
 480 480 l 1
480 600 m 1
 480 720 l 1
 600 720 l 1
 600 600 l 1
 480 600 l 1
480 720 m 1
 360 720 l 1
 240 720 l 1
 120 720 l 1
 120 840 l 1
 240 840 l 1
 360 840 l 1
 480 840 l 1
 480 720 l 1
EndSplineSet
EndChar

StartChar: agrave
Encoding: 224 224 159
Width: 720
GlyphClass: 2
Flags: W
LayerCount: 2
Fore
SplineSet
240 720 m 1
 240 840 l 1
 360 840 l 1
 360 720 l 1
 240 720 l 1
480 0 m 1
 360 0 l 1
 240 0 l 1
 120 0 l 1
 120 120 l 1
 0 120 l 1
 0 240 l 1
 120 240 l 1
 120 360 l 1
 240 360 l 1
 360 360 l 1
 480 360 l 1
 480 480 l 1
 600 480 l 1
 600 360 l 1
 600 240 l 1
 600 120 l 1
 600 0 l 1
 480 0 l 1
360 120 m 1
 480 120 l 1
 480 240 l 1
 360 240 l 1
 240 240 l 1
 120 240 l 1
 120 120 l 1
 240 120 l 1
 360 120 l 1
480 480 m 1
 360 480 l 1
 240 480 l 1
 120 480 l 1
 120 600 l 1
 240 600 l 1
 360 600 l 1
 480 600 l 1
 480 480 l 1
240 840 m 1
 120 840 l 1
 120 960 l 1
 240 960 l 1
 240 840 l 1
EndSplineSet
EndChar

StartChar: aacute
Encoding: 225 225 160
Width: 720
GlyphClass: 2
Flags: W
LayerCount: 2
Fore
SplineSet
240 720 m 1
 240 840 l 1
 360 840 l 1
 360 720 l 1
 240 720 l 1
480 0 m 1
 360 0 l 1
 240 0 l 1
 120 0 l 1
 120 120 l 1
 0 120 l 1
 0 240 l 1
 120 240 l 1
 120 360 l 1
 240 360 l 1
 360 360 l 1
 480 360 l 1
 480 480 l 1
 600 480 l 1
 600 360 l 1
 600 240 l 1
 600 120 l 1
 600 0 l 1
 480 0 l 1
360 120 m 1
 480 120 l 1
 480 240 l 1
 360 240 l 1
 240 240 l 1
 120 240 l 1
 120 120 l 1
 240 120 l 1
 360 120 l 1
480 480 m 1
 360 480 l 1
 240 480 l 1
 120 480 l 1
 120 600 l 1
 240 600 l 1
 360 600 l 1
 480 600 l 1
 480 480 l 1
360 840 m 1
 360 960 l 1
 480 960 l 1
 480 840 l 1
 360 840 l 1
EndSplineSet
EndChar

StartChar: acircumflex
Encoding: 226 226 161
Width: 720
GlyphClass: 2
Flags: W
LayerCount: 2
Fore
SplineSet
360 720 m 1
 360 840 l 1
 480 840 l 1
 480 720 l 1
 360 720 l 1
120 720 m 1
 120 840 l 1
 240 840 l 1
 240 720 l 1
 120 720 l 1
480 0 m 1
 360 0 l 1
 240 0 l 1
 120 0 l 1
 120 120 l 1
 0 120 l 1
 0 240 l 1
 120 240 l 1
 120 360 l 1
 240 360 l 1
 360 360 l 1
 480 360 l 1
 480 480 l 1
 600 480 l 1
 600 360 l 1
 600 240 l 1
 600 120 l 1
 600 0 l 1
 480 0 l 1
360 120 m 1
 480 120 l 1
 480 240 l 1
 360 240 l 1
 240 240 l 1
 120 240 l 1
 120 120 l 1
 240 120 l 1
 360 120 l 1
480 480 m 1
 360 480 l 1
 240 480 l 1
 120 480 l 1
 120 600 l 1
 240 600 l 1
 360 600 l 1
 480 600 l 1
 480 480 l 1
360 840 m 1
 240 840 l 1
 240 960 l 1
 360 960 l 1
 360 840 l 1
EndSplineSet
EndChar

StartChar: atilde
Encoding: 227 227 162
Width: 720
GlyphClass: 2
Flags: W
LayerCount: 2
Fore
SplineSet
360 720 m 1
 360 840 l 1
 480 840 l 1
 480 720 l 1
 360 720 l 1
120 720 m 1
 120 840 l 1
 240 840 l 1
 240 720 l 1
 120 720 l 1
480 0 m 1
 360 0 l 1
 240 0 l 1
 120 0 l 1
 120 120 l 1
 0 120 l 1
 0 240 l 1
 120 240 l 1
 120 360 l 1
 240 360 l 1
 360 360 l 1
 480 360 l 1
 480 480 l 1
 600 480 l 1
 600 360 l 1
 600 240 l 1
 600 120 l 1
 600 0 l 1
 480 0 l 1
360 120 m 1
 480 120 l 1
 480 240 l 1
 360 240 l 1
 240 240 l 1
 120 240 l 1
 120 120 l 1
 240 120 l 1
 360 120 l 1
480 480 m 1
 360 480 l 1
 240 480 l 1
 120 480 l 1
 120 600 l 1
 240 600 l 1
 360 600 l 1
 480 600 l 1
 480 480 l 1
480 840 m 1
 480 960 l 1
 600 960 l 1
 600 840 l 1
 480 840 l 1
360 840 m 1
 240 840 l 1
 240 960 l 1
 360 960 l 1
 360 840 l 1
EndSplineSet
EndChar

StartChar: adieresis
Encoding: 228 228 163
Width: 720
GlyphClass: 2
Flags: W
LayerCount: 2
Fore
SplineSet
360 720 m 1
 360 840 l 1
 480 840 l 1
 480 720 l 1
 360 720 l 1
120 720 m 1
 120 840 l 1
 240 840 l 1
 240 720 l 1
 120 720 l 1
480 0 m 1
 360 0 l 1
 240 0 l 1
 120 0 l 1
 120 120 l 1
 0 120 l 1
 0 240 l 1
 120 240 l 1
 120 360 l 1
 240 360 l 1
 360 360 l 1
 480 360 l 1
 480 480 l 1
 600 480 l 1
 600 360 l 1
 600 240 l 1
 600 120 l 1
 600 0 l 1
 480 0 l 1
360 120 m 1
 480 120 l 1
 480 240 l 1
 360 240 l 1
 240 240 l 1
 120 240 l 1
 120 120 l 1
 240 120 l 1
 360 120 l 1
480 480 m 1
 360 480 l 1
 240 480 l 1
 120 480 l 1
 120 600 l 1
 240 600 l 1
 360 600 l 1
 480 600 l 1
 480 480 l 1
EndSplineSet
EndChar

StartChar: aring
Encoding: 229 229 164
Width: 720
GlyphClass: 2
Flags: W
LayerCount: 2
Fore
SplineSet
240 720 m 1
 240 840 l 1
 360 840 l 1
 360 720 l 1
 240 720 l 1
480 0 m 1
 360 0 l 1
 240 0 l 1
 120 0 l 1
 120 120 l 1
 0 120 l 1
 0 240 l 1
 120 240 l 1
 120 360 l 1
 240 360 l 1
 360 360 l 1
 480 360 l 1
 480 480 l 1
 600 480 l 1
 600 360 l 1
 600 240 l 1
 600 120 l 1
 600 0 l 1
 480 0 l 1
360 120 m 1
 480 120 l 1
 480 240 l 1
 360 240 l 1
 240 240 l 1
 120 240 l 1
 120 120 l 1
 240 120 l 1
 360 120 l 1
480 480 m 1
 360 480 l 1
 240 480 l 1
 120 480 l 1
 120 600 l 1
 240 600 l 1
 360 600 l 1
 480 600 l 1
 480 480 l 1
360 840 m 1
 360 960 l 1
 480 960 l 1
 480 840 l 1
 360 840 l 1
240 840 m 1
 120 840 l 1
 120 960 l 1
 240 960 l 1
 240 840 l 1
360 960 m 1
 240 960 l 1
 240 1080 l 1
 360 1080 l 1
 360 960 l 1
EndSplineSet
EndChar

StartChar: ae
Encoding: 230 230 165
Width: 720
GlyphClass: 2
Flags: W
LayerCount: 2
Fore
SplineSet
600 120 m 1
 720 120 l 1
 720 0 l 1
 600 0 l 1
 480 0 l 1
 360 0 l 1
 240 0 l 1
 120 0 l 1
 120 120 l 1
 0 120 l 1
 0 240 l 1
 120 240 l 1
 120 360 l 1
 240 360 l 1
 360 360 l 1
 360 480 l 1
 480 480 l 1
 480 360 l 1
 600 360 l 1
 600 480 l 1
 720 480 l 1
 720 360 l 1
 720 240 l 1
 600 240 l 1
 480 240 l 1
 480 120 l 1
 600 120 l 1
240 120 m 1
 360 120 l 1
 360 240 l 1
 240 240 l 1
 120 240 l 1
 120 120 l 1
 240 120 l 1
600 480 m 1
 480 480 l 1
 480 600 l 1
 600 600 l 1
 600 480 l 1
360 480 m 1
 240 480 l 1
 120 480 l 1
 120 600 l 1
 240 600 l 1
 360 600 l 1
 360 480 l 1
EndSplineSet
EndChar

StartChar: ccedilla
Encoding: 231 231 166
Width: 720
GlyphClass: 2
Flags: W
LayerCount: 2
Fore
SplineSet
240 -240 m 1
 240 -120 l 1
 360 -120 l 1
 360 -240 l 1
 240 -240 l 1
480 360 m 1
 480 480 l 1
 600 480 l 1
 600 360 l 1
 480 360 l 1
360 -120 m 1
 360 0 l 1
 240 0 l 1
 120 0 l 1
 120 120 l 1
 240 120 l 1
 360 120 l 1
 480 120 l 1
 480 0 l 1
 480 -120 l 1
 360 -120 l 1
480 120 m 1
 480 240 l 1
 600 240 l 1
 600 120 l 1
 480 120 l 1
120 120 m 1
 0 120 l 1
 0 240 l 1
 0 360 l 1
 0 480 l 1
 120 480 l 1
 120 360 l 1
 120 240 l 1
 120 120 l 1
480 480 m 1
 360 480 l 1
 240 480 l 1
 120 480 l 1
 120 600 l 1
 240 600 l 1
 360 600 l 1
 480 600 l 1
 480 480 l 1
EndSplineSet
EndChar

StartChar: egrave
Encoding: 232 232 167
Width: 720
GlyphClass: 2
Flags: W
LayerCount: 2
Fore
SplineSet
240 720 m 1
 240 840 l 1
 360 840 l 1
 360 720 l 1
 240 720 l 1
480 120 m 1
 600 120 l 1
 600 0 l 1
 480 0 l 1
 360 0 l 1
 240 0 l 1
 120 0 l 1
 120 120 l 1
 240 120 l 1
 360 120 l 1
 480 120 l 1
120 120 m 1
 0 120 l 1
 0 240 l 1
 0 360 l 1
 0 480 l 1
 120 480 l 1
 120 360 l 1
 240 360 l 1
 360 360 l 1
 480 360 l 1
 480 480 l 1
 600 480 l 1
 600 360 l 1
 600 240 l 1
 480 240 l 1
 360 240 l 1
 240 240 l 1
 120 240 l 1
 120 120 l 1
480 480 m 1
 360 480 l 1
 240 480 l 1
 120 480 l 1
 120 600 l 1
 240 600 l 1
 360 600 l 1
 480 600 l 1
 480 480 l 1
240 840 m 1
 120 840 l 1
 120 960 l 1
 240 960 l 1
 240 840 l 1
EndSplineSet
EndChar

StartChar: eacute
Encoding: 233 233 168
Width: 720
GlyphClass: 2
Flags: W
LayerCount: 2
Fore
SplineSet
240 720 m 1
 240 840 l 1
 360 840 l 1
 360 720 l 1
 240 720 l 1
480 120 m 1
 600 120 l 1
 600 0 l 1
 480 0 l 1
 360 0 l 1
 240 0 l 1
 120 0 l 1
 120 120 l 1
 240 120 l 1
 360 120 l 1
 480 120 l 1
120 120 m 1
 0 120 l 1
 0 240 l 1
 0 360 l 1
 0 480 l 1
 120 480 l 1
 120 360 l 1
 240 360 l 1
 360 360 l 1
 480 360 l 1
 480 480 l 1
 600 480 l 1
 600 360 l 1
 600 240 l 1
 480 240 l 1
 360 240 l 1
 240 240 l 1
 120 240 l 1
 120 120 l 1
480 480 m 1
 360 480 l 1
 240 480 l 1
 120 480 l 1
 120 600 l 1
 240 600 l 1
 360 600 l 1
 480 600 l 1
 480 480 l 1
360 840 m 1
 360 960 l 1
 480 960 l 1
 480 840 l 1
 360 840 l 1
EndSplineSet
EndChar

StartChar: ecircumflex
Encoding: 234 234 169
Width: 720
GlyphClass: 2
Flags: W
LayerCount: 2
Fore
SplineSet
360 720 m 1
 360 840 l 1
 480 840 l 1
 480 720 l 1
 360 720 l 1
120 720 m 1
 120 840 l 1
 240 840 l 1
 240 720 l 1
 120 720 l 1
480 120 m 1
 600 120 l 1
 600 0 l 1
 480 0 l 1
 360 0 l 1
 240 0 l 1
 120 0 l 1
 120 120 l 1
 240 120 l 1
 360 120 l 1
 480 120 l 1
120 120 m 1
 0 120 l 1
 0 240 l 1
 0 360 l 1
 0 480 l 1
 120 480 l 1
 120 360 l 1
 240 360 l 1
 360 360 l 1
 480 360 l 1
 480 480 l 1
 600 480 l 1
 600 360 l 1
 600 240 l 1
 480 240 l 1
 360 240 l 1
 240 240 l 1
 120 240 l 1
 120 120 l 1
480 480 m 1
 360 480 l 1
 240 480 l 1
 120 480 l 1
 120 600 l 1
 240 600 l 1
 360 600 l 1
 480 600 l 1
 480 480 l 1
360 840 m 1
 240 840 l 1
 240 960 l 1
 360 960 l 1
 360 840 l 1
EndSplineSet
EndChar

StartChar: edieresis
Encoding: 235 235 170
Width: 720
GlyphClass: 2
Flags: W
LayerCount: 2
Fore
SplineSet
360 720 m 1
 360 840 l 1
 480 840 l 1
 480 720 l 1
 360 720 l 1
120 720 m 1
 120 840 l 1
 240 840 l 1
 240 720 l 1
 120 720 l 1
480 120 m 1
 600 120 l 1
 600 0 l 1
 480 0 l 1
 360 0 l 1
 240 0 l 1
 120 0 l 1
 120 120 l 1
 240 120 l 1
 360 120 l 1
 480 120 l 1
120 120 m 1
 0 120 l 1
 0 240 l 1
 0 360 l 1
 0 480 l 1
 120 480 l 1
 120 360 l 1
 240 360 l 1
 360 360 l 1
 480 360 l 1
 480 480 l 1
 600 480 l 1
 600 360 l 1
 600 240 l 1
 480 240 l 1
 360 240 l 1
 240 240 l 1
 120 240 l 1
 120 120 l 1
480 480 m 1
 360 480 l 1
 240 480 l 1
 120 480 l 1
 120 600 l 1
 240 600 l 1
 360 600 l 1
 480 600 l 1
 480 480 l 1
EndSplineSet
EndChar

StartChar: igrave
Encoding: 236 236 171
Width: 720
GlyphClass: 2
Flags: W
LayerCount: 2
Fore
SplineSet
240 720 m 1
 240 840 l 1
 360 840 l 1
 360 720 l 1
 240 720 l 1
480 120 m 1
 600 120 l 1
 600 0 l 1
 480 0 l 1
 360 0 l 1
 360 120 l 1
 480 120 l 1
360 120 m 1
 240 120 l 1
 240 240 l 1
 240 360 l 1
 240 480 l 1
 120 480 l 1
 120 600 l 1
 240 600 l 1
 360 600 l 1
 360 480 l 1
 360 360 l 1
 360 240 l 1
 360 120 l 1
240 840 m 1
 120 840 l 1
 120 960 l 1
 240 960 l 1
 240 840 l 1
EndSplineSet
EndChar

StartChar: iacute
Encoding: 237 237 172
Width: 720
GlyphClass: 2
Flags: W
LayerCount: 2
Fore
SplineSet
240 720 m 1
 240 840 l 1
 360 840 l 1
 360 720 l 1
 240 720 l 1
480 120 m 1
 600 120 l 1
 600 0 l 1
 480 0 l 1
 360 0 l 1
 360 120 l 1
 480 120 l 1
360 120 m 1
 240 120 l 1
 240 240 l 1
 240 360 l 1
 240 480 l 1
 120 480 l 1
 120 600 l 1
 240 600 l 1
 360 600 l 1
 360 480 l 1
 360 360 l 1
 360 240 l 1
 360 120 l 1
360 840 m 1
 360 960 l 1
 480 960 l 1
 480 840 l 1
 360 840 l 1
EndSplineSet
EndChar

StartChar: icircumflex
Encoding: 238 238 173
Width: 720
GlyphClass: 2
Flags: W
LayerCount: 2
Fore
SplineSet
360 720 m 1
 360 840 l 1
 480 840 l 1
 480 720 l 1
 360 720 l 1
120 720 m 1
 120 840 l 1
 240 840 l 1
 240 720 l 1
 120 720 l 1
480 120 m 1
 600 120 l 1
 600 0 l 1
 480 0 l 1
 360 0 l 1
 360 120 l 1
 480 120 l 1
360 120 m 1
 240 120 l 1
 240 240 l 1
 240 360 l 1
 240 480 l 1
 120 480 l 1
 120 600 l 1
 240 600 l 1
 360 600 l 1
 360 480 l 1
 360 360 l 1
 360 240 l 1
 360 120 l 1
360 840 m 1
 240 840 l 1
 240 960 l 1
 360 960 l 1
 360 840 l 1
EndSplineSet
EndChar

StartChar: idieresis
Encoding: 239 239 174
Width: 720
GlyphClass: 2
Flags: W
LayerCount: 2
Fore
SplineSet
360 720 m 1
 360 840 l 1
 480 840 l 1
 480 720 l 1
 360 720 l 1
120 720 m 1
 120 840 l 1
 240 840 l 1
 240 720 l 1
 120 720 l 1
480 120 m 1
 600 120 l 1
 600 0 l 1
 480 0 l 1
 360 0 l 1
 360 120 l 1
 480 120 l 1
360 120 m 1
 240 120 l 1
 240 240 l 1
 240 360 l 1
 240 480 l 1
 120 480 l 1
 120 600 l 1
 240 600 l 1
 360 600 l 1
 360 480 l 1
 360 360 l 1
 360 240 l 1
 360 120 l 1
EndSplineSet
EndChar

StartChar: eth
Encoding: 240 240 175
Width: 720
GlyphClass: 2
Flags: W
LayerCount: 2
Fore
SplineSet
240 480 m 1
 240 600 l 1
 360 600 l 1
 360 480 l 1
 240 480 l 1
360 120 m 1
 480 120 l 1
 480 0 l 1
 360 0 l 1
 240 0 l 1
 120 0 l 1
 120 120 l 1
 240 120 l 1
 360 120 l 1
480 120 m 1
 480 240 l 1
 360 240 l 1
 240 240 l 1
 120 240 l 1
 120 120 l 1
 0 120 l 1
 0 240 l 1
 120 240 l 1
 120 360 l 1
 240 360 l 1
 360 360 l 1
 480 360 l 1
 480 480 l 1
 480 600 l 1
 600 600 l 1
 600 480 l 1
 600 360 l 1
 600 240 l 1
 600 120 l 1
 480 120 l 1
480 600 m 1
 360 600 l 1
 360 720 l 1
 480 720 l 1
 480 600 l 1
480 720 m 1
 480 840 l 1
 600 840 l 1
 600 720 l 1
 480 720 l 1
360 720 m 1
 240 720 l 1
 120 720 l 1
 120 840 l 1
 240 840 l 1
 360 840 l 1
 360 720 l 1
EndSplineSet
EndChar

StartChar: ntilde
Encoding: 241 241 176
Width: 720
GlyphClass: 2
Flags: W
LayerCount: 2
Fore
SplineSet
480 0 m 1
 480 120 l 1
 480 240 l 1
 480 360 l 1
 480 480 l 1
 600 480 l 1
 600 360 l 1
 600 240 l 1
 600 120 l 1
 600 0 l 1
 480 0 l 1
0 0 m 1
 0 120 l 1
 0 240 l 1
 0 360 l 1
 0 480 l 1
 0 600 l 1
 120 600 l 1
 240 600 l 1
 360 600 l 1
 480 600 l 1
 480 480 l 1
 360 480 l 1
 240 480 l 1
 120 480 l 1
 120 360 l 1
 120 240 l 1
 120 120 l 1
 120 0 l 1
 0 0 l 1
360 720 m 1
 360 840 l 1
 480 840 l 1
 480 720 l 1
 360 720 l 1
120 720 m 1
 120 840 l 1
 240 840 l 1
 240 720 l 1
 120 720 l 1
480 840 m 1
 480 960 l 1
 600 960 l 1
 600 840 l 1
 480 840 l 1
360 840 m 1
 240 840 l 1
 240 960 l 1
 360 960 l 1
 360 840 l 1
EndSplineSet
EndChar

StartChar: ograve
Encoding: 242 242 177
Width: 720
GlyphClass: 2
Flags: W
LayerCount: 2
Fore
SplineSet
240 720 m 1
 240 840 l 1
 360 840 l 1
 360 720 l 1
 240 720 l 1
360 120 m 1
 480 120 l 1
 480 0 l 1
 360 0 l 1
 240 0 l 1
 120 0 l 1
 120 120 l 1
 240 120 l 1
 360 120 l 1
480 120 m 1
 480 240 l 1
 480 360 l 1
 480 480 l 1
 600 480 l 1
 600 360 l 1
 600 240 l 1
 600 120 l 1
 480 120 l 1
120 120 m 1
 0 120 l 1
 0 240 l 1
 0 360 l 1
 0 480 l 1
 120 480 l 1
 120 360 l 1
 120 240 l 1
 120 120 l 1
480 480 m 1
 360 480 l 1
 240 480 l 1
 120 480 l 1
 120 600 l 1
 240 600 l 1
 360 600 l 1
 480 600 l 1
 480 480 l 1
240 840 m 1
 120 840 l 1
 120 960 l 1
 240 960 l 1
 240 840 l 1
EndSplineSet
EndChar

StartChar: oacute
Encoding: 243 243 178
Width: 720
GlyphClass: 2
Flags: W
LayerCount: 2
Fore
SplineSet
240 720 m 1
 240 840 l 1
 360 840 l 1
 360 720 l 1
 240 720 l 1
360 120 m 1
 480 120 l 1
 480 0 l 1
 360 0 l 1
 240 0 l 1
 120 0 l 1
 120 120 l 1
 240 120 l 1
 360 120 l 1
480 120 m 1
 480 240 l 1
 480 360 l 1
 480 480 l 1
 600 480 l 1
 600 360 l 1
 600 240 l 1
 600 120 l 1
 480 120 l 1
120 120 m 1
 0 120 l 1
 0 240 l 1
 0 360 l 1
 0 480 l 1
 120 480 l 1
 120 360 l 1
 120 240 l 1
 120 120 l 1
480 480 m 1
 360 480 l 1
 240 480 l 1
 120 480 l 1
 120 600 l 1
 240 600 l 1
 360 600 l 1
 480 600 l 1
 480 480 l 1
360 840 m 1
 360 960 l 1
 480 960 l 1
 480 840 l 1
 360 840 l 1
EndSplineSet
EndChar

StartChar: ocircumflex
Encoding: 244 244 179
Width: 720
GlyphClass: 2
Flags: W
LayerCount: 2
Fore
SplineSet
360 720 m 1
 360 840 l 1
 480 840 l 1
 480 720 l 1
 360 720 l 1
120 720 m 1
 120 840 l 1
 240 840 l 1
 240 720 l 1
 120 720 l 1
360 120 m 1
 480 120 l 1
 480 0 l 1
 360 0 l 1
 240 0 l 1
 120 0 l 1
 120 120 l 1
 240 120 l 1
 360 120 l 1
480 120 m 1
 480 240 l 1
 480 360 l 1
 480 480 l 1
 600 480 l 1
 600 360 l 1
 600 240 l 1
 600 120 l 1
 480 120 l 1
120 120 m 1
 0 120 l 1
 0 240 l 1
 0 360 l 1
 0 480 l 1
 120 480 l 1
 120 360 l 1
 120 240 l 1
 120 120 l 1
480 480 m 1
 360 480 l 1
 240 480 l 1
 120 480 l 1
 120 600 l 1
 240 600 l 1
 360 600 l 1
 480 600 l 1
 480 480 l 1
360 840 m 1
 240 840 l 1
 240 960 l 1
 360 960 l 1
 360 840 l 1
EndSplineSet
EndChar

StartChar: otilde
Encoding: 245 245 180
Width: 720
GlyphClass: 2
Flags: W
LayerCount: 2
Fore
SplineSet
360 720 m 1
 360 840 l 1
 480 840 l 1
 480 720 l 1
 360 720 l 1
120 720 m 1
 120 840 l 1
 240 840 l 1
 240 720 l 1
 120 720 l 1
360 120 m 1
 480 120 l 1
 480 0 l 1
 360 0 l 1
 240 0 l 1
 120 0 l 1
 120 120 l 1
 240 120 l 1
 360 120 l 1
480 120 m 1
 480 240 l 1
 480 360 l 1
 480 480 l 1
 600 480 l 1
 600 360 l 1
 600 240 l 1
 600 120 l 1
 480 120 l 1
120 120 m 1
 0 120 l 1
 0 240 l 1
 0 360 l 1
 0 480 l 1
 120 480 l 1
 120 360 l 1
 120 240 l 1
 120 120 l 1
480 480 m 1
 360 480 l 1
 240 480 l 1
 120 480 l 1
 120 600 l 1
 240 600 l 1
 360 600 l 1
 480 600 l 1
 480 480 l 1
480 840 m 1
 480 960 l 1
 600 960 l 1
 600 840 l 1
 480 840 l 1
360 840 m 1
 240 840 l 1
 240 960 l 1
 360 960 l 1
 360 840 l 1
EndSplineSet
EndChar

StartChar: odieresis
Encoding: 246 246 181
Width: 720
GlyphClass: 2
Flags: W
LayerCount: 2
Fore
SplineSet
360 720 m 1
 360 840 l 1
 480 840 l 1
 480 720 l 1
 360 720 l 1
120 720 m 1
 120 840 l 1
 240 840 l 1
 240 720 l 1
 120 720 l 1
360 120 m 1
 480 120 l 1
 480 0 l 1
 360 0 l 1
 240 0 l 1
 120 0 l 1
 120 120 l 1
 240 120 l 1
 360 120 l 1
480 120 m 1
 480 240 l 1
 480 360 l 1
 480 480 l 1
 600 480 l 1
 600 360 l 1
 600 240 l 1
 600 120 l 1
 480 120 l 1
120 120 m 1
 0 120 l 1
 0 240 l 1
 0 360 l 1
 0 480 l 1
 120 480 l 1
 120 360 l 1
 120 240 l 1
 120 120 l 1
480 480 m 1
 360 480 l 1
 240 480 l 1
 120 480 l 1
 120 600 l 1
 240 600 l 1
 360 600 l 1
 480 600 l 1
 480 480 l 1
EndSplineSet
EndChar

StartChar: divide
Encoding: 247 247 182
Width: 720
GlyphClass: 2
Flags: W
LayerCount: 2
Fore
SplineSet
240 120 m 1
 240 240 l 1
 360 240 l 1
 360 120 l 1
 240 120 l 1
240 600 m 1
 240 720 l 1
 360 720 l 1
 360 600 l 1
 240 600 l 1
480 480 m 1
 600 480 l 1
 600 360 l 1
 480 360 l 1
 360 360 l 1
 240 360 l 1
 120 360 l 1
 0 360 l 1
 0 480 l 1
 120 480 l 1
 240 480 l 1
 360 480 l 1
 480 480 l 1
EndSplineSet
EndChar

StartChar: oslash
Encoding: 248 248 183
Width: 720
GlyphClass: 2
Flags: W
LayerCount: 2
Fore
SplineSet
360 120 m 1
 480 120 l 1
 480 0 l 1
 360 0 l 1
 240 0 l 1
 120 0 l 1
 120 120 l 1
 0 120 l 1
 0 240 l 1
 0 360 l 1
 0 480 l 1
 120 480 l 1
 120 360 l 1
 120 240 l 1
 240 240 l 1
 240 120 l 1
 360 120 l 1
480 120 m 1
 480 240 l 1
 480 360 l 1
 360 360 l 1
 360 240 l 1
 240 240 l 1
 240 360 l 1
 360 360 l 1
 360 480 l 1
 240 480 l 1
 120 480 l 1
 120 600 l 1
 240 600 l 1
 360 600 l 1
 480 600 l 1
 480 480 l 1
 600 480 l 1
 600 360 l 1
 600 240 l 1
 600 120 l 1
 480 120 l 1
EndSplineSet
EndChar

StartChar: ugrave
Encoding: 249 249 184
Width: 720
GlyphClass: 2
Flags: W
LayerCount: 2
Fore
SplineSet
240 720 m 1
 240 840 l 1
 360 840 l 1
 360 720 l 1
 240 720 l 1
480 0 m 1
 360 0 l 1
 240 0 l 1
 120 0 l 1
 120 120 l 1
 240 120 l 1
 360 120 l 1
 480 120 l 1
 480 240 l 1
 480 360 l 1
 480 480 l 1
 480 600 l 1
 600 600 l 1
 600 480 l 1
 600 360 l 1
 600 240 l 1
 600 120 l 1
 600 0 l 1
 480 0 l 1
120 120 m 1
 0 120 l 1
 0 240 l 1
 0 360 l 1
 0 480 l 1
 0 600 l 1
 120 600 l 1
 120 480 l 1
 120 360 l 1
 120 240 l 1
 120 120 l 1
240 840 m 1
 120 840 l 1
 120 960 l 1
 240 960 l 1
 240 840 l 1
EndSplineSet
EndChar

StartChar: uacute
Encoding: 250 250 185
Width: 720
GlyphClass: 2
Flags: W
LayerCount: 2
Fore
SplineSet
240 720 m 1
 240 840 l 1
 360 840 l 1
 360 720 l 1
 240 720 l 1
480 0 m 1
 360 0 l 1
 240 0 l 1
 120 0 l 1
 120 120 l 1
 240 120 l 1
 360 120 l 1
 480 120 l 1
 480 240 l 1
 480 360 l 1
 480 480 l 1
 480 600 l 1
 600 600 l 1
 600 480 l 1
 600 360 l 1
 600 240 l 1
 600 120 l 1
 600 0 l 1
 480 0 l 1
120 120 m 1
 0 120 l 1
 0 240 l 1
 0 360 l 1
 0 480 l 1
 0 600 l 1
 120 600 l 1
 120 480 l 1
 120 360 l 1
 120 240 l 1
 120 120 l 1
360 840 m 1
 360 960 l 1
 480 960 l 1
 480 840 l 1
 360 840 l 1
EndSplineSet
EndChar

StartChar: ucircumflex
Encoding: 251 251 186
Width: 720
GlyphClass: 2
Flags: W
LayerCount: 2
Fore
SplineSet
360 720 m 1
 360 840 l 1
 480 840 l 1
 480 720 l 1
 360 720 l 1
120 720 m 1
 120 840 l 1
 240 840 l 1
 240 720 l 1
 120 720 l 1
480 0 m 1
 360 0 l 1
 240 0 l 1
 120 0 l 1
 120 120 l 1
 240 120 l 1
 360 120 l 1
 480 120 l 1
 480 240 l 1
 480 360 l 1
 480 480 l 1
 480 600 l 1
 600 600 l 1
 600 480 l 1
 600 360 l 1
 600 240 l 1
 600 120 l 1
 600 0 l 1
 480 0 l 1
120 120 m 1
 0 120 l 1
 0 240 l 1
 0 360 l 1
 0 480 l 1
 0 600 l 1
 120 600 l 1
 120 480 l 1
 120 360 l 1
 120 240 l 1
 120 120 l 1
360 840 m 1
 240 840 l 1
 240 960 l 1
 360 960 l 1
 360 840 l 1
EndSplineSet
EndChar

StartChar: udieresis
Encoding: 252 252 187
Width: 720
GlyphClass: 2
Flags: W
LayerCount: 2
Fore
SplineSet
360 720 m 1
 360 840 l 1
 480 840 l 1
 480 720 l 1
 360 720 l 1
120 720 m 1
 120 840 l 1
 240 840 l 1
 240 720 l 1
 120 720 l 1
480 0 m 1
 360 0 l 1
 240 0 l 1
 120 0 l 1
 120 120 l 1
 240 120 l 1
 360 120 l 1
 480 120 l 1
 480 240 l 1
 480 360 l 1
 480 480 l 1
 480 600 l 1
 600 600 l 1
 600 480 l 1
 600 360 l 1
 600 240 l 1
 600 120 l 1
 600 0 l 1
 480 0 l 1
120 120 m 1
 0 120 l 1
 0 240 l 1
 0 360 l 1
 0 480 l 1
 0 600 l 1
 120 600 l 1
 120 480 l 1
 120 360 l 1
 120 240 l 1
 120 120 l 1
EndSplineSet
EndChar

StartChar: yacute
Encoding: 253 253 188
Width: 720
GlyphClass: 2
Flags: W
LayerCount: 2
Fore
SplineSet
240 720 m 1
 240 840 l 1
 360 840 l 1
 360 720 l 1
 240 720 l 1
360 0 m 1
 480 0 l 1
 480 -120 l 1
 360 -120 l 1
 240 -120 l 1
 120 -120 l 1
 0 -120 l 1
 0 0 l 1
 120 0 l 1
 240 0 l 1
 360 0 l 1
480 0 m 1
 480 120 l 1
 360 120 l 1
 240 120 l 1
 120 120 l 1
 120 240 l 1
 240 240 l 1
 360 240 l 1
 480 240 l 1
 480 360 l 1
 480 480 l 1
 480 600 l 1
 600 600 l 1
 600 480 l 1
 600 360 l 1
 600 240 l 1
 600 120 l 1
 600 0 l 1
 480 0 l 1
120 240 m 1
 0 240 l 1
 0 360 l 1
 0 480 l 1
 0 600 l 1
 120 600 l 1
 120 480 l 1
 120 360 l 1
 120 240 l 1
360 840 m 1
 360 960 l 1
 480 960 l 1
 480 840 l 1
 360 840 l 1
EndSplineSet
EndChar

StartChar: Aogonek
Encoding: 260 260 189
Width: 720
GlyphClass: 2
Flags: HMW
HStem: -239 120<480 600 360 480> -119 21G<360 480 360 360 480 600 600 600> -19 20G<360 480> 0 21G<0 120 0 0 480 600 480 480> 480 120<0 0 120 240 240 360 360 480> 720 120<0 240 120 240 120 240 120 240 240 360 360 480>
VStem: 0 120<0 120 120 240 240 360 360 480 600 720> 360 120<-119 1 1 1> 480 120<-239 -119 -239 -119 -239 0 0 1 -239 -119 0 120 120 240 240 360 360 480 600 720>
LayerCount: 2
Fore
SplineSet
600 -119 m 1x8e80
 600 -239 l 1
 480 -239 l 1x8e80
 480 -119 l 1x8f
 600 -119 l 1x8e80
480 0 m 1
 480 -119 l 1xaf
 360 -119 l 1
 360 1 l 1x6f
 480 0 l 1
480 0 m 1x1f
 480 120 l 1
 480 240 l 1
 480 360 l 1
 480 480 l 1x1e80
 360 480 l 1
 240 480 l 1
 120 480 l 1
 120 360 l 1
 120 240 l 1
 120 120 l 1
 120 0 l 1
 0 0 l 1
 0 120 l 1
 0 240 l 1
 0 360 l 1
 0 480 l 1
 0 600 l 1
 0 720 l 1
 120 720 l 1
 120 600 l 1
 240 600 l 1
 360 600 l 1x1f
 480 600 l 1
 480 720 l 1
 600 720 l 1
 600 600 l 1
 600 480 l 1
 600 360 l 1
 600 240 l 1
 600 120 l 1
 600 0 l 1x1e80
 480 0 l 1x1f
480 720 m 1
 360 720 l 1
 240 720 l 1
 120 720 l 1
 120 840 l 1
 240 840 l 1
 360 840 l 1x0f
 480 840 l 1
 480 720 l 1
EndSplineSet
EndChar

StartChar: aogonek
Encoding: 261 261 190
Width: 720
GlyphClass: 2
Flags: HMW
HStem: -239 120<480 600 360 480> -119 21G<360 480 360 360 480 600 600 600> 0 1<240 480 360 480 360 600> 0 120<120 240 0 120 240 360 360 480> 240 120<0 240 120 240 120 240 120 240 240 360 360 480> 480 120<120 240 120 240 240 360 360 480>
VStem: 0 120<120 240> 360 120<-119 1 0 0> 480 120<-239 -119 -239 -119 -239 0 0 1 -239 -119 -239 0 120 240 360 480>
LayerCount: 2
Fore
SplineSet
600 -120 m 1
 600 -240 l 1
 480 -240 l 1
 480 -120 l 1
 600 -120 l 1
480 -120 m 1
 360 -120 l 1
 360 0 l 1
 240 0 l 1
 120 0 l 1
 120 120 l 1
 0 120 l 1
 0 240 l 1
 120 240 l 1
 120 360 l 1
 240 360 l 1
 360 360 l 1x1f
 480 360 l 1
 480 480 l 1
 600 480 l 1
 600 360 l 1
 600 240 l 1
 600 120 l 1x1e80
 600 0 l 1x2e80
 480 0 l 1
 480 -120 l 1
360 120 m 1
 480 120 l 1
 480 240 l 1x1e80
 360 240 l 1
 240 240 l 1
 120 240 l 1
 120 120 l 1
 240 120 l 1
 360 120 l 1
480 480 m 1
 360 480 l 1
 240 480 l 1
 120 480 l 1
 120 600 l 1
 240 600 l 1
 360 600 l 1x0f
 480 600 l 1
 480 480 l 1
EndSplineSet
EndChar

StartChar: Cacute
Encoding: 262 262 191
Width: 720
GlyphClass: 2
Flags: HMW
HStem: 0 120<120 240 0 120 240 360 360 480> 120 120<0 120 0 0 480 600> 600 120<0 120 0 120 480 600> 720 120<0 240 120 240 120 240 120 240 240 360 360 480> 960 120<240 360 240 360> 1080 120<240 480 360 480 360 480>
VStem: 0 120<120 240 240 360 360 480 480 600 600 720> 120 360<0 120 120 240 0 120 0 120 0 360 0 480 600 720 720 840> 240 120<0 0 960 1080> 360 120<0 120 0 120 1080 1200> 480 120<0 240 120 240 120 240 600 720>
LayerCount: 2
Fore
SplineSet
480 1200 m 1x0440
 480 1080 l 1x0440
 360 1080 l 1x0880
 360 1200 l 1
 480 1200 l 1x0440
360 1080 m 1
 360 960 l 1
 240 960 l 1
 240 1080 l 1
 360 1080 l 1
480 600 m 1
 480 720 l 1x21
 600 720 l 1
 600 600 l 1
 480 600 l 1
360 120 m 1x8040
 480 120 l 1
 480 0 l 1x81
 360 0 l 1x8040
 240 0 l 1x8080
 120 0 l 1x81
 120 120 l 1
 240 120 l 1x8280
 360 120 l 1x8040
480 120 m 1
 480 240 l 1
 600 240 l 1
 600 120 l 1x4020
 480 120 l 1
120 120 m 1x82
 0 120 l 1
 0 240 l 1
 0 360 l 1
 0 480 l 1
 0 600 l 1x62
 0 720 l 1
 120 720 l 1x12
 120 600 l 1
 120 480 l 1
 120 360 l 1
 120 240 l 1x62
 120 120 l 1x82
480 720 m 1x21
 360 720 l 1x1040
 240 720 l 1
 120 720 l 1x1280
 120 840 l 1x11
 240 840 l 1x1080
 360 840 l 1x1040
 480 840 l 1x11
 480 720 l 1x21
EndSplineSet
EndChar

StartChar: cacute
Encoding: 263 263 192
Width: 720
GlyphClass: 2
Flags: HMW
HStem: 0 120<120 240 0 120 240 360 360 480> 120 120<0 120 0 0 480 600> 360 120<0 120 0 120 480 600> 480 120<0 240 120 240 120 240 120 240 240 360 360 480> 720 120<240 360 240 360> 840 120<240 480 360 480 360 480>
VStem: 0 120<120 240 240 360 360 480> 120 360<0 120 120 240 0 120 0 120 0 360 360 480 480 600> 240 120<0 0 720 840> 360 120<0 120 0 120 840 960> 480 120<0 240 120 240 120 240 360 480>
LayerCount: 2
Fore
SplineSet
480 960 m 1x0040
 480 840 l 1x0440
 360 840 l 1x0880
 360 960 l 1
 480 960 l 1x0040
360 840 m 1
 360 720 l 1
 240 720 l 1
 240 840 l 1
 360 840 l 1
480 360 m 1
 480 480 l 1x21
 600 480 l 1
 600 360 l 1
 480 360 l 1
360 120 m 1x8040
 480 120 l 1
 480 0 l 1x81
 360 0 l 1x8040
 240 0 l 1x8080
 120 0 l 1x81
 120 120 l 1
 240 120 l 1x8280
 360 120 l 1x8040
480 120 m 1
 480 240 l 1
 600 240 l 1
 600 120 l 1x4020
 480 120 l 1
120 120 m 1x82
 0 120 l 1
 0 240 l 1
 0 360 l 1x62
 0 480 l 1
 120 480 l 1x12
 120 360 l 1
 120 240 l 1x62
 120 120 l 1x82
480 480 m 1x21
 360 480 l 1x1040
 240 480 l 1
 120 480 l 1x1280
 120 600 l 1x11
 240 600 l 1x1080
 360 600 l 1x1040
 480 600 l 1x11
 480 480 l 1x21
EndSplineSet
EndChar

StartChar: Eogonek
Encoding: 280 280 193
Width: 720
GlyphClass: 2
Flags: HMW
HStem: -240 120<480 600 360 480> -120 21G<360 480 360 360 480 600 600 600> -20 20G<0 120 0 0 120 240 240 360 360 480 360 480 480 600> 0 120<0 120 0 0 120 240 240 360 360 480 360 480 480 600> 480 120<0 0 120 240 240 360> 720 120<0 120 0 120 120 240 240 360 360 480 480 600>
VStem: 0 120<0 120 120 240 240 360 360 480 600 720> 360 120<-120 0> 480 120<-240 -120 -240 -120 -240 0 -240 -120 59.5 59.5>
LayerCount: 2
Fore
SplineSet
600 -120 m 1x8e80
 600 -240 l 1
 480 -240 l 1x8e80
 480 -120 l 1x8f
 600 -120 l 1x8e80
480 -120 m 1xaf
 360 -120 l 1
 360 0 l 1x2f
 240 0 l 1
 120 0 l 1
 0 0 l 1
 0 120 l 1
 0 240 l 1
 0 360 l 1
 0 480 l 1
 0 600 l 1
 0 720 l 1
 0 840 l 1
 120 840 l 1
 240 840 l 1
 360 840 l 1x1f
 480 840 l 1
 600 840 l 1
 600 720 l 1
 480 720 l 1x1e80
 360 720 l 1
 240 720 l 1
 120 720 l 1
 120 600 l 1
 240 600 l 1
 360 600 l 1
 360 480 l 1
 240 480 l 1
 120 480 l 1
 120 360 l 1
 120 240 l 1
 120 120 l 1
 240 120 l 1
 360 120 l 1x1f
 480 120 l 1
 600 120 l 1
 600 0 l 1x1e80
 480 0 l 1
 480 -120 l 1xaf
EndSplineSet
EndChar

StartChar: eogonek
Encoding: 281 281 194
Width: 720
GlyphClass: 2
Flags: HMW
HStem: -240 120<480 600 360 480> -120 21G<360 480 360 360 480 600 600 600> -20 20G<120 240 120 120 240 360 360 480 360 480 360 480 360 480 480 600> 0 120<120 240 0 120 240 360 360 480 360 480 360 480 360 480 480 600> 240 120<0 0 120 240 240 360 360 480> 480 120<0 240 120 240 120 240 120 240 240 360 360 480>
VStem: 0 120<120 240 360 480> 360 120<-120 0> 480 120<-240 -120 -240 -120 -240 0 -240 -120 360 480>
LayerCount: 2
Fore
SplineSet
600 -120 m 1x8e80
 600 -240 l 1
 480 -240 l 1x8e80
 480 -120 l 1x8f
 600 -120 l 1x8e80
360 0 m 1x2f
 240 0 l 1
 120 0 l 1
 120 120 l 1
 240 120 l 1
 360 120 l 1x1f
 480 120 l 1x1e80
 600 120 l 1
 600 0 l 1x1e80
 480 0 l 1
 480 -120 l 1xaf
 360 -120 l 1
 360 0 l 1x2f
120 120 m 1
 0 120 l 1
 0 240 l 1
 0 360 l 1
 0 480 l 1
 120 480 l 1
 120 360 l 1
 240 360 l 1
 360 360 l 1x1f
 480 360 l 1
 480 480 l 1
 600 480 l 1
 600 360 l 1
 600 240 l 1
 480 240 l 1x1e80
 360 240 l 1x1f
 240 240 l 1
 120 240 l 1
 120 120 l 1
480 480 m 1x0e80
 360 480 l 1
 240 480 l 1
 120 480 l 1
 120 600 l 1
 240 600 l 1
 360 600 l 1x0f
 480 600 l 1
 480 480 l 1x0e80
EndSplineSet
EndChar

StartChar: Lslash
Encoding: 321 321 195
Width: 720
GlyphClass: 2
Flags: MW
HStem: 0 120<0 120 0 0 120 240 240 360 360 480 480 600> 240 120<-120 0 -120 0 -120 0> 360 120<-120 0 0 0 0 0 120 240> 480 120<0 0 240 360> 820 20G<0 120 120 120>
VStem: 0 120<0 120 120 240 240 360 240 360 360 480 480 600 600 720 720 840> 240 120<0 0 480 600>
LayerCount: 2
Fore
SplineSet
360 600 m 1x9e
 360 480 l 1x9e
 240 480 l 1xae
 240 600 l 1
 360 600 l 1x9e
240 480 m 1xae
 240 360 l 1
 120 360 l 1
 120 480 l 1
 240 480 l 1xae
0 360 m 1xce
 0 240 l 1
 -120 240 l 1
 -120 360 l 1
 0 360 l 1xce
480 120 m 1
 600 120 l 1
 600 0 l 1
 480 0 l 1
 360 0 l 1
 240 0 l 1
 120 0 l 1
 0 0 l 1
 0 120 l 1
 0 240 l 1
 0 360 l 1
 0 480 l 1
 0 600 l 1
 0 720 l 1
 0 840 l 1
 120 840 l 1
 120 720 l 1
 120 600 l 1xde
 120 480 l 1
 120 360 l 1xae
 120 240 l 1
 120 120 l 1
 240 120 l 1
 360 120 l 1
 480 120 l 1
EndSplineSet
EndChar

StartChar: lslash
Encoding: 322 322 196
Width: 720
GlyphClass: 2
Flags: MW
HStem: 0 120<360 480 240 360 480 600> 240 120<120 240 120 240 120 240> 360 120<120 240 240 240 240 240 360 480> 480 120<240 240 480 600> 720 120<120 240 120 240>
VStem: 120 240<240 360 720 840> 240 120<120 240 240 360 240 360 360 480 480 600 600 720> 480 120<0 120 0 120 480 600>
LayerCount: 2
Fore
SplineSet
600 600 m 1x99
 600 480 l 1x99
 480 480 l 1xa9
 480 600 l 1
 600 600 l 1x99
480 480 m 1xab
 480 360 l 1
 360 360 l 1xad
 360 480 l 1
 480 480 l 1xab
240 360 m 1xcb
 240 240 l 1xcb
 120 240 l 1
 120 360 l 1xcd
 240 360 l 1xcb
480 120 m 1
 600 120 l 1
 600 0 l 1
 480 0 l 1
 360 0 l 1
 360 120 l 1
 480 120 l 1
360 120 m 1
 240 120 l 1
 240 240 l 1
 240 360 l 1
 240 480 l 1
 240 600 l 1
 240 720 l 1xdb
 120 720 l 1
 120 840 l 1xdd
 240 840 l 1xdb
 360 840 l 1
 360 720 l 1xdd
 360 600 l 1xdb
 360 480 l 1xab
 360 360 l 1xad
 360 240 l 1xcd
 360 120 l 1
EndSplineSet
EndChar

StartChar: Nacute
Encoding: 323 323 197
Width: 720
GlyphClass: 2
Flags: HMW
HStem: 0 21G<0 0 0 120 480 600> 480 120<0 0 240 360> 600 120<0 0 120 240> 820 20G<0 120 120 120 480 600 600 600> 960 120<240 360 240 360> 1080 120<240 480 360 480 360 480>
VStem: 0 120<0 120 120 240 240 360 360 480 480 600 720 840> 240 120<480 600 960 1080> 360 120<480 600 1080 1200> 480 120<0 120 120 240 240 360 480 600 600 720 720 840>
LayerCount: 2
Fore
SplineSet
480 1200 m 1x9680
 480 1080 l 1x9680
 360 1080 l 1x9b
 360 1200 l 1
 480 1200 l 1x9680
360 1080 m 1
 360 960 l 1
 240 960 l 1
 240 1080 l 1
 360 1080 l 1
480 0 m 1
 480 120 l 1
 480 240 l 1
 480 360 l 1xd340
 360 360 l 1xd280
 360 480 l 1
 480 480 l 1xd340
 480 600 l 1
 480 720 l 1
 480 840 l 1
 600 840 l 1
 600 720 l 1
 600 600 l 1xb340
 600 480 l 1
 600 360 l 1
 600 240 l 1
 600 120 l 1
 600 0 l 1
 480 0 l 1
0 0 m 1
 0 120 l 1
 0 240 l 1
 0 360 l 1
 0 480 l 1xd3
 0 600 l 1
 0 720 l 1
 0 840 l 1
 120 840 l 1
 120 720 l 1
 240 720 l 1xb3
 240 600 l 1
 360 600 l 1
 360 480 l 1
 240 480 l 1
 240 600 l 1xd3
 120 600 l 1xb3
 120 480 l 1
 120 360 l 1
 120 240 l 1
 120 120 l 1
 120 0 l 1
 0 0 l 1
EndSplineSet
EndChar

StartChar: nacute
Encoding: 324 324 198
Width: 720
GlyphClass: 2
Flags: HMW
HStem: 0 21G<0 0 0 120 480 600> 480 120<0 120 0 120 120 240 240 360 360 480> 720 120<240 360 240 360> 840 120<240 480 360 480 360 480>
VStem: 0 120<0 120 120 240 240 360 360 480> 240 120<480 480 720 840> 360 120<840 960> 480 120<0 120 120 240 240 360 360 480>
LayerCount: 2
Fore
SplineSet
480 960 m 1xda
 480 840 l 1xda
 360 840 l 1xec
 360 960 l 1
 480 960 l 1xda
360 840 m 1
 360 720 l 1
 240 720 l 1
 240 840 l 5
 360 840 l 1
480 0 m 1
 480 120 l 1
 480 240 l 1
 480 360 l 1
 480 480 l 1
 600 480 l 1
 600 360 l 1
 600 240 l 1
 600 120 l 1
 600 0 l 1
 480 0 l 1
0 0 m 1
 0 120 l 1
 0 240 l 1
 0 360 l 1
 0 480 l 1
 0 600 l 1
 120 600 l 1
 240 600 l 1xcc
 360 600 l 1xca
 480 600 l 1
 480 480 l 1xc9
 360 480 l 1xca
 240 480 l 1xcc
 120 480 l 1
 120 360 l 1
 120 240 l 1
 120 120 l 1
 120 0 l 1
 0 0 l 1
EndSplineSet
EndChar

StartChar: Sacute
Encoding: 346 346 199
Width: 720
GlyphClass: 2
Flags: HMW
HStem: 0 120<120 240 0 120 240 360 360 480> 120 120<0 120 0 120 0 240> 480 120<120 240 0 120 240 360 360 480> 600 120<0 120 0 120 120 240 240 360 360 480> 720 120<0 240 120 240 120 240 120 240 240 360 360 480 480 600> 960 120<240 360 240 360> 1080 120<240 480 360 480 360 480>
VStem: 0 120<120 240 600 720> 120 360<0 120 120 240 0 120 0 120 480 600> 240 120<0 0 960 1080> 360 120<0 120 599.5 599.5 1080 1200> 480 120<0 240 120 240 240 360 360 480>
LayerCount: 2
Fore
SplineSet
480 1200 m 1x0220
 480 1080 l 1x0220
 360 1080 l 1x0440
 360 1200 l 1
 480 1200 l 1x0220
360 1080 m 1
 360 960 l 1
 240 960 l 5
 240 1080 l 1
 360 1080 l 1
360 120 m 1
 480 120 l 1
 480 0 l 1x8080
 360 0 l 1x8020
 240 0 l 1x8040
 120 0 l 1x8080
 120 120 l 1
 240 120 l 1x8140
 360 120 l 1
480 120 m 1
 480 240 l 1
 480 360 l 1x4010
 480 480 l 1x6080
 600 480 l 1
 600 360 l 1
 600 240 l 1
 600 120 l 1x6010
 480 120 l 1
120 120 m 1x81
 0 120 l 1
 0 240 l 1
 120 240 l 1x41
 120 120 l 1x81
480 480 m 1x2080
 360 480 l 1x2020
 240 480 l 1x2040
 120 480 l 1x2080
 120 600 l 1
 240 600 l 1x2140
 360 600 l 1x2020
 480 600 l 1
 480 480 l 1x2080
120 600 m 1x21
 0 600 l 1
 0 720 l 1
 120 720 l 1x11
 120 600 l 1x21
480 840 m 1x0810
 600 840 l 1
 600 720 l 1
 480 720 l 1x0810
 360 720 l 1x0820
 240 720 l 1x0840
 120 720 l 1x1140
 120 840 l 1x0880
 240 840 l 1x0840
 360 840 l 1x0820
 480 840 l 1x0810
EndSplineSet
EndChar

StartChar: sacute
Encoding: 347 347 200
Width: 720
GlyphClass: 2
Flags: HMW
HStem: 0 120<0 120 0 120 120 240 240 360 360 480> 120 120<0 240 120 240 240 360 360 480 480 600> 240 120<120 240 0 120 240 360 360 480> 360 120<0 120 0 120 120 240 240 360 360 480> 480 120<0 240 120 240 120 240 120 240 240 360 360 480 480 600> 720 120<240 360 240 360> 840 120<240 480 360 480 360 480>
VStem: 0 120<0 120 360 480> 240 120<0 0 720 840> 360 120<0 120 840 960> 480 120<0 240 120 240 120 360 120 240 120 240>
LayerCount: 2
Fore
SplineSet
480 960 m 1x0340
 480 840 l 1x0340
 360 840 l 1x0580
 360 960 l 1
 480 960 l 1x0340
360 840 m 1
 360 720 l 1
 240 720 l 1
 240 840 l 1
 360 840 l 1
360 120 m 5
 480 120 l 5
 480 0 l 1x8120
 360 0 l 1x8140
 240 0 l 1
 120 0 l 1
 0 0 l 1
 0 120 l 1
 120 120 l 1
 240 120 l 5x8180
 360 120 l 5
480 120 m 1
 480 240 l 1
 600 240 l 1
 600 120 l 1x4120
 480 120 l 1
480 240 m 1
 360 240 l 1x2140
 240 240 l 1
 120 240 l 1
 120 360 l 1
 240 360 l 1x2180
 360 360 l 1x2140
 480 360 l 1x2120
 480 240 l 1
120 360 m 1
 0 360 l 1
 0 480 l 1
 120 480 l 1x11
 120 360 l 1
480 600 m 1x0920
 600 600 l 1
 600 480 l 1
 480 480 l 1x0920
 360 480 l 1x0940
 240 480 l 1x0980
 120 480 l 1x1180
 120 600 l 1
 240 600 l 1x0980
 360 600 l 1x0940
 480 600 l 1x0920
EndSplineSet
EndChar

StartChar: Zacute
Encoding: 377 377 201
Width: 720
GlyphClass: 2
Flags: HMW
HStem: 0 120<0 120 0 0 120 240 240 360 360 480 480 600> 240 120<0 240 120 240 120 240 120 240> 360 120<120 360 240 360 240 360 240 360> 480 120<240 480 360 480 360 480 360 480> 600 21G<360 480 480 600 480 480 480 480> 720 120<0 120 0 120 120 240 240 360 360 480> 960 120<240 360 240 360> 1080 120<240 480 360 480 360 480>
VStem: 0 120<0 120 120 240> 120 120<0 0 240 360> 240 120<0 0 360 480 960 1080> 360 120<0 0 480 600 1080 1200> 480 120<0 120 600 720>
LayerCount: 2
Fore
SplineSet
480 1200 m 1x8510
 480 1080 l 1x8510
 360 1080 l 1x8620
 360 1200 l 1
 480 1200 l 1x8510
360 1080 m 1
 360 960 l 1
 240 960 l 1
 240 1080 l 1
 360 1080 l 1
480 120 m 1
 600 120 l 1
 600 0 l 1
 480 0 l 1xc408
 360 0 l 1xc410
 240 0 l 1xc420
 120 0 l 1xc440
 0 0 l 1
 0 120 l 1
 0 240 l 1
 120 240 l 1
 120 120 l 1
 240 120 l 1xc4a0
 360 120 l 1xc410
 480 120 l 1
120 240 m 1xc480
 120 360 l 1
 240 360 l 1
 240 240 l 1xc440
 120 240 l 1xc480
240 360 m 1
 240 480 l 1
 360 480 l 1
 360 360 l 1xa420
 240 360 l 1
360 480 m 1
 360 600 l 1
 480 600 l 1
 480 480 l 1x9410
 360 480 l 1
480 600 m 1
 480 720 l 1x9408
 360 720 l 1x9410
 240 720 l 1x9420
 120 720 l 1x9440
 0 720 l 1
 0 840 l 1x9480
 120 840 l 1x9440
 240 840 l 1x9420
 360 840 l 1x9410
 480 840 l 1
 600 840 l 1
 600 720 l 1
 600 600 l 1x8c08
 480 600 l 1
EndSplineSet
EndChar

StartChar: zacute
Encoding: 378 378 202
Width: 720
GlyphClass: 2
Flags: HMW
HStem: 0 120<0 120 0 120 0 240 240 360 360 480 480 600> 240 120<120 360 240 360 240 360 240 360> 480 120<0 120 0 120 120 240 240 360 480 600> 720 120<240 360 240 360> 840 120<240 480 360 480 360 480>
VStem: 240 120<0 0 240 360 720 840> 360 120<0 0 360 480 840 960>
LayerCount: 2
Fore
SplineSet
480 960 m 1xea
 480 840 l 1xea
 360 840 l 1xf4
 360 960 l 1
 480 960 l 1xea
360 840 m 1
 360 720 l 1
 240 720 l 1
 240 840 l 1
 360 840 l 1
480 120 m 5
 600 120 l 5
 600 0 l 1
 480 0 l 1
 360 0 l 1xe2
 240 0 l 1
 120 0 l 1
 0 0 l 1
 0 120 l 1
 120 120 l 1
 120 240 l 1
 240 240 l 1
 240 120 l 1xe4
 360 120 l 5
 480 120 l 5
240 240 m 1xe4
 240 360 l 1
 360 360 l 1
 360 240 l 1
 240 240 l 1xe4
360 360 m 1
 360 480 l 1xe2
 240 480 l 1
 120 480 l 1
 0 480 l 1
 0 600 l 1
 120 600 l 1
 240 600 l 1xe4
 360 600 l 1
 480 600 l 1
 600 600 l 1
 600 480 l 1
 480 480 l 1
 480 360 l 1xe2
 360 360 l 1
EndSplineSet
EndChar

StartChar: Zdotaccent
Encoding: 379 379 203
Width: 720
GlyphClass: 2
Flags: HMW
HStem: 0 120<0 120 0 0 120 240 240 360 360 480 480 600> 240 120<0 240 120 240 120 240 120 240> 360 120<120 360 240 360 240 360 240 360> 480 120<240 480 360 480 360 480 360 480> 600 21G<360 480 480 600 480 480 480 480> 720 120<0 120 0 120 120 240 240 360 360 480> 960 120<240 360 240 360>
VStem: 0 120<0 120 120 240> 120 120<0 0 240 360> 240 120<0 0 360 480 960 1080> 360 120<0 0 480 600> 480 120<0 120 600 720>
LayerCount: 2
Fore
SplineSet
360 1080 m 1x8640
 360 960 l 1
 240 960 l 1
 240 1080 l 1
 360 1080 l 1x8640
480 120 m 5
 600 120 l 5
 600 0 l 1
 480 0 l 1xc610
 360 0 l 1xc620
 240 0 l 1xc640
 120 0 l 1xc680
 0 0 l 1
 0 120 l 1
 0 240 l 1
 120 240 l 1
 120 120 l 1
 240 120 l 1xc740
 360 120 l 5xc620
 480 120 l 5
120 240 m 1xc7
 120 360 l 1
 240 360 l 1
 240 240 l 1xc680
 120 240 l 1xc7
240 360 m 1
 240 480 l 1
 360 480 l 1
 360 360 l 1xa640
 240 360 l 1
360 480 m 1
 360 600 l 1
 480 600 l 1
 480 480 l 1x9620
 360 480 l 1
480 600 m 1
 480 720 l 1x9610
 360 720 l 1x9620
 240 720 l 1x9640
 120 720 l 1x9680
 0 720 l 1
 0 840 l 1x97
 120 840 l 1x9680
 240 840 l 1x9640
 360 840 l 1x9620
 480 840 l 1
 600 840 l 1
 600 720 l 1
 600 600 l 1x8e10
 480 600 l 1
EndSplineSet
EndChar

StartChar: zdotaccent
Encoding: 380 380 204
Width: 720
GlyphClass: 2
Flags: HMW
HStem: 0 120<0 120 0 120 0 240 240 360 360 480 480 600> 240 120<120 360 240 360 240 360 240 360> 480 120<0 120 0 120 120 240 240 360 480 600> 720 120<240 360 240 360>
VStem: 240 120<0 0 240 360 720 840>
LayerCount: 2
Fore
SplineSet
360 840 m 1
 360 720 l 5
 240 720 l 1
 240 840 l 1
 360 840 l 1
480 120 m 1
 600 120 l 1
 600 0 l 1
 480 0 l 1
 360 0 l 1
 240 0 l 1
 120 0 l 1
 0 0 l 1
 0 120 l 1
 120 120 l 1
 120 240 l 1
 240 240 l 1
 240 120 l 1
 360 120 l 1
 480 120 l 1
240 240 m 1
 240 360 l 1
 360 360 l 1
 360 240 l 1
 240 240 l 1
360 360 m 1
 360 480 l 1
 240 480 l 1
 120 480 l 1
 0 480 l 1
 0 600 l 1
 120 600 l 1
 240 600 l 1
 360 600 l 1
 480 600 l 1
 600 600 l 1
 600 480 l 1
 480 480 l 1
 480 360 l 1
 360 360 l 1
EndSplineSet
EndChar

StartChar: Euro
Encoding: 8364 8364 205
Width: 720
GlyphClass: 2
Flags: W
LayerCount: 2
Fore
SplineSet
480 600 m 1
 480 720 l 1
 600 720 l 1
 600 600 l 1
 480 600 l 1
360 120 m 1
 480 120 l 1
 480 0 l 1
 360 0 l 1
 240 0 l 1
 240 120 l 1
 360 120 l 1
480 120 m 1
 480 240 l 1
 600 240 l 1
 600 120 l 1
 480 120 l 1
240 120 m 1
 120 120 l 1
 120 240 l 1
 0 240 l 1
 0 360 l 1
 120 360 l 1
 120 480 l 1
 0 480 l 1
 0 600 l 1
 120 600 l 1
 120 720 l 1
 240 720 l 1
 240 600 l 1
 360 600 l 1
 360 480 l 1
 240 480 l 1
 240 360 l 1
 360 360 l 1
 360 240 l 1
 240 240 l 1
 240 120 l 1
480 720 m 1
 360 720 l 1
 240 720 l 1
 240 840 l 1
 360 840 l 1
 480 840 l 1
 480 720 l 1
EndSplineSet
EndChar

StartChar: smileface
Encoding: 9786 9786 206
Width: 720
GlyphClass: 2
Flags: W
LayerCount: 2
Fore
SplineSet
360 480 m 1
 360 600 l 1
 360 720 l 1
 480 720 l 1
 480 600 l 1
 480 480 l 1
 360 480 l 1
120 480 m 1
 120 600 l 1
 120 720 l 1
 240 720 l 1
 240 600 l 1
 240 480 l 1
 120 480 l 1
360 240 m 1
 480 240 l 1
 480 120 l 1
 360 120 l 1
 240 120 l 1
 120 120 l 1
 120 240 l 1
 240 240 l 1
 360 240 l 1
480 240 m 1
 480 360 l 1
 600 360 l 1
 600 240 l 1
 480 240 l 1
120 240 m 1
 0 240 l 1
 0 360 l 1
 120 360 l 1
 120 240 l 1
EndSplineSet
EndChar

StartChar: invsmileface
Encoding: 9787 9787 207
Width: 720
GlyphClass: 2
Flags: W
LayerCount: 2
Fore
SplineSet
480 0 m 1
 360 0 l 1
 240 0 l 1
 120 0 l 1
 120 120 l 1
 0 120 l 1
 0 240 l 1
 0 360 l 1
 0 480 l 1
 0 600 l 1
 0 720 l 1
 120 720 l 1
 120 840 l 1
 240 840 l 1
 360 840 l 1
 480 840 l 1
 600 840 l 1
 600 720 l 1
 720 720 l 1
 720 600 l 1
 720 480 l 1
 720 360 l 1
 720 240 l 1
 720 120 l 1
 600 120 l 1
 600 0 l 1
 480 0 l 1
360 120 m 1
 480 120 l 1
 480 240 l 1
 360 240 l 1
 240 240 l 1
 240 360 l 1
 120 360 l 1
 120 240 l 1
 240 240 l 1
 240 120 l 1
 360 120 l 1
600 240 m 1
 600 360 l 1
 480 360 l 1
 480 240 l 1
 600 240 l 1
600 480 m 1
 600 600 l 1
 480 600 l 1
 480 480 l 1
 600 480 l 1
360 600 m 1
 360 720 l 1
 240 720 l 1
 240 600 l 1
 360 600 l 1
EndSplineSet
EndChar

StartChar: heart
Encoding: 9829 9829 208
Width: 720
GlyphClass: 2
Flags: W
LayerCount: 2
Fore
SplineSet
240 0 m 1
 240 120 l 1
 120 120 l 1
 120 240 l 1
 0 240 l 1
 0 360 l 1
 0 480 l 1
 0 600 l 1
 120 600 l 1
 120 720 l 1
 240 720 l 1
 240 600 l 1
 360 600 l 1
 360 720 l 1
 480 720 l 1
 480 600 l 1
 600 600 l 1
 600 480 l 1
 600 360 l 1
 600 240 l 1
 480 240 l 1
 480 120 l 1
 360 120 l 1
 360 0 l 1
 240 0 l 1
EndSplineSet
EndChar

StartChar: doubleequal
Encoding: 65537 -1 210
Width: 1440
GlyphClass: 3
Flags: W
LayerCount: 2
Fore
SplineSet
480 240 m 1
 1320 240 l 1
 1320 120 l 1
 480 120 l 1
 360 120 l 1
 240 120 l 1
 120 120 l 1
 0 120 l 1
 0 240 l 1
 120 240 l 1
 240 240 l 1
 360 240 l 1
 480 240 l 1
480 600 m 1
 1320 600 l 1
 1320 480 l 1
 480 480 l 1
 360 480 l 1
 240 480 l 1
 120 480 l 1
 0 480 l 1
 0 600 l 1
 120 600 l 1
 240 600 l 1
 360 600 l 1
 480 600 l 1
EndSplineSet
Ligature2: "Podtablica 'liga' Ligatury zwyk+AUIA-e w +AUIA-aci+AUQA-skie w tablicy 0" equal equal
EndChar

StartChar: tripleequal
Encoding: 65538 -1 211
Width: 2160
GlyphClass: 3
Flags: W
LayerCount: 2
Fore
SplineSet
480 480 m 1
 2040 480 l 1
 2040 360 l 1
 480 360 l 1
 360 360 l 1
 240 360 l 1
 120 360 l 1
 0 360 l 1
 0 480 l 1
 120 480 l 1
 240 480 l 1
 360 480 l 1
 480 480 l 1
480 240 m 1
 2040 240 l 1
 2040 120 l 1
 480 120 l 1
 360 120 l 1
 240 120 l 1
 120 120 l 1
 0 120 l 1
 0 240 l 1
 120 240 l 1
 240 240 l 1
 360 240 l 1
 480 240 l 1
480 720 m 1
 2040 720 l 1
 2040 600 l 1
 480 600 l 1
 360 600 l 1
 240 600 l 1
 120 600 l 1
 0 600 l 1
 0 720 l 1
 120 720 l 1
 240 720 l 1
 360 720 l 1
 480 720 l 1
EndSplineSet
Ligature2: "Podtablica 'liga' Ligatury zwyk+AUIA-e w +AUIA-aci+AUQA-skie w tablicy 0" equal equal equal
EndChar

StartChar: notdoubleequal
Encoding: 65539 -1 212
Width: 1440
GlyphClass: 3
Flags: W
LayerCount: 2
Fore
SplineSet
480 -120 m 1
 480 120 l 1
 600 120 l 1
 600 -120 l 1
 480 -120 l 1
600 -120 m 1
 480 -120 l 1
 600 -120 l 1
720 840 m 1
 840 840 l 1
 840 600 l 1
 720 600 l 1
 720 840 l 1
600 480 m 1
 720 480 l 1
 720 240 l 1
 600 240 l 1
 600 480 l 1
480 240 m 1
 600 240 l 1
 720 240 l 1
 1320 240 l 1
 1320 120 l 1
 600 120 l 1
 480 120 l 1
 360 120 l 1
 240 120 l 1
 120 120 l 1
 0 120 l 1
 0 240 l 1
 120 240 l 1
 240 240 l 1
 360 240 l 1
 480 240 l 1
480 600 m 1
 720 600 l 1
 840 600 l 1
 1320 600 l 1
 1320 480 l 1
 720 480 l 1
 600 480 l 1
 480 480 l 1
 360 480 l 1
 240 480 l 1
 120 480 l 1
 0 480 l 1
 0 600 l 1
 120 600 l 1
 240 600 l 1
 360 600 l 1
 480 600 l 1
EndSplineSet
Ligature2: "Podtablica 'liga' Ligatury zwyk+AUIA-e w +AUIA-aci+AUQA-skie w tablicy 0" exclam equal
EndChar

StartChar: nottripleequal
Encoding: 65540 -1 213
Width: 2160
GlyphClass: 3
Flags: W
LayerCount: 2
Fore
SplineSet
1080 960 m 1
 1200 960 l 1
 1200 720 l 1
 1080 720 l 1
 1080 960 l 1
960 -120 m 1
 840 -120 l 1
 840 120 l 1
 960 120 l 1
 960 -120 l 1
960 600 m 1
 1080 600 l 1
 1080 240 l 1
 960 240 l 1
 960 600 l 1
840 480 m 1
 2040 480 l 1
 2040 360 l 1
 840 360 l 1
 360 360 l 1
 240 360 l 1
 120 360 l 1
 0 360 l 1
 0 480 l 1
 120 480 l 1
 240 480 l 1
 360 480 l 1
 840 480 l 1
840 240 m 1
 960 240 l 1
 1080 240 l 1
 2040 240 l 1
 2040 120 l 1
 960 120 l 1
 840 120 l 1
 360 120 l 1
 240 120 l 1
 120 120 l 1
 0 120 l 1
 0 240 l 1
 120 240 l 1
 240 240 l 1
 360 240 l 1
 840 240 l 1
840 720 m 1
 1080 720 l 1
 1200 720 l 1
 2040 720 l 1
 2040 600 l 1
 1080 600 l 1
 960 600 l 1
 840 600 l 1
 360 600 l 1
 240 600 l 1
 120 600 l 1
 0 600 l 1
 0 720 l 1
 120 720 l 1
 240 720 l 1
 360 720 l 1
 840 720 l 1
EndSplineSet
Ligature2: "Podtablica 'liga' Ligatury zwyk+AUIA-e w +AUIA-aci+AUQA-skie w tablicy 0" exclam equal equal
EndChar

StartChar: leftarrow
Encoding: 65541 -1 214
Width: 1440
GlyphClass: 3
Flags: W
LayerCount: 2
Fore
SplineSet
480 840 m 1
 480 720 l 1
 360 720 l 1
 360 840 l 1
 480 840 l 1
360 720 m 1
 360 600 l 1
 240 600 l 1
 240 720 l 1
 360 720 l 1
240 600 m 1
 240 480 l 1
 120 480 l 1
 120 600 l 1
 240 600 l 1
1320 480 m 1
 1320 360 l 1
 0 360 l 1
 0 480 l 1
 1320 480 l 1
120 360 m 1
 240 360 l 1
 240 240 l 1
 120 240 l 1
 120 360 l 1
240 240 m 1
 360 240 l 1
 360 120 l 1
 240 120 l 1
 240 240 l 1
360 120 m 1
 480 120 l 1
 480 0 l 1
 360 0 l 1
 360 120 l 1
EndSplineSet
Ligature2: "Podtablica 'liga' Ligatury zwyk+AUIA-e w +AUIA-aci+AUQA-skie w tablicy 0" less hyphen
EndChar

StartChar: rightarrow
Encoding: 65542 -1 215
Width: 1440
GlyphClass: 3
Flags: W
LayerCount: 2
Fore
SplineSet
840 0 m 1
 840 120 l 1
 960 120 l 1
 960 0 l 1
 840 0 l 1
960 120 m 1
 960 240 l 1
 1080 240 l 1
 1080 120 l 1
 960 120 l 1
1080 240 m 1
 1080 360 l 1
 1200 360 l 1
 1200 240 l 1
 1080 240 l 1
0 360 m 1
 0 480 l 1
 1320 480 l 1
 1320 360 l 1
 0 360 l 1
1200 480 m 1
 1080 480 l 1
 1080 600 l 1
 1200 600 l 1
 1200 480 l 1
1080 600 m 1
 960 600 l 1
 960 720 l 1
 1080 720 l 1
 1080 600 l 1
960 720 m 1
 840 720 l 1
 840 840 l 1
 960 840 l 1
 960 720 l 1
EndSplineSet
Ligature2: "Podtablica 'liga' Ligatury zwyk+AUIA-e w +AUIA-aci+AUQA-skie w tablicy 0" hyphen greater
EndChar

StartChar: rightthickarrow
Encoding: 65543 -1 216
Width: 1440
GlyphClass: 3
Flags: W
LayerCount: 2
Fore
SplineSet
960 840 m 1
 960 720 l 1
 840 720 l 1
 840 840 l 1
 960 840 l 1
960 720 m 1
 1080 720 l 1
 1080 600 l 1
 960 600 l 1
 960 720 l 1
0 600 m 1
 1200 600 l 1
 1200 480 l 1
 0 480 l 1
 0 600 l 1
1200 480 m 1
 1320 480 l 1
 1320 360 l 1
 1200 360 l 1
 1200 480 l 1
1200 360 m 1
 1200 240 l 1
 0 240 l 1
 0 360 l 1
 1200 360 l 1
1080 240 m 1
 1080 120 l 1
 960 120 l 1
 960 240 l 1
 1080 240 l 1
960 120 m 1
 960 0 l 1
 840 0 l 1
 840 120 l 1
 960 120 l 1
EndSplineSet
Ligature2: "Podtablica 'liga' Ligatury zwyk+AUIA-e w +AUIA-aci+AUQA-skie w tablicy 0" equal greater
EndChar

StartChar: lessthanequalto
Encoding: 65544 -1 217
Width: 1440
GlyphClass: 3
Flags: W
LayerCount: 2
Fore
SplineSet
300 0 m 1
 1020 0 l 1
 1020 -120 l 1
 300 -120 l 1
 300 0 l 1
1020 120 m 1
 780 120 l 1
 780 240 l 1
 1020 240 l 1
 1020 120 l 1
780 240 m 1
 540 240 l 1
 540 360 l 1
 780 360 l 1
 780 240 l 1
540 360 m 1
 300 360 l 1
 300 480 l 1
 540 480 l 1
 540 360 l 1
540 480 m 1
 540 600 l 1
 780 600 l 1
 780 480 l 1
 540 480 l 1
780 600 m 1
 780 720 l 1
 1020 720 l 1
 1020 600 l 1
 780 600 l 1
EndSplineSet
Ligature2: "Podtablica 'liga' Ligatury zwyk+AUIA-e w +AUIA-aci+AUQA-skie w tablicy 0" less equal
EndChar

StartChar: greaterthanequalto
Encoding: 65545 -1 218
Width: 1440
GlyphClass: 3
Flags: W
LayerCount: 2
Fore
SplineSet
1020 0 m 1
 300 0 l 1
 300 -120 l 1
 1020 -120 l 1
 1020 0 l 1
300 120 m 1
 540 120 l 1
 540 240 l 1
 300 240 l 1
 300 120 l 1
540 240 m 1
 780 240 l 1
 780 360 l 1
 540 360 l 1
 540 240 l 1
780 360 m 1
 1020 360 l 1
 1020 480 l 1
 780 480 l 1
 780 360 l 1
780 480 m 1
 780 600 l 1
 540 600 l 1
 540 480 l 1
 780 480 l 1
540 600 m 1
 540 720 l 1
 300 720 l 1
 300 600 l 1
 540 600 l 1
EndSplineSet
Ligature2: "Podtablica 'liga' Ligatury zwyk+AUIA-e w +AUIA-aci+AUQA-skie w tablicy 0" greater equal
EndChar
